<?xml version="1.0" encoding="UTF-8" standalone="no"?>
<!-- Created with Inkscape (http://www.inkscape.org/) -->

<svg
   xmlns:dc="http://purl.org/dc/elements/1.1/"
   xmlns:cc="http://creativecommons.org/ns#"
   xmlns:rdf="http://www.w3.org/1999/02/22-rdf-syntax-ns#"
   xmlns:svg="http://www.w3.org/2000/svg"
   xmlns="http://www.w3.org/2000/svg"
   xmlns:sodipodi="http://sodipodi.sourceforge.net/DTD/sodipodi-0.dtd"
   xmlns:inkscape="http://www.inkscape.org/namespaces/inkscape"
   width="158.53485"
   height="158.53488"
   id="svg2"
   version="1.1"
   inkscape:version="0.48.4 r9939"
   sodipodi:docname="icon-spells.svg"
   inkscape:export-filename="/home/renmai/git/eduras/Eduras/src/de/illonis/eduras/images/gui/icons/icon-spells.png"
   inkscape:export-xdpi="27.25"
   inkscape:export-ydpi="27.25">
  <defs
     id="defs4" />
  <sodipodi:namedview
     id="base"
     pagecolor="#ffffff"
     bordercolor="#666666"
     borderopacity="1.0"
     inkscape:pageopacity="0.0"
     inkscape:pageshadow="2"
     inkscape:zoom="2.8"
     inkscape:cx="65.991064"
     inkscape:cy="89.903206"
     inkscape:document-units="px"
     inkscape:current-layer="layer2"
     showgrid="false"
     fit-margin-top="0"
     fit-margin-bottom="0"
     fit-margin-left="0"
     fit-margin-right="0"
     inkscape:window-width="1920"
     inkscape:window-height="1023"
     inkscape:window-x="1280"
     inkscape:window-y="22"
     inkscape:window-maximized="1" />
  <metadata
     id="metadata7">
    <rdf:RDF>
      <cc:Work
         rdf:about="">
        <dc:format>image/svg+xml</dc:format>
        <dc:type
           rdf:resource="http://purl.org/dc/dcmitype/StillImage" />
        <dc:title></dc:title>
      </cc:Work>
    </rdf:RDF>
  </metadata>
  <g
     inkscape:label="Border"
     inkscape:groupmode="layer"
     id="layer1"
     transform="translate(-173.64197,-311.56462)"
     style="display:inline"
     sodipodi:insensitive="true">
    <rect
       style="fill:none;stroke:#e6e6e6;stroke-width:8.73751068;stroke-linecap:round;stroke-linejoin:bevel;stroke-miterlimit:4;stroke-dasharray:none"
       id="rect2985-1-7"
       width="149.79735"
       height="149.79736"
       x="178.01073"
       y="315.93338" />
    <rect
       style="fill:none;stroke:#666666;stroke-width:8.54300022;stroke-linecap:round;stroke-linejoin:bevel;stroke-miterlimit:4;stroke-dasharray:none"
       id="rect2985-1"
       width="146.45668"
       height="146.4567"
       x="179.68106"
       y="317.60373" />
    <rect
       style="fill:#ffffff;stroke:#000000;stroke-width:8;stroke-linecap:round;stroke-linejoin:bevel;stroke-miterlimit:4;stroke-dasharray:none"
       id="rect2985"
       width="137.14285"
       height="137.14285"
       x="184.33797"
       y="322.26065" />
  </g>
  <g
     inkscape:groupmode="layer"
     id="layer2"
     inkscape:label="Art">
    <path
       style="fill:#e9c6af;fill-opacity:1;stroke:#00fb00;stroke-width:0.35714287000000000;stroke-opacity:1"
       d="m 14.991064,79.16739 0,-64.464286 64.285714,0 64.285712,0 0,64.464286 0,64.46429 -64.285712,0 -64.285714,0 0,-64.46429 z"
       id="path3005"
       inkscape:connector-curvature="0" />
    <path
       style="fill:#00ff00;fill-opacity:1;stroke:#00fb00;stroke-opacity:1"
       id="path3011"
       d="m 81.531327,17.783347 c -0.505707,0.983688 -0.998117,1.96777 -1.412495,2.993477 -0.309459,0.730257 -0.568799,1.481992 -0.890367,2.206869 -0.221115,0.542919 -0.370098,1.107 -0.668777,1.615391 -0.236858,0.518727 -0.499642,1.015322 -0.779347,1.51302 -0.162009,0.562582 -0.53904,0.997889 -0.823987,1.493064 -0.277447,0.559968 -0.575322,1.111894 -0.893897,1.649718 -0.363433,0.61141 -0.781935,1.186634 -1.168645,1.78314 -0.344546,0.464839 -0.593458,0.988994 -0.940577,1.451956 -0.299681,0.439177 -0.457681,0.949959 -0.744527,1.398415 -0.270695,0.461098 -0.42629,0.972384 -0.71264,1.42636 -0.23262,0.465348 -0.528644,0.887475 -0.822518,1.31427 -0.242036,0.462828 -0.589385,0.854724 -0.849217,1.305576 -0.324344,0.441314 -0.483047,0.969492 -0.709812,1.462715 -0.271794,0.528117 -0.552109,1.054299 -0.857298,1.564049 -0.372026,0.60989 -0.778733,1.196386 -1.142229,1.812051 -0.38883,0.653485 -0.828923,1.273071 -1.250615,1.905046 -0.373981,0.582544 -0.789025,1.137171 -1.189079,1.701828 -0.389036,0.521405 -0.810151,1.016966 -1.213653,1.527209 -0.0036,0.106065 -0.810719,0.862572 -0.529115,0.813073 0.565539,0.04779 1.13288,0.05172 1.700025,0.05256 0.719113,-0.0026 1.438215,-0.0075 2.157329,-0.01 0.716666,-0.0022 1.433335,-0.0024 2.150003,-0.0026 0.719447,0.03381 1.412799,0.0011 2.117001,-0.136428 0.712349,-0.140231 1.437448,-0.182421 2.16134,-0.207807 0.716596,-0.01839 1.43351,-0.01606 2.15028,-0.0155 0.714346,0.001 1.428693,0.0018 2.143039,0.0023 0.721276,0.02312 1.449086,-0.06103 2.16103,0.06888 0.70299,0.15391 1.417909,0.224544 2.135178,0.26326 0.710457,0.02951 1.421712,0.028 2.132638,0.02828 0.71411,-6.21e-4 1.428218,-0.0017 2.142328,-0.0023 0.714328,-5e-4 1.428657,-5.49e-4 2.142985,-5.9e-4 0.714291,-2.2e-5 1.428582,-7e-6 2.142874,-10e-7 0.714285,7e-6 1.42857,8e-6 2.142856,9e-6 0.690349,-0.04403 1.405907,0.09415 2.081067,-0.07321 0.69694,-0.206777 1.163038,0.07568 1.082924,0.836933 -0.279684,0.494123 -0.742202,0.873136 -1.168393,1.24278 -0.38914,0.353013 -0.751306,0.734513 -1.140071,1.087563 -0.41312,0.361104 -0.706871,0.819036 -1.067754,1.227632 -0.446761,0.447944 -0.926572,0.861992 -1.396101,1.286009 -0.392724,0.514011 -0.829523,0.977687 -1.322982,1.39523 -0.426881,0.361077 -0.822268,0.75675 -1.24348,1.123651 -0.46732,0.387755 -0.848801,0.862501 -1.278186,1.288922 -0.377419,0.409019 -0.815421,0.756661 -1.136678,1.213561 -0.351694,0.46246 -0.649983,0.961941 -0.975141,1.443113 -0.29943,0.484285 -0.762052,0.796186 -1.170104,1.175792 -0.421778,0.459923 -0.858152,0.905651 -1.269592,1.375279 -0.358525,0.396831 -0.74599,0.765946 -1.106926,1.160107 -0.386994,0.326683 -0.690137,0.716176 -0.992866,1.116652 -0.290387,0.420368 -0.614717,0.821553 -0.976765,1.1826 -0.347054,0.367205 -0.692053,0.739689 -1.063983,1.08236 -0.357343,0.356433 -0.700926,0.728322 -1.072432,1.070372 -0.427897,0.387563 -0.728582,0.882228 -1.1053,1.314802 -0.476109,0.327379 -0.673278,0.875233 -1.100791,1.245131 -0.413158,0.373471 -0.809499,0.769294 -1.184139,1.181739 -0.406346,0.317422 -0.78342,0.646674 -1.114209,1.04571 -0.442235,0.485244 -0.859618,0.995672 -1.266967,1.511001 -0.37148,0.480581 -0.789017,0.920814 -1.190317,1.375362 -0.465538,0.468355 -0.893841,0.975361 -1.308373,1.489372 -0.374591,0.476074 -0.791689,0.914612 -1.19219,1.367851 -0.351385,0.370948 -0.727169,0.718117 -1.074333,1.092899 -0.35709,0.355046 -0.727153,0.698578 -1.069786,1.067995 -0.35767,0.355916 -0.728089,0.700577 -1.071282,1.070871 -0.398974,0.358341 -0.722122,0.795266 -1.026122,1.234758 -0.01677,0.02805 -0.03512,0.05521 -0.0503,0.08415 -0.01468,0.02798 0.06286,-0.0087 0.09445,-0.008 0.05961,0.0013 0.1189,0.0093 0.178359,0.01377 0.327272,0.0248 0.178001,0.01503 0.532745,0.03231 0.692277,0.02122 1.385051,0.01267 2.077526,0.0091 0.719369,-0.0041 1.438748,-0.0056 2.158127,-0.0065 0.757902,0.07411 1.476272,-0.06485 2.21497,-0.200001 0.655365,-0.01964 1.25692,-0.215439 1.886944,-0.361416 0.664926,-0.126897 1.344049,-0.1412 2.018825,-0.148748 0.802829,-0.0076 1.605706,-0.0066 2.408562,-0.006 0.738805,0.07289 1.440739,-0.07332 2.162378,-0.195723 0.721422,-0.07876 1.428211,-0.137706 2.136966,-0.29107 0.727375,-0.07678 1.424902,-0.26679 2.139159,-0.411873 0.725829,-0.123974 1.426337,-0.364187 2.126692,-0.587728 0.714048,-0.238153 1.415851,-0.465333 2.164542,-0.573607 0.592206,-0.259816 1.224208,-0.351236 1.862638,-0.403367 0.593317,-0.16536 1.16024,-0.399133 1.755991,-0.55494 0.663046,-0.05672 1.280991,-0.253628 1.924286,-0.400929 0.624803,-0.02733 1.19743,-0.22052 1.79949,-0.35827 0.688987,-0.173503 1.214646,-0.06292 1.581991,0.570507 0.17935,0.670743 -0.200451,1.178291 -0.669268,1.61314 -0.450586,0.455358 -0.954,0.852846 -1.418098,1.293328 -0.468852,0.306628 -0.852793,0.70085 -1.264317,1.077328 -0.467562,0.369344 -0.914736,0.761684 -1.378667,1.135678 -0.467864,0.415909 -0.907825,0.865626 -1.329661,1.328171 -0.459991,0.43338 -0.830225,0.948514 -1.226785,1.437515 -0.34596,0.502378 -0.672366,1.018933 -0.984369,1.543357 -0.304604,0.517421 -0.645322,1.008374 -0.970966,1.512232 -0.263861,0.503938 -0.629238,0.941669 -0.911155,1.43358 -0.294568,0.425484 -0.570016,0.860949 -0.857501,1.290728 -0.327197,0.536393 -0.63778,1.077146 -1.074138,1.532868 -0.445807,0.589708 -0.668339,1.307915 -1.026906,1.951056 -0.22676,0.520061 -0.549157,0.981723 -0.850416,1.457882 -0.19957,0.621701 -0.503642,1.199861 -0.744831,1.803621 -0.244821,0.70863 -0.547213,1.39492 -0.826484,2.09024 -0.229139,0.54519 -0.496904,1.07189 -0.736292,1.61226 -0.251307,0.46901 -0.4522,0.95967 -0.762317,1.39467 -0.39099,0.56645 -0.768319,1.14265 -1.13736,1.72376 -0.368265,0.56894 -0.697293,1.16081 -1.04868,1.73954 -0.309286,0.55019 -0.656248,1.07601 -0.998602,1.6057 -0.354445,0.53071 -0.69207,1.07456 -1.058749,1.59711 -0.296586,0.46523 -0.705011,0.84055 -1.004652,1.30203 -0.273364,0.43031 -0.615371,0.80595 -0.933566,1.20132 -0.305458,0.51031 -0.612271,1.02145 -0.878929,1.55339 -0.274152,0.45874 -0.553768,0.91451 -0.846693,1.36149 -0.313052,0.4419 -0.588729,0.90785 -0.924185,1.3341 -0.350763,0.54587 -0.683591,1.10107 -1.070993,1.62264 -0.418329,0.59086 -0.809802,1.19701 -1.236787,1.7828 -0.372158,0.43111 -0.708373,0.88322 -1.04194,1.34322 -0.273166,0.43883 -0.653594,0.79212 -0.929274,1.22793 -0.307902,0.41927 -0.614655,0.81828 -0.81857,1.29915 -0.228536,0.52187 -0.565003,0.98275 -0.86414,1.46479 -0.298961,0.47386 -0.675639,0.88555 -1.038262,1.30909 -0.352951,0.37712 -0.733479,0.7272 -1.083204,1.10716 -0.414099,0.39849 -0.768693,0.84249 -1.105552,1.30708 0,0 -4.899044,2.07395 -4.899044,2.07395 l 0,0 c 0.412209,-0.40467 0.629218,-0.96939 1.105194,-1.31241 0.336927,-0.40759 0.711302,-0.75655 1.064021,-1.145 0.420986,-0.33964 0.763137,-0.79194 1.078735,-1.22692 0.350382,-0.41576 0.617806,-0.92304 0.894489,-1.38505 0.146427,-0.24703 0.192993,-0.51099 0.330777,-0.76155 0.233263,-0.42419 0.04424,-0.0272 0.317851,-0.38649 0.05386,-0.0707 0.08855,-0.15418 0.132822,-0.23127 0.329097,-0.3886 0.541448,-0.8666 0.942216,-1.2023 0.295596,-0.50519 0.646901,-0.95887 1.026818,-1.40155 0.495674,-0.53108 0.868641,-1.15777 1.248075,-1.77306 0.408467,-0.4956 0.783419,-1.02421 1.069148,-1.59781 0.150155,-0.22959 0.366379,-0.41509 0.505815,-0.64741 0.135706,-0.22611 0.194233,-0.48782 0.430679,-0.64619 0.261444,-0.47005 0.567495,-0.90486 0.851977,-1.35758 0.338307,-0.48806 0.547185,-1.06253 0.870744,-1.56291 0.231136,-0.47918 0.650194,-0.78682 0.915971,-1.24205 0.340689,-0.40041 0.601282,-0.9214 1.021857,-1.27946 0.337269,-0.53584 0.697842,-1.06074 1.072763,-1.57178 0.298586,-0.55631 0.69313,-1.04698 0.996419,-1.59914 0.32969,-0.60318 0.703082,-1.17627 1.05094,-1.76879 0.373956,-0.57509 0.732035,-1.16039 1.114695,-1.72782 0.284015,-0.44129 0.620668,-0.83607 0.784413,-1.34896 0.325737,-0.48278 0.496238,-1.06671 0.759202,-1.58555 0.348386,-0.64492 0.543151,-1.37061 0.859065,-2.03364 0.17009,-0.65473 0.561362,-1.19298 0.708569,-1.85593 0.186166,-0.55808 0.641319,-0.93517 0.836214,-1.4947 0.367468,-0.667109 0.720581,-1.331731 0.988807,-2.048728 0.862189,-1.144872 -0.369064,0.427929 0.458218,-0.454234 0.268636,-0.286458 0.395594,-0.691121 0.637461,-0.997867 0.255703,-0.459131 0.55293,-0.882606 0.848905,-1.312209 0.345309,-0.43729 0.571215,-0.964656 0.936076,-1.394071 0.264054,-0.559 0.700306,-0.990873 0.949281,-1.558918 0.379936,-0.478865 0.644571,-1.055138 0.977114,-1.566059 0.368369,-0.525157 0.792213,-1.006918 1.188631,-1.512916 0.48415,-0.406555 0.873241,-0.922114 1.321985,-1.36717 0.455439,-0.389646 0.931448,-0.743554 1.366108,-1.152445 0.483402,-0.305861 0.761371,-0.80383 1.27334,-1.051677 0.505712,-0.385415 0.944029,-0.858812 1.432611,-1.266045 0.253275,-0.250441 0.603371,-0.433484 0.802089,-0.737118 0.03593,-0.0549 0.0428,-0.125436 0.07837,-0.180573 0.01833,-0.02842 0.05274,-0.04236 0.07911,-0.06353 -0.161592,-0.372278 -0.915013,-0.02537 -1.182543,0.0027 -0.594194,0.157717 -1.200803,0.21533 -1.798418,0.357544 -0.631268,0.167653 -1.278485,0.236424 -1.906302,0.417374 -0.593137,0.196312 -1.188744,0.408857 -1.812463,0.48257 -0.626469,0.09395 -1.222403,0.287076 -1.838244,0.427394 -0.722984,0.157405 -1.412874,0.416871 -2.121192,0.627604 -0.707621,0.225591 -1.429413,0.408437 -2.158964,0.547825 -0.710888,0.161916 -1.428045,0.27332 -2.144999,0.404535 -0.711207,0.126569 -1.435937,0.141972 -2.146261,0.27886 -0.734846,0.120875 -1.468033,0.152948 -2.212844,0.123099 -0.799538,-0.0012 -1.599301,-0.005 -2.398593,0.01821 -0.659125,0.03028 -1.321663,0.06997 -1.961097,0.246652 -0.626875,0.163456 -1.264746,0.224219 -1.903216,0.329165 -0.752327,0.127521 -1.505668,0.144758 -2.268219,0.125234 -0.719011,0.0013 -1.438018,0.0038 -2.157021,0.0074 -0.705087,0.0022 -1.412101,0.01354 -2.115217,-0.04792 -0.606251,-0.08555 -1.244796,-0.269931 -1.270392,-0.997514 0.177242,-0.548212 0.617914,-0.960353 0.945881,-1.425772 0.398165,-0.308691 0.718178,-0.715151 1.071158,-1.071071 0.397523,-0.307866 0.716969,-0.713386 1.069647,-1.068173 0.402433,-0.310669 0.725899,-0.721258 1.081409,-1.081511 0.464555,-0.378686 0.834735,-0.876147 1.221902,-1.330762 0.45425,-0.481277 0.842103,-1.0268 1.278738,-1.526375 0.465201,-0.379168 0.836377,-0.877357 1.221718,-1.334449 0.446822,-0.479361 0.832746,-1.020231 1.240489,-1.534344 0.388458,-0.340956 0.610701,-0.860879 1.107065,-1.067213 0.436066,-0.353913 0.781894,-0.814075 1.176817,-1.211988 0.145377,-0.120029 0.328696,-0.188601 0.473449,-0.309382 0.28681,-0.239313 0.25967,-0.745913 0.628845,-0.926881 0.501445,-0.320939 0.700336,-0.873497 1.123268,-1.259977 0.312323,-0.39597 0.713257,-0.720315 1.072325,-1.070629 0.312398,-0.395041 0.713425,-0.716953 1.069284,-1.069845 0.306079,-0.397628 0.698205,-0.718907 1.005646,-1.116895 0.264533,-0.455346 0.570014,-0.864892 0.94338,-1.232838 0.418545,-0.32734 0.754573,-0.759513 1.120052,-1.142532 0.465567,-0.411359 0.806153,-0.939992 1.283297,-1.343413 0.339822,-0.47492 0.831397,-0.703729 1.176118,-1.15703 0.406703,-0.417082 0.660626,-0.94758 0.975904,-1.433774 0.398904,-0.458696 -0.06233,0.100558 0.30697,-0.452059 0.210619,-0.315168 0.558294,-0.535941 0.818492,-0.80525 0.398003,-0.466157 0.857372,-0.877066 1.250674,-1.347423 0.434084,-0.356689 0.818574,-0.751121 1.255699,-1.100806 0.446393,-0.457244 1.002889,-0.783355 1.349953,-1.332419 0.33921,-0.53575 0.913297,-0.897487 1.386111,-1.31354 0.185814,-0.191542 0.423887,-0.390596 0.571877,-0.615358 0.1495,-0.227054 0.219983,-0.477792 0.486364,-0.610483 0.328541,-0.412291 0.75107,-0.750056 1.135699,-1.107195 0.357194,-0.405264 0.797176,-0.763964 1.225221,-1.081768 0.12938,-0.04189 0.162057,-0.0961 0.259331,0.04125 0.0065,0.0091 -0.03475,-0.0059 -0.202693,0.01941 -0.07756,0.01168 -0.154288,0.02828 -0.231431,0.04242 -0.102352,0.01521 -0.204704,0.03042 -0.307055,0.04563 -0.706021,0.02589 -1.412829,0.006 -2.119206,0.01223 -0.714286,-2e-6 -1.428572,-6e-6 -2.142858,-1.2e-5 -0.714281,-5e-6 -1.428561,-2.1e-5 -2.142841,4.6e-5 -0.714243,9.7e-5 -1.428487,2.45e-4 -2.142729,9.42e-4 -0.714462,7.31e-4 -1.428925,0.0023 -2.143387,8.65e-4 -0.717928,-0.0033 -1.436552,-0.0066 -2.153076,-0.05681 -0.721942,-0.06002 -1.435563,-0.170707 -2.150536,-0.285226 -0.707527,-0.03544 -1.416489,-0.0089 -2.124685,-0.01762 -0.714226,-5.99e-4 -1.428451,-0.0018 -2.142677,-0.0018 -0.711891,0.0012 -1.424184,0.0012 -2.135419,0.03576 -0.713018,0.04335 -1.422008,0.122494 -2.12419,0.256803 -0.719783,0.09795 -1.444102,0.06324 -2.168996,0.06713 -0.716206,3.89e-4 -1.432414,9.78e-4 -2.148616,0.0039 -0.720836,0.0031 -1.441695,0.0097 -2.162533,0.0048 -0.638832,-0.01141 -1.324774,0.01991 -1.89803,-0.302205 -0.606942,-0.604771 -0.386725,-1.008004 0.154233,-1.568948 0.359719,-0.54951 0.816153,-1.022823 1.203986,-1.547907 0.448937,-0.513363 0.7822,-1.118658 1.214422,-1.646523 0.376483,-0.662451 0.866276,-1.247904 1.257754,-1.900839 0.367094,-0.605932 0.70615,-1.227532 1.1329,-1.795007 0.281189,-0.521001 0.602297,-1.01686 0.8689,-1.543949 0.280742,-0.490824 0.428439,-1.018283 0.678157,-1.520486 0.319603,-0.396865 0.517961,-0.882633 0.869596,-1.26139 0.217216,-0.486453 0.624386,-0.834139 0.812491,-1.335721 0.275809,-0.463073 0.581478,-0.890186 0.711848,-1.427911 0.276891,-0.464532 0.585093,-0.894606 0.732584,-1.427766 0.320459,-0.485807 0.69375,-0.930993 0.945765,-1.463634 0.444358,-0.543112 0.78699,-1.179465 1.186809,-1.754443 0.344305,-0.50498 0.593244,-1.057988 0.91278,-1.576502 0.235326,-0.66024 0.643993,-0.864981 0.821487,-1.509404 0.229082,-0.536934 0.622246,-0.968179 0.757069,-1.546401 0.302733,-0.518692 0.577286,-0.956016 0.701567,-1.565677 0.324989,-0.726328 0.624169,-1.460703 0.914925,-2.202975 0.434992,-1.022121 0.877423,-2.033425 1.384504,-3.021767 0,0 4.832989,-2.186597 4.832989,-2.186597 z"
       inkscape:connector-curvature="0" />
    <path
       style="fill:#00ff00;fill-opacity:1;stroke:#00fb00;stroke-opacity:1"
       id="path3013"
       d="m 78.374249,17.767553 c -0.295003,1.107013 -0.732306,2.167344 -1.055921,3.265163 -0.209329,0.710316 -0.488222,1.399448 -0.858929,2.040715 -0.27562,0.531303 -0.560492,1.056564 -0.94407,1.518314 -0.315983,0.462994 -0.576264,0.941115 -0.926349,1.381905 -0.354158,0.502928 -0.771702,0.949098 -1.087234,1.480336 -0.289369,0.520832 -0.558236,1.05201 -0.82054,1.58682 -0.213745,0.532674 -0.548094,0.997582 -0.886986,1.455789 -0.399493,0.537434 -0.810742,1.064762 -1.184254,1.620937 -0.349839,0.457981 -0.597372,0.980553 -0.94263,1.441658 -0.26715,0.449909 -0.561286,0.877871 -0.870727,1.299444 -0.381515,0.362814 -0.566481,0.856732 -0.802585,1.31558 -0.316195,0.433128 -0.486214,0.943047 -0.718218,1.421824 -0.280981,0.43107 -0.57394,0.852287 -0.869268,1.273699 -0.231839,0.504507 -0.498566,0.97727 -0.774977,1.458531 -0.282781,0.519934 -0.53385,1.054974 -0.820504,1.572809 -0.331827,0.425263 -0.511402,0.935016 -0.748275,1.413963 -0.283688,0.428264 -0.575999,0.848484 -0.870943,1.269078 -0.238646,0.461492 -0.522788,0.891545 -0.810072,1.32313 -0.271085,0.446539 -0.525708,0.901351 -0.768205,1.364278 -0.19758,0.495618 -0.53604,0.909969 -0.792041,1.372864 -0.290113,0.425658 -0.56528,0.858685 -0.851871,1.286344 -0.286036,0.47137 -0.397505,1.022608 -0.568001,1.542939 -0.158415,0.453312 -0.129962,0.872141 0.149665,1.26413 0.418384,0.304829 0.986377,0.285929 1.483063,0.308317 0.694846,-0.0082 1.364349,-0.0043 2.042528,0.14789 0.621512,0.142429 1.259167,0.174324 1.894032,0.196858 0.703023,0.01795 1.406361,0.01562 2.109554,0.01514 0.590008,-0.204921 1.225932,-0.204235 1.81684,-0.387635 0.682678,-0.204781 1.392898,-0.267394 2.100922,-0.306621 0.717811,-0.02968 1.436439,-0.02681 2.154709,-0.02634 0.70655,-0.0235 1.387638,-0.01546 2.075676,0.145027 0.618162,0.147136 1.253621,0.179763 1.886089,0.202926 0.702677,0.01849 1.405687,0.01608 2.108544,0.01558 0.719987,0.03291 1.413968,-6.87e-4 2.118599,-0.138637 0.712551,-0.140587 1.437914,-0.182857 2.162064,-0.208276 0.727596,0.0011 1.312403,0.015 2.020644,-0.161026 0.633191,-0.147822 1.284482,-0.17587 1.93172,-0.197667 0.707851,-0.01704 1.415984,-0.01455 2.123985,-0.01392 0.570894,-0.17904 1.163796,-0.235417 1.751577,-0.324808 0.04262,-0.01296 0.08654,-0.0555 0.127864,-0.03888 0.06735,0.02709 0.118476,0.09015 0.155206,0.152765 0.239446,0.408189 0.220523,0.566141 -0.109954,0.847712 -0.325469,0.388768 -0.730655,0.679217 -1.132822,0.979761 -0.421521,0.281589 -0.818635,0.60566 -1.177374,0.964214 -0.360201,0.341103 -0.728909,0.678019 -1.061973,1.046391 -0.262019,0.455922 -0.687938,0.765888 -1.058611,1.124648 -0.376727,0.33346 -0.752979,0.671459 -1.099198,1.037228 -0.36025,0.35305 -0.730338,0.698137 -1.073374,1.068417 -0.475391,0.364185 -0.931044,0.735695 -1.331732,1.185563 -0.457553,0.45147 -0.958939,0.856596 -1.423972,1.300474 -0.453814,0.462266 -0.963567,0.863979 -1.423971,1.318718 -0.492581,0.457926 -0.991736,0.913358 -1.443304,1.412351 -0.473671,0.515658 -0.936548,1.032754 -1.374805,1.578605 -0.326601,0.425568 -0.666002,0.845429 -1.047719,1.223071 -0.31314,0.40148 -0.60901,0.817267 -0.916101,1.224659 -0.366749,0.415298 -0.644337,0.87989 -1.05769,1.255895 -0.366855,0.395922 -0.721058,0.809413 -1.051999,1.23644 -0.275126,0.440614 -0.565571,0.874441 -0.915504,1.25943 -0.401436,0.389866 -0.690296,0.84422 -0.957894,1.332401 -0.269671,0.498255 -0.632248,0.928494 -0.989329,1.363593 -0.422787,0.419277 -0.756044,0.913008 -1.144878,1.362385 -0.428152,0.515735 -0.899357,0.995279 -1.375426,1.466852 -0.41012,0.421089 -0.797914,0.864585 -1.220359,1.273287 -0.356932,0.364829 -0.702947,0.742521 -1.078104,1.088987 -0.356113,0.356348 -0.698786,0.727856 -1.069524,1.069385 -0.356909,0.356676 -0.700001,0.728841 -1.071205,1.071023 -0.356969,0.356833 -0.700141,0.729135 -1.071444,1.071434 -0.418412,0.415123 -0.787222,0.865728 -1.162968,1.317587 -0.402349,0.42935 -0.735772,0.90662 -1.072329,1.386114 -0.303518,0.487389 -0.693745,0.908233 -1.060832,1.346008 -0.06683,0.154515 -0.748099,0.816321 -0.537051,0.97489 0.506509,0.09767 1.025252,0.100273 1.539181,0.107817 0.67849,0.08279 1.301731,-0.0758 1.955437,-0.212459 0.103366,-0.0164 0.209717,-0.01958 0.310099,-0.0492 0.178324,-0.05261 0.337487,-0.15833 0.51421,-0.216093 0.287164,-0.09386 0.546095,-0.120185 0.817142,-0.259021 0.553133,-0.246215 1.092646,-0.506087 1.639159,-0.765034 0.522529,-0.201904 1.002809,-0.491094 1.503968,-0.740777 0.591662,-0.222311 1.23063,-0.240125 1.854976,-0.262811 0.648771,0.0552 1.253419,-0.167627 1.886819,-0.263375 0.673625,-0.08402 1.353491,-0.09137 2.031333,-0.09898 0.713193,-0.0047 1.426408,-0.0024 2.139609,-0.0014 0.727916,0.0193 1.306958,0.03267 2.01484,-0.143967 0.633029,-0.148921 1.28436,-0.177664 1.931655,-0.199859 0.663865,-0.221347 1.389219,-0.176531 2.045411,-0.401572 0.609289,-0.218385 1.254679,-0.269118 1.895496,-0.304133 0.697326,-0.05719 1.405688,0.04579 2.092894,-0.09218 0.708098,-0.157665 1.430018,-0.222518 2.152886,-0.260275 0.723794,0.02689 1.418059,-0.176216 2.130271,-0.274468 0.717869,-0.08749 1.44171,-0.09918 2.163914,-0.107705 0.639251,-0.141131 1.014168,0.295597 0.493605,0.843034 -0.437533,0.300504 -0.804514,0.686996 -1.255791,0.967994 -0.440098,0.273806 -0.82681,0.613882 -1.22636,0.940597 -0.3478,0.387222 -0.814991,0.626245 -1.212701,0.95408 -8.881063,5.182626 -3.945655,2.291879 -0.436331,0.283553 0.06867,-0.0393 -0.135918,0.08216 -0.196873,0.132608 -0.208197,0.172305 -0.398864,0.385065 -0.593625,0.572884 -0.356132,0.448691 -0.843448,0.756884 -1.269311,1.130988 -0.436621,0.348003 -0.841864,0.731454 -1.247836,1.114388 -0.352963,0.423811 -0.837795,0.69576 -1.255003,1.046673 -0.416083,0.298078 -0.741239,0.698752 -1.171187,0.977294 -0.357977,0.343138 -0.77893,0.634292 -1.10014,1.014827 -0.420558,0.365737 -0.795584,0.767052 -1.164433,1.185431 -0.350728,0.439166 -0.746297,0.837493 -1.097531,1.276243 -0.332295,0.430981 -0.626803,0.886353 -0.89654,1.358719 -0.05597,0.167926 -0.104416,-0.01029 -0.09177,-0.192629 0.0048,-0.06941 0.14559,-0.224098 0.08444,-0.190896 -3.849689,2.09037 -5.662293,3.565287 -4.052269,2.275269 0.58709,-0.532753 1.100201,-1.133416 1.701491,-1.651884 0.485727,-0.444003 1.032235,-0.814253 1.569431,-1.192014 0.448695,-0.395477 0.904772,-0.784787 1.328479,-1.207278 0.443021,-0.377282 0.779003,-0.858567 1.124137,-1.322495 0.538706,-0.574115 0.42131,-0.934612 0.812145,-0.06726 7.177619,-4.653636 5.011077,-3.386973 3.650509,-1.684494 -0.280244,0.46341 -0.637072,0.871151 -0.904992,1.341388 -0.301573,0.544692 -0.596406,1.089535 -0.864975,1.651396 -0.263552,0.534915 -0.552135,1.056969 -0.825571,1.586857 -0.286092,0.486981 -0.476523,0.991706 -0.618236,1.536164 -0.206791,0.581273 -0.432634,1.160642 -0.698043,1.718115 -0.210091,0.53235 -0.433392,1.0646 -0.604159,1.6116 -0.197858,0.53196 -0.341109,1.08449 -0.542284,1.61505 -0.193347,0.49474 -0.508178,0.93037 -0.872166,1.31321 -0.359059,0.42233 -0.760328,0.80235 -1.213173,1.12268 -0.517598,0.41458 -1.084777,0.76446 -1.591782,1.19201 -0.463035,0.4379 -0.882443,0.8691 -1.124959,1.46485 -0.147106,0.55607 -0.462879,1.0383 -0.682158,1.56306 -0.156604,0.52378 -0.473024,0.9693 -0.720809,1.44937 -0.304418,0.50994 -0.618312,1.01247 -0.944222,1.50873 -0.312567,0.53097 -0.684749,1.01836 -1.057583,1.50684 -0.459958,0.52843 -0.779004,1.1506 -1.208211,1.70135 -0.394864,0.52172 -0.829915,1.0093 -1.257596,1.50341 -0.351982,0.38385 -0.656035,0.79124 -1.021238,1.16398 -0.315402,0.39789 -0.621033,0.80585 -0.974567,1.17114 -0.347389,0.4259 -0.77366,0.77466 -1.153267,1.16963 -0.37519,0.38814 -0.772645,0.75729 -1.130361,1.16172 -0.281638,0.43467 -0.627561,0.82151 -0.88783,1.2694 -0.293674,0.43232 -0.600172,0.83608 -0.803572,1.3199 -0.222061,0.49253 -0.457347,0.979 -0.670566,1.47561 -0.245716,0.49927 -0.493757,0.9936 -0.771546,1.47631 -0.341008,0.48305 -0.564008,1.01992 -0.814035,1.55087 -0.211475,0.51975 -0.348222,1.05958 -0.631415,1.54822 -0.254504,0.3514 -0.365338,0.82529 -0.636026,1.16063 -0.06745,-0.11222 -0.157457,-0.25509 -0.164673,-0.37391 -1.61e-4,-0.003 0.354949,-0.26703 0.388912,-0.28428 -1.458599,0.83947 -2.917199,1.67894 -4.375798,2.51841 0.419225,-0.27341 0.767289,-0.63039 1.140184,-0.95986 0.436203,-0.42718 0.813948,-0.90894 1.191372,-1.38904 0.355255,-0.45301 0.75589,-0.86554 1.137447,-1.29523 0.396928,-0.34312 0.705275,-0.75404 1.027094,-1.16256 0.420643,-0.42404 0.571739,-1.00912 0.925324,-1.47849 0.366831,-0.51473 0.779407,-0.98955 1.184198,-1.47377 0.452363,-0.3828 0.82387,-0.73664 1.059361,-1.28652 0.284548,-0.54841 0.518668,-1.11075 0.710091,-1.69732 0.241873,-0.59723 0.525524,-1.16689 0.685734,-1.79331 0.15448,-0.6678 0.349608,-1.32128 0.578791,-1.96652 0.163583,-0.55381 0.344107,-1.10743 0.592219,-1.62972 0.341895,-0.59832 0.678932,-1.20044 1.025746,-1.79673 0.330158,-0.55679 0.718133,-1.0722 1.07798,-1.60858 0.264164,-0.50022 0.649075,-0.9227 0.907545,-1.42408 0.178015,-0.61643 0.418761,-1.19268 0.763246,-1.73412 0.461974,-0.66189 0.882382,-1.35088 1.320078,-2.02873 0.417488,-0.52683 0.698117,-1.12204 0.993309,-1.71907 0.224875,-0.57273 0.485641,-1.12638 0.757616,-1.67749 0.291654,-0.5014 0.494264,-1.01869 0.643185,-1.57736 0.198461,-0.65258 0.51542,-1.25529 0.859628,-1.84056 0.287659,-0.63727 0.602962,-1.25402 0.933493,-1.87026 0.247922,-0.54467 0.450986,-1.110387 0.71604,-1.646963 0.228378,-0.486538 0.442784,-0.982142 0.700931,-1.45386 0.205806,-0.569728 0.576718,-0.993656 0.993863,-1.416252 0.442754,-0.398321 0.811087,-0.870041 1.215684,-1.308105 0.384686,-0.467307 0.828453,-0.882655 1.16586,-1.386541 0.335021,-0.387947 0.687375,-0.7548 0.985305,-1.175213 0.324087,-0.576647 0.619862,-1.169347 0.829191,-1.797395 0.166838,-0.578182 0.414297,-1.124659 0.777194,-1.605182 0.199012,-0.02913 0.410479,-1.008536 0.436785,-1.014337 0.04042,-0.0089 0.03919,0.07292 0.05879,0.109384 0.02534,0.08391 0.122295,0.29793 0.05398,0.405911 -0.06767,0.106967 -0.461348,0.206255 -0.351925,0.14263 1.452255,-0.844418 5.78532,-3.412677 4.382527,-2.488418 -1.532508,1.009724 -3.181634,1.830219 -4.772451,2.745328 -0.364184,0.185243 -0.783282,0.147237 -1.167808,0.235052 -0.187434,0.04281 -0.361983,0.130049 -0.545527,0.187281 -0.62885,0.16649 -1.282042,0.18896 -1.9286,0.209313 -0.720835,-0.005 -1.297234,-0.01746 -1.999073,0.155948 -0.660768,0.0093 -1.134046,0.414917 -1.711879,0.656805 -0.409601,0.186667 -0.869155,0.146355 -1.297102,0.233376 -0.193273,0.0393 -0.374749,0.123337 -0.563957,0.179011 -0.630479,0.160856 -1.283494,0.183412 -1.93049,0.203335 -0.708672,0.01486 -1.417565,0.01156 -2.126347,0.01044 -0.715078,-0.0015 -1.430157,-0.0022 -2.145236,-0.0026 -0.714424,-3.32e-4 -1.428848,-3.27e-4 -2.143272,-3.36e-4 -0.615951,-0.152951 -1.235996,-0.260956 -1.868243,-0.313434 -0.649351,-0.11763 -1.241714,0.03217 -1.869543,0.160241 -0.654204,0.11603 -1.319917,0.133354 -1.982491,0.147989 -0.69595,0.174041 -1.40567,0.266026 -2.119746,0.319794 -0.777345,0.05116 -1.556581,0.03631 -2.334977,0.04411 -0.681504,0.07222 -0.856204,-0.544234 -0.582449,-1.064644 0.369478,-0.603627 0.866942,-1.097466 1.398594,-1.557361 0.461236,-0.38368 0.895317,-0.797846 1.346883,-1.192038 0.404997,-0.396046 0.839134,-0.759282 1.211627,-1.187898 0.338771,-0.55761 0.840409,-0.974758 1.291504,-1.433901 0.370337,-0.422281 0.708923,-0.872352 1.098201,-1.277474 0.325482,-0.452373 0.703502,-0.869584 0.963181,-1.365487 0.220509,-0.521374 0.485358,-1.022745 0.839732,-1.465314 0.301667,-0.413893 0.701457,-0.737432 0.988035,-1.162027 0.351843,-0.440289 0.790239,-0.804786 1.197942,-1.192655 0.397547,-0.358459 0.799696,-0.714839 1.16974,-1.102057 0.406168,-0.329256 0.711117,-0.739352 1.030934,-1.145671 0.344089,-0.451122 0.734117,-0.864309 1.090618,-1.304608 0.339788,-0.468203 0.629132,-0.970249 0.955507,-1.447225 0.288345,-0.515576 0.617861,-1.008287 0.885611,-1.535246 0.252444,-0.58755 0.644586,-1.097692 1.028046,-1.603917 0.373234,-0.413058 0.67047,-0.88845 0.972561,-1.354678 0.369906,-0.477504 0.580643,-1.035918 0.857056,-1.564608 0.312231,-0.508301 0.55973,-1.050779 0.90865,-1.536295 0.37002,-0.4258 0.643026,-0.919924 0.986315,-1.365465 0.389426,-0.44603 0.709369,-0.942695 1.098388,-1.388777 0.447869,-0.494379 0.852973,-1.025894 1.313679,-1.508463 0.401144,-0.415077 0.797803,-0.837435 1.226763,-1.224017 0.454249,-0.351402 0.905291,-0.706488 1.356906,-1.06152 0.418718,-0.325904 0.727958,-0.737644 1.023472,-1.172958 0.403677,-0.52041 0.70626,-1.104741 1.043698,-1.667757 1.280944,-1.680537 0.298894,-0.454678 4.909431,-3.030285 0.121257,-0.06774 0.418097,0.05948 0.505673,0.116872 0.211406,0.138555 0.262023,0.258644 0.399354,0.462794 0.309551,0.67312 -0.02441,1.253993 -0.383895,1.824157 -0.410063,0.615726 -0.875907,1.191806 -1.316732,1.78549 -0.381182,0.514529 -0.741668,1.041084 -1.12504,1.554936 -0.394371,0.390446 -0.789953,0.771313 -1.140041,1.204719 -0.363891,0.356155 -0.660382,0.758427 -0.959371,1.166932 -1.12219,1.664814 -4.221882,4.827316 -5.682425,2.933499 -0.285868,-0.689898 0.09435,-1.314338 0.406232,-1.918727 0.275985,-0.60538 0.623906,-1.172407 0.915962,-1.769196 0.299473,-0.573686 0.445409,-1.205358 0.695414,-1.800025 0.300308,-0.52009 0.545398,-1.067266 0.768206,-1.623993 0.216497,-0.527545 0.494266,-1.029435 0.693411,-1.563493 0.147325,-0.59159 0.207819,-1.195166 0.351908,-1.788677 0.147706,-0.561491 0.415227,-1.088379 0.718955,-1.58096 0.02059,-0.03028 0.03316,-0.06799 0.06176,-0.09084 0.06499,-0.05192 0.02715,0.203058 -0.04434,0.245572 -0.598785,0.356053 0.279638,-0.320745 -0.327038,0.170937 -0.494006,0.208621 -0.924715,0.474271 -1.455582,0.597268 -0.102914,0.01612 -0.208638,0.01954 -0.308744,0.04835 -0.180171,0.05185 -0.343046,0.153922 -0.522513,0.208159 -0.295665,0.08935 -0.59737,0.127873 -0.902741,0.165196 -0.686715,0.06442 -1.377301,0.06384 -2.066376,0.06628 -0.645244,-0.0087 -1.26737,-0.213374 -1.909645,-0.290194 -0.672844,-0.0651 -1.349567,-0.06839 -2.024921,-0.07306 -0.712843,-0.0025 -1.425692,-4.97e-4 -2.138536,3.98e-4 -0.727719,-0.01759 -1.307183,-0.03022 -2.014752,0.146739 -0.648483,0.106227 -1.258136,0.333913 -1.906839,0.447681 -0.654444,0.303853 -1.400427,0.272431 -2.066763,0.510673 -0.600775,0.249909 -1.262639,0.206336 -1.878863,0.375345 -0.760795,0.20494 -1.551676,0.242835 -2.334777,0.280867 -0.755854,-0.0065 -1.528427,0.10942 -2.273459,-0.04071 -0.104327,-0.02401 -0.208654,-0.04803 -0.312981,-0.07204 0,0 4.359206,-3.040416 4.359206,-3.040416 l 0,0 c 0.09736,0.01539 0.194713,0.03077 0.292069,0.04616 0.734193,0.03663 1.470828,-0.002 2.204562,-0.03464 0.774921,-0.0567 1.542884,-0.154367 2.297143,-0.347455 0.630882,-0.09126 1.254837,-0.20055 1.862381,-0.400292 0.703188,-0.128257 1.392688,-0.298111 2.082218,-0.485395 0.637608,-0.153297 1.264211,-0.348809 1.914414,-0.447523 0.685265,-0.10208 1.379632,-0.04398 2.070325,-0.05946 0.714364,-8.11e-4 1.42876,-0.003 2.143095,0.0049 0.690764,0.01158 1.383655,0.02637 2.068563,0.125584 0.617493,0.09982 1.227686,0.275404 1.859356,0.228697 0.675184,-0.01001 1.354517,-0.01834 2.021274,-0.137045 0.574824,-0.124858 1.121947,-0.337923 1.691605,-0.482391 0.486759,-0.199185 0.941485,-0.466903 1.444549,-0.629299 0.590528,-0.06026 0.988912,0.08626 0.973682,0.781859 -0.23444,0.495742 -0.586692,0.936025 -0.785781,1.455936 -0.134037,0.607838 -0.292127,1.196375 -0.335376,1.821444 -0.144574,0.583506 -0.441442,1.080452 -0.663261,1.634114 -0.292747,0.526968 -0.425616,1.136781 -0.751859,1.65145 -0.3819,0.535156 -0.439561,1.196878 -0.708586,1.787017 -0.307427,0.588359 -0.60137,1.174982 -0.920444,1.756814 -0.20546,0.469996 -0.502785,0.883134 -0.678693,1.364169 1.562818,0.85085 0.0241,-0.0059 -4.440985,2.563263 -0.0564,0.03246 0.130472,-0.02432 0.186695,-0.05709 0.23023,-0.134194 0.285069,-0.396846 0.500667,-0.545768 0.262601,-0.45693 0.566597,-0.870851 0.921305,-1.256498 0.413901,-0.370057 0.655334,-0.908388 1.156806,-1.182291 0.450814,-0.459137 0.789287,-1.00916 1.136717,-1.546256 0.484985,-0.543201 0.859911,-1.179013 1.34512,-1.724016 0.241258,-0.395152 0.654361,-0.770912 0.649331,-1.25957 -0.191661,-0.234067 -0.587504,0.128767 -0.464093,0.05566 4.314963,-2.555982 5.738244,-3.523083 4.1154,-2.427497 -0.430558,0.502723 -0.627902,1.144898 -1.047252,1.656409 -0.302326,0.441999 -0.545475,0.951327 -0.97678,1.276529 -0.381411,0.430092 -0.87341,0.771393 -1.350398,1.085713 -0.44453,0.367412 -0.834525,0.773008 -1.256703,1.163278 -0.430718,0.509945 -0.92215,0.9692 -1.312228,1.514676 -0.413997,0.426812 -0.720792,0.901014 -1.116895,1.333496 -0.05795,0.08263 -0.115904,0.165269 -0.173856,0.247904 -0.06524,0.06845 -0.13883,0.129817 -0.195725,0.205346 -0.22061,0.292866 -0.287777,0.687073 -0.62067,0.894769 -0.324833,0.496908 -0.696583,0.955554 -0.922265,1.514807 -0.359347,0.48916 -0.44119,1.099712 -0.864434,1.549667 -0.263448,0.515194 -0.612439,0.974251 -0.92657,1.455388 -0.444482,0.41599 -0.761,0.948198 -1.100219,1.450168 -0.215992,0.578923 -0.574864,1.065362 -0.847246,1.612473 -0.299434,0.491829 -0.615984,0.978124 -0.953548,1.444369 -0.270244,0.528123 -0.740043,0.880485 -1.061902,1.373629 -0.3657,0.387854 -0.601941,0.851277 -1.002196,1.205694 -0.425387,0.329917 -0.767302,0.760784 -1.166956,1.121104 -0.443537,0.329209 -0.795287,0.759441 -1.237619,1.084367 -0.335036,0.383878 -0.556083,0.857063 -0.990794,1.15753 -0.312856,0.444351 -0.696279,0.830108 -0.899232,1.349545 -0.223301,0.658258 -0.540324,0.951636 -0.891074,1.511108 -0.339078,0.448351 -0.765756,0.825942 -1.109523,1.273431 -0.370329,0.530013 -0.92047,0.865248 -1.305958,1.387283 -0.278021,0.513817 -0.715479,0.914662 -1.172903,1.271793 -0.387873,0.464295 -0.887358,0.836166 -1.347436,1.22614 -0.485787,0.467824 -1.08765,0.845263 -1.429108,1.444526 -0.0328,0.03364 -0.176547,0.226678 -0.279332,0.208205 -0.06052,-0.01087 -0.176609,-0.110397 -0.121893,-0.138444 0.116045,-0.05948 0.288763,0.08809 0.391191,-0.003 0.77077,1.84e-4 1.542858,-0.01324 2.310779,-0.08449 0.716653,-0.08048 1.421233,-0.23871 2.139872,-0.295371 0.649917,-0.02965 1.300062,-0.07787 1.936764,-0.219995 0.651838,-0.123051 1.301686,-0.115889 1.960265,-0.03082 0.614028,0.07612 1.215414,0.232679 1.832627,0.271384 0.714488,4.7e-5 1.428976,1.03e-4 2.143464,6.58e-4 0.715063,6.41e-4 1.430126,0.0019 2.14519,0.0025 0.704422,-3.85e-4 1.409304,0.0017 2.113095,-0.03238 0.630845,-0.04087 1.259797,-0.110055 1.866312,-0.298891 0.60509,-0.149353 1.245286,-0.175868 1.80377,-0.483016 0.570597,-0.292914 1.14997,-0.478598 1.790795,-0.556192 0.675851,-0.101041 1.360528,-0.0431 2.041156,-0.09087 0.629295,-0.04196 1.257347,-0.111428 1.858686,-0.313663 0.556177,-0.152559 1.151875,-0.188503 1.646132,-0.51774 -1.447405,0.836031 -5.846118,3.237615 -4.342214,2.508092 1.647901,-0.799374 3.182445,-1.813937 4.775236,-2.718145 0.01084,-0.0062 0.311156,-0.169534 0.346619,-0.169584 0.213072,-3.01e-4 0.324264,0.19835 0.44749,0.329447 0.03127,0.07007 0.08382,0.13413 0.0938,0.210207 0.0092,0.0704 -0.318416,1.050195 -0.388955,1.167823 -0.324639,0.465695 -0.706626,0.876165 -0.864833,1.443766 -0.16857,0.668265 -0.442194,1.291614 -0.768934,1.896887 -0.192882,0.454571 -0.552988,0.959044 -0.956626,1.244614 -0.398137,0.476892 0.05434,-0.0938 -0.316637,0.478296 -0.227613,0.351011 -0.586258,0.612167 -0.847392,0.936272 -0.363365,0.488519 -0.836394,0.881906 -1.174745,1.387935 -0.438495,0.317139 -0.901722,0.698458 -1.069147,1.230771 -0.240933,0.478726 -0.513691,0.940603 -0.709343,1.439069 -0.258117,0.542423 -0.530652,1.078608 -0.724313,1.649159 -0.282097,0.652193 -0.729342,1.212301 -0.924057,1.905977 -0.314957,0.57185 -0.69262,1.11308 -0.890117,1.74214 -0.224948,0.53439 -0.216078,1.16221 -0.625997,1.62053 -0.223893,0.57774 -0.590483,1.08489 -0.749949,1.69092 -0.279323,0.61881 -0.527093,1.26448 -0.984405,1.78017 -0.412232,0.69787 -0.876273,1.36448 -1.302417,2.054 -0.37375,0.48467 -0.6981,1.00529 -0.801821,1.61814 -0.178416,0.57553 -0.530657,1.01399 -0.881642,1.49436 -0.293528,0.59387 -0.770347,1.05225 -1.065958,1.64683 -0.421155,0.52828 -0.618103,1.18989 -1.048538,1.71677 -0.240343,0.51009 -0.498228,1.01898 -0.625133,1.5726 -0.196632,0.64321 -0.465017,1.25607 -0.606249,1.91784 -0.120316,0.66252 -0.341299,1.26925 -0.645666,1.8679 -0.261473,0.56141 -0.353528,1.19841 -0.688994,1.73287 -0.291939,0.53622 -0.36738,1.158 -1.000676,1.43566 -0.449353,0.42881 -0.824455,0.92907 -1.199746,1.42048 -0.05493,0.0723 -0.109864,0.14467 -0.164796,0.21701 -0.06265,0.0601 -0.134918,0.11148 -0.187935,0.18019 -0.256486,0.33242 -0.253646,0.80606 -0.5607,1.11295 -0.367104,0.38811 -0.605754,0.85167 -1.004902,1.20875 -0.442304,0.35572 -0.797547,0.82412 -1.164003,1.25436 -0.246573,0.2541 -0.625207,0.6851 -0.825008,0.97562 -0.0594,0.0864 -0.08599,0.19392 -0.152151,0.27523 -0.05259,0.0646 -0.131347,0.10257 -0.197021,0.15386 -0.313377,0.39292 -0.71543,0.72684 -1.102351,1.04017 -1.576637,0.92874 -3.151636,1.86027 -4.729912,2.78622 -0.103717,0.0609 -0.415526,0.20598 -0.54301,0.11407 -0.234087,-0.16875 -0.246272,-0.25017 -0.326035,-0.45575 -0.0037,-0.49848 0.410481,-0.88249 0.576507,-1.33088 0.278402,-0.48324 0.563506,-0.93395 0.65554,-1.50181 0.07463,-0.17085 0.176596,-0.32906 0.248557,-0.50105 0.158244,-0.37821 0.239421,-0.78456 0.555339,-1.08058 0.243704,-0.50179 0.571268,-0.95179 0.764871,-1.47638 0.297178,-0.44393 0.447297,-0.98122 0.677214,-1.46164 0.146255,-0.24723 0.1927,-0.51077 0.329386,-0.762 0.24013,-0.44135 0.03565,-0.0125 0.314283,-0.38924 0.05298,-0.0716 0.08637,-0.15588 0.129549,-0.23383 0.321947,-0.4018 0.52003,-0.89483 0.890525,-1.26621 0.264423,-0.51317 0.727937,-0.83214 1.087397,-1.27345 0.410978,-0.3492 0.759266,-0.76663 1.170652,-1.11291 0.302113,-0.40318 0.687245,-0.73544 0.987561,-1.14157 0.157797,-0.26995 0.294243,-0.36337 0.518501,-0.56214 0.217605,-0.19287 0.140166,-0.20401 0.30118,-0.45306 0.05104,-0.0789 0.116891,-0.14728 0.175336,-0.22092 0.492426,-0.41916 0.885432,-0.95889 1.287409,-1.46205 0.46921,-0.52708 0.793279,-1.11639 1.20837,-1.67934 0.374174,-0.48252 0.779901,-0.94086 1.071899,-1.47852 0.339167,-0.48359 0.660474,-0.97026 0.944037,-1.48837 0.312689,-0.40604 0.505429,-0.90157 0.775683,-1.3372 0.153768,-0.56494 0.472381,-1.02112 0.690661,-1.55884 0.173347,-0.6828 0.466589,-1.23773 1.028403,-1.68328 0.41733,-0.53281 1.011167,-0.87066 1.560602,-1.25646 0.278389,-0.2494 0.624222,-0.40754 0.890928,-0.67208 0.06189,-0.0614 0.10069,-0.14341 0.16237,-0.205 0.0576,-0.0575 0.128599,-0.0999 0.192898,-0.1498 0.303867,-0.39514 0.698427,-0.7084 0.948355,-1.14922 0.06432,-0.16535 0.156202,-0.31984 0.211428,-0.48844 0.117083,-0.35744 0.14017,-0.7507 0.358535,-1.07427 0.128139,-0.59295 0.395205,-1.12121 0.563178,-1.70106 0.255738,-0.54773 0.507146,-1.09342 0.722522,-1.65911 0.217625,-0.52076 0.198526,-1.13503 0.597462,-1.58163 0.209864,-0.559692 0.534345,-1.074399 0.831283,-1.590742 0.241154,-0.588787 0.539651,-1.141391 0.838579,-1.697357 0.270868,-0.479743 0.526696,-0.944455 0.892894,-1.359747 0.937617,-1.916193 4.342282,-2.982298 5.382649,-3.813043 0.662485,0.718885 0.434011,0.6865 -0.07959,1.34711 -0.423237,0.415786 -0.693089,0.950532 -1.096508,1.386775 -0.472442,0.369503 -0.868849,0.832867 -1.324456,1.223398 -0.474782,0.460778 -1.07402,0.756631 -1.587104,1.173903 -0.789071,0.755926 0.276691,-0.243653 -0.576452,0.485562 -0.3139,0.268303 -0.558773,0.586271 -0.832911,0.889905 -0.08996,0.09964 -0.191511,0.188181 -0.287266,0.282272 -1.549498,1.512175 -0.505008,0.530969 -5.010714,3.078054 -0.381273,0.21554 -0.658852,-0.45516 -0.67298,-0.714422 0.0698,-0.312673 0.202463,-0.461245 0.359302,-0.729144 0.153515,-0.262221 0.239277,-0.55941 0.491161,-0.757986 0.289685,-0.494842 0.681287,-0.905342 1.08206,-1.307846 0.309554,-0.441369 0.678841,-0.941325 1.142502,-1.223194 0.459788,-0.451492 -0.109419,0.134458 0.322987,-0.407466 0.217422,-0.272491 0.608286,-0.338615 0.741569,-0.695274 0.425462,-0.368608 -0.04222,0.0041 0.427025,-0.275452 0.290615,-0.173156 0.488717,-0.487156 0.744763,-0.70225 0.446469,-0.299017 0.837776,-0.673969 1.295237,-0.959343 0.359987,-0.445858 0.809721,-0.79154 1.212104,-1.192917 0.457892,-0.316909 0.859335,-0.712955 1.311613,-1.03836 1.288651,-1.752699 3.922113,-2.683683 5.492293,-3.61952 1.431442,-0.853149 -2.876242,1.683683 -4.314363,2.525524 0.42449,-0.281106 0.789336,-0.639913 1.242491,-0.880298 0.33109,-0.401466 0.765626,-0.735738 1.196063,-1.021281 0.405259,-0.335495 0.903235,-0.550865 1.246286,-0.967952 0.06019,-0.02538 0.121254,-0.04879 0.180572,-0.07615 0.03857,-0.01779 0.08196,-0.08834 0.112833,-0.05918 0.665545,0.62866 0.271332,0.444437 -0.118947,0.463317 -0.709465,0.01845 -1.420277,0.04832 -2.121847,0.163643 -0.715967,0.11891 -1.427969,0.241064 -2.156959,0.239255 -0.717081,0.05973 -1.425348,0.172793 -2.136019,0.282899 -0.702572,0.03481 -1.407355,0.01355 -2.10877,0.07655 -0.628,0.06585 -1.239819,0.194255 -1.845746,0.372763 -0.701146,0.107729 -1.398425,0.246753 -2.103569,0.319997 -0.63631,0.04229 -1.267767,0.119208 -1.889765,0.264437 -0.685555,0.101462 -1.380004,0.04236 -2.070898,0.05601 -0.711358,-6.1e-4 -1.422802,-0.0029 -2.134067,0.01066 -0.664935,0.01802 -1.33244,0.04304 -1.98769,0.167474 -0.63639,0.12483 -1.266668,0.227287 -1.918881,0.213859 -0.599567,0.05172 -1.199841,0.12949 -1.726029,0.446127 -0.48923,0.268685 -1.00747,0.483895 -1.510418,0.725626 -0.543318,0.270692 -1.108831,0.502393 -1.671797,0.72867 -0.565904,0.147003 -1.107291,0.374772 -1.68956,0.455392 -0.67018,0.135385 -1.342439,0.145842 -2.025,0.109568 -0.639656,-0.02983 -1.331472,-0.03206 -1.822717,-0.500636 -0.40243,-0.616801 -0.224441,-1.051314 0.251599,-1.566849 0.285724,-0.497269 0.727679,-0.867121 1.066573,-1.326899 0.303518,-0.523195 0.65739,-1.001696 1.042373,-1.465807 0.409156,-0.428108 0.710007,-0.928108 1.152709,-1.322749 0.312215,-0.39606 0.712956,-0.720483 1.07144,-1.071442 0.312115,-0.395938 0.712724,-0.720286 1.07115,-1.071063 0.311578,-0.395324 0.711656,-0.71904 1.069619,-1.069099 0.315788,-0.400617 0.722166,-0.72664 1.081837,-1.085537 0.366948,-0.461398 0.830173,-0.843471 1.229388,-1.277606 0.41994,-0.515157 0.936481,-0.944829 1.387996,-1.432589 0.350957,-0.488597 0.779597,-0.910666 1.112799,-1.414891 0.417605,-0.342906 0.754559,-0.804723 1.040266,-1.259056 0.32861,-0.450656 0.462411,-1.04636 0.9262,-1.388737 0.300896,-0.410031 0.684013,-0.750348 0.946932,-1.192123 0.248991,-0.521498 0.694103,-0.878258 1.002223,-1.362162 0.400176,-0.416519 0.596623,-0.496406 0.908127,-1.018357 0.04456,-0.07466 0.103046,-0.140085 0.154569,-0.210128 0.381944,-0.32963 0.672321,-0.77905 0.921475,-1.212767 0.325677,-0.420271 0.743538,-0.760765 1.073715,-1.180323 0.394123,-0.593934 0.866969,-1.114021 1.364153,-1.621576 0.434789,-0.528017 0.916107,-1.002225 1.414115,-1.467921 0.491861,-0.415918 0.925083,-0.899768 1.436234,-1.294822 0.437902,-0.469532 0.915954,-0.906007 1.427874,-1.290869 0.420638,-0.414345 0.74703,-0.971807 1.30801,-1.214133 0.398347,-0.309171 0.71801,-0.716288 1.07192,-1.072001 0.400801,-0.308961 0.721428,-0.714818 1.090659,-1.058534 0.404472,-0.285608 0.752451,-0.65526 1.118452,-0.983676 0.242077,-0.481195 0.6655,-0.772011 1.007256,-1.174933 0.41076,-0.312229 0.738712,-0.720621 1.150641,-1.03403 0.428896,-0.241972 0.816293,-0.523612 1.174354,-0.853098 0.03301,-0.04532 0.308471,-0.304889 0.33467,-0.282223 0.04594,0.03974 0.306045,0.402999 0.275496,0.43884 -0.02839,0.03331 -0.0873,0.0066 -0.13095,0.0098 -0.596238,0.07593 -1.179377,0.247647 -1.782439,0.256005 -0.70357,0.0012 -1.4076,6.02e-4 -2.110464,0.03628 -0.636098,0.0417 -1.267581,0.117333 -1.889278,0.262998 -0.682428,0.102941 -1.374315,0.04552 -2.061692,0.09362 -0.713217,0.04342 -1.422401,0.122694 -2.124706,0.257481 -0.720395,0.09858 -1.445534,0.06515 -2.17113,0.06879 -0.708707,-0.0011 -1.417852,-6.05e-4 -2.125881,-0.0357 -0.651083,-0.04147 -1.298673,-0.114158 -1.935047,-0.263427 -0.664217,-0.10791 -1.338281,-0.05018 -2.008757,-0.06367 -0.710823,0.0024 -1.422602,0.0034 -2.131773,0.058 -0.695294,0.06639 -1.379883,0.187243 -2.053392,0.375311 -0.627189,0.106292 -1.251297,0.264038 -1.887928,0.286554 -0.708855,-0.0011 -1.41812,-6.08e-4 -2.12634,-0.0346 -0.652699,-0.04021 -1.302131,-0.11077 -1.941152,-0.254939 -0.663855,-0.103751 -1.336409,-0.03919 -2.00468,-0.101079 -0.652017,-0.06896 -1.304951,-0.174037 -1.753634,-0.701911 -0.333432,-0.507022 -0.519925,-1.074625 -0.363607,-1.681791 0.147933,-0.563979 0.35029,-1.107551 0.506254,-1.66852 0.254522,-0.45602 0.550215,-0.876752 0.844025,-1.303476 0.316997,-0.399028 0.514339,-0.885745 0.831612,-1.289213 0.173535,-0.481726 0.461818,-0.983477 0.748817,-1.40441 0.214116,-0.490027 0.616911,-0.848454 0.794103,-1.357354 0.258261,-0.450202 0.560697,-0.860783 0.869631,-1.272043 0.358123,-0.424694 0.437858,-0.97556 0.741272,-1.43347 0.391908,-0.43974 0.528276,-1.015772 0.861212,-1.495889 0.228977,-0.574419 0.615897,-0.891056 0.742602,-1.513001 0.258534,-0.45035 0.561483,-0.86108 0.869405,-1.273397 0.353641,-0.423267 0.429634,-0.967222 0.714065,-1.430866 0.355117,-0.415697 0.440333,-0.960472 0.768992,-1.392035 0.383094,-0.331342 0.674593,-0.787963 0.899157,-1.23744 0.319147,-0.48508 0.690911,-0.929833 0.943967,-1.460128 0.428465,-0.512256 0.756868,-1.113146 1.179991,-1.630469 0.347147,-0.421527 0.662716,-0.857324 0.938967,-1.324642 0.203761,-0.569065 0.5166,-1.099991 0.81205,-1.624717 0.249997,-0.578792 0.601077,-1.089118 1.053991,-1.52895 0.144426,-0.268051 0.302248,-0.399321 0.493039,-0.622035 0.183158,-0.213803 0.14494,-0.275321 0.26532,-0.534971 0.04399,-0.09489 0.101001,-0.183189 0.151502,-0.274784 0.357446,-0.461469 0.774106,-0.881161 0.978258,-1.444804 0.359005,-0.622989 0.716908,-1.238966 0.936734,-1.932358 0.299212,-1.095551 0.747,-2.138626 1.056137,-3.231356 0,0 4.776522,-2.303625 4.776522,-2.303625 z"
       inkscape:connector-curvature="0" />
    <path
       style="fill:#00ff00;fill-opacity:1;stroke:#00fb00;stroke-opacity:1"
       id="path3015"
       d="m 75.719282,58.439652 c -1.174431,0.239324 -2.360043,0.411572 -3.553586,0.517349 -0.821445,0.06539 -1.645798,0.07018 -2.469301,0.07185 -0.713972,-6.27e-4 -1.427941,-0.003 -2.141912,-0.0042 -0.725799,-0.01951 -1.302239,-0.03214 -2.007933,0.144311 -0.632868,0.149011 -1.284076,0.177711 -1.93123,0.199908 -0.707902,0.0174 -1.416099,0.01493 -2.124158,0.01432 -0.600571,0.177266 -1.215637,0.265089 -1.838142,0.313557 -0.675962,0.109842 -1.306401,-0.02602 -1.962849,-0.159006 -0.63729,-0.117198 -1.286392,-0.135825 -1.932447,-0.151111 -0.68672,0.06174 -1.330345,-0.07591 -1.995821,-0.210917 -0.637659,-0.116109 -1.287053,-0.132976 -1.933286,-0.147301 -0.707732,-0.01055 -1.415577,-0.008 -2.123364,-0.0072 -0.660734,0.03989 -1.182986,-0.134394 -1.28984,-0.83246 0.05362,-0.502257 0.327585,-0.936991 0.495828,-1.408132 0.217023,-0.489852 0.481943,-0.961 0.764734,-1.416089 0.379384,-0.505155 0.548898,-1.110338 0.815699,-1.671626 0.28826,-0.540325 0.588277,-1.075335 0.852113,-1.628201 0.273894,-0.485368 0.583641,-0.941647 0.84532,-1.434525 0.240479,-0.531756 0.615237,-0.981301 0.905346,-1.483352 0.263425,-0.461337 0.526735,-0.89179 0.875579,-1.292689 0.286583,-0.424768 0.647853,-0.789674 0.914653,-1.227305 0.301724,-0.4258 0.608259,-0.827859 0.81204,-1.310643 0.262236,-0.591845 0.644479,-1.114067 0.906283,-1.705394 0.198855,-0.575896 0.537617,-1.081876 0.809258,-1.622178 0.275177,-0.531069 0.540713,-1.069088 0.839089,-1.58758 0.278375,-0.446065 0.571029,-0.882265 0.835088,-1.337903 0.232055,-0.53209 0.584319,-0.986125 0.930169,-1.445451 0.288732,-0.508246 0.477435,-1.072764 0.676029,-1.622368 0.221112,-0.568697 0.478847,-1.127407 0.774188,-1.661652 0.23819,-0.501359 0.43552,-1.023586 0.635192,-1.542224 0.229341,-0.484927 0.427314,-0.98069 0.736758,-1.421763 0.281173,-0.494596 0.616618,-0.952165 0.98457,-1.386048 0.345075,-0.414072 0.704137,-0.820662 1.095033,-1.192366 0.415307,-0.45606 0.853767,-0.883282 1.229444,-1.373973 0.359293,-0.442196 0.742314,-0.847956 0.949775,-1.38457 0.09993,-0.639374 0.254066,-1.23098 0.540697,-1.812955 0.300007,-0.469215 0.624201,-0.921711 0.946849,-1.375688 0.306631,-0.413812 0.597171,-0.835873 0.859041,-1.280241 0.254258,-0.469504 0.489312,-0.947933 0.749149,-1.414648 1.584163,-2.36123 0.989922,-1.200992 5.584184,-3.79382 0.663485,-0.11024 1.338946,-0.104351 2.009454,-0.10625 0.647295,0.01062 1.270752,0.21773 1.914994,0.29596 0.567155,-0.127034 1.140378,-0.200033 1.719517,-0.241627 0.551421,0.01979 1.225363,-0.227181 1.674131,0.171065 0.05048,0.115589 0.122745,0.223943 0.151447,0.346765 0.05586,0.239054 -0.265291,0.536618 -0.439661,0.641174 -1.575214,0.944528 -3.169349,1.857137 -4.754023,2.785705 1.446795,-0.835205 2.890073,-1.676534 4.340387,-2.505616 0.160503,-0.09175 -0.306315,0.207645 -0.46626,0.300368 -1.604085,0.929912 -3.220739,1.838318 -4.815466,2.784188 -1.407144,0.834611 5.695944,-3.220852 4.252679,-2.450386 -1.646093,0.878742 -3.240963,1.850245 -4.861445,2.775367 -0.113507,0.04016 -0.231221,0.06998 -0.34052,0.120477 -0.774308,0.357755 0.202421,-0.01005 -0.575329,0.305289 -0.297999,0.120823 -0.587403,0.162478 -0.874523,0.310799 -0.591392,0.194402 -1.186518,0.390068 -1.794748,0.532014 -0.56262,0.325092 -1.191289,0.428198 -1.827557,0.490129 -0.597966,0.145702 -1.099481,0.470102 -1.626046,0.765105 8.098,-4.566163 4.504068,-3.111199 3.277368,-1.506243 -0.43794,0.524752 -0.782413,1.117556 -1.153134,1.689695 -0.320258,0.610219 -0.692475,1.192682 -0.996951,1.810942 -0.22483,0.573113 -0.443718,1.144809 -0.62015,1.73468 -0.244133,0.527637 -0.319828,1.105036 -0.488901,1.655671 -0.158597,0.560238 -0.397833,1.09321 -0.626995,1.627528 -0.210219,0.553269 -0.585422,1.013181 -0.87674,1.5214 -0.320536,0.494212 -0.627357,0.995681 -0.957525,1.483527 -0.34939,0.43386 -0.637937,0.913352 -0.936293,1.383295 -0.317667,0.485871 -0.603442,0.98989 -0.904095,1.486415 -0.308452,0.420036 -0.588055,0.865226 -0.819231,1.332605 -0.280982,0.510599 -0.594699,1.001285 -0.892838,1.501313 -0.274661,0.564829 -0.591686,1.106873 -0.868887,1.6701 -0.333596,0.472251 -0.431459,1.037094 -0.612462,1.572416 -0.157864,0.537555 -0.414679,1.031363 -0.551546,1.575233 -0.124834,0.55514 -0.331143,1.084259 -0.553194,1.606014 -0.214856,0.607056 -0.414688,1.215581 -0.534679,1.84888 -0.148962,0.594126 -0.276419,1.200036 -0.478306,1.779251 -0.153052,0.543436 -0.362874,1.068363 -0.524727,1.608697 -0.109296,0.545506 -0.435431,0.997146 -0.656664,1.495482 -0.129129,0.546055 -0.355106,1.044327 -0.617125,1.536077 -0.24785,0.472585 -0.494647,0.945601 -0.759494,1.409368 -0.146714,0.212242 -0.296692,0.416873 -0.467247,0.610314 0,0 -4.894574,2.090259 -4.894574,2.090259 l 0,0 c 0.154443,-0.210882 0.351055,-0.357316 0.476883,-0.588417 0.364369,-0.383478 0.48897,-0.894694 0.804818,-1.312063 0.200479,-0.50914 0.579631,-0.930848 0.63793,-1.494339 0.151126,-0.533901 0.457042,-0.950428 0.679937,-1.450849 0.120747,-0.573147 0.376528,-1.085278 0.500637,-1.655926 0.209452,-0.55817 0.338696,-1.127565 0.52893,-1.69464 0.09333,-0.667269 0.27279,-1.30125 0.480841,-1.938846 0.172271,-0.522653 0.437287,-1.001088 0.592084,-1.532063 0.100895,-0.620162 0.295717,-1.065456 0.519763,-1.635643 0.05996,-0.172798 0.145843,-0.33665 0.195761,-0.512613 0.110707,-0.390248 0.125052,-0.811077 0.374189,-1.154969 0.350093,-0.510315 0.567166,-1.110158 0.881958,-1.64396 0.236944,-0.543691 0.620439,-0.993977 0.873945,-1.531 0.309334,-0.430884 0.477624,-0.955756 0.79721,-1.385146 0.397343,-0.422794 0.557339,-0.988908 0.936462,-1.426656 0.260693,-0.513419 0.606575,-0.970138 0.898229,-1.462657 0.408825,-0.416292 0.668017,-0.946668 0.974294,-1.439311 0.350863,-0.441095 0.589411,-0.969255 0.928317,-1.42332 0.204502,-0.535004 0.464065,-1.048983 0.63941,-1.589247 0.187075,-0.561141 0.270266,-1.126292 0.477701,-1.680236 0.132376,-0.281197 0.171249,-0.565512 0.273879,-0.857738 0.03388,-0.09646 0.07624,-0.189725 0.11436,-0.284588 0.04406,-0.09079 0.09724,-0.177696 0.132176,-0.272371 0.04147,-0.112372 0.06408,-0.23083 0.09613,-0.346245 0.253368,-0.667317 0.669961,-1.238941 0.971802,-1.88157 0.346475,-0.599705 0.738359,-1.172614 1.112,-1.755228 0.459191,-0.507845 -0.0599,0.09328 0.366834,-0.494386 1.264108,-1.740854 4.643965,-1.373868 5.383148,-3.419051 0.540044,-0.30329 1.128197,-0.525652 1.745016,-0.606495 0.619649,-0.113387 1.191782,-0.34265 1.786707,-0.540776 0.591856,-0.178284 1.191174,-0.338971 1.757035,-0.591321 0.611315,-0.196201 1.177285,-0.491606 1.755892,-0.766796 -11.026986,6.382881 0.262211,-0.154051 0.603103,-0.341319 1.444303,-0.793424 -2.846199,1.661754 -4.274716,2.483259 -0.157827,0.09076 0.309334,-0.192185 0.466535,-0.284029 1.585949,-0.926589 3.168608,-1.858798 4.752913,-2.788196 -1.443168,0.847833 -2.886335,1.695667 -4.329503,2.543501 0.06077,-0.03692 0.12835,-0.06446 0.182314,-0.110772 0.05134,-0.04405 0.07282,-0.119102 0.129171,-0.156519 0.07096,-0.04711 0.18649,-0.08867 0.253034,-0.03551 0.07568,0.06046 0.119067,0.152837 0.178601,0.229255 -0.249184,0.152366 -1.137175,-0.03387 -1.453956,0.09558 -0.594911,0.0668 -1.192934,0.21784 -1.792556,0.141252 -0.618619,-0.101355 -1.229854,-0.280263 -1.863039,-0.231601 -0.638086,0.0154 -1.30125,0.01229 -1.895704,0.274325 1.438337,-0.836566 2.884283,-1.660185 4.315011,-2.509698 0.07241,-0.043 -0.161764,0.04985 -0.236751,0.08818 -0.337005,0.172246 -0.407586,0.511021 -0.60282,0.803993 -0.3627,0.388682 -0.479942,0.903912 -0.788994,1.329014 -0.171465,0.447383 -0.50269,0.996363 -0.83068,1.34316 -0.284323,0.483798 -0.622063,0.921846 -0.955123,1.369232 -0.392841,0.497555 -0.5637,1.053344 -0.599417,1.683134 -0.142476,0.640244 -0.425376,1.104203 -0.863449,1.58412 -0.483331,0.52678 0.05654,-0.08776 -0.397116,0.518312 -0.188015,0.251185 -0.413508,0.435389 -0.632758,0.650905 -0.06836,0.06719 -0.122138,0.147756 -0.183206,0.221634 -0.332707,0.419456 -0.757995,0.758685 -1.114725,1.158109 -0.327616,0.451939 -0.769125,0.832244 -0.995694,1.348153 -0.283447,0.441896 -0.617362,0.83711 -0.767647,1.355935 -0.293858,0.474982 -0.420585,1.045893 -0.628728,1.561248 -0.276175,0.532028 -0.587002,1.048596 -0.803274,1.608361 -0.243831,0.558946 -0.419635,1.143165 -0.632522,1.713316 -0.270699,0.499096 -0.698875,0.870796 -0.95416,1.382335 -0.182799,0.476171 -0.498746,0.977971 -0.822971,1.368627 -0.278301,0.529491 -0.591976,1.037826 -0.846993,1.578118 -0.284031,0.525469 -0.558636,1.043148 -0.840746,1.568928 -0.208907,0.636254 -0.564697,1.162931 -0.873694,1.748223 -0.146369,0.247348 -0.192977,0.511327 -0.330267,0.76243 -0.236577,0.432699 -0.04029,0.02049 -0.31633,0.388653 -0.05348,0.07132 -0.08759,0.155287 -0.131388,0.232931 -0.323785,0.392978 -0.526827,0.876713 -0.916551,1.223167 -0.147771,0.263841 -0.290096,0.367199 -0.492435,0.573402 -0.181197,0.184657 -0.140835,0.239082 -0.252195,0.474666 -0.03914,0.08279 -0.09015,0.159428 -0.135219,0.239142 -0.350436,0.441704 -0.586123,0.970877 -0.943062,1.413336 -0.224814,0.525037 -0.504718,1.003848 -0.825689,1.467717 -0.342898,0.504949 -0.543149,1.103941 -0.857279,1.62904 -0.356155,0.527071 -0.422273,1.16146 -0.806028,1.674797 -0.253006,0.463068 -0.550015,0.89726 -0.788957,1.364415 -0.137589,0.246573 -0.17484,0.4965 -0.285846,0.753728 -0.291432,0.67532 0.06794,-0.177322 -0.220751,0.329378 -0.02778,0.04876 -0.03257,0.107406 -0.04885,0.161109 -0.03117,0.02034 -0.146765,0.02202 -0.109545,0.02165 0.294869,-0.0029 0.612012,0.150901 0.915543,0.06848 0.711623,-4.9e-5 1.423443,-0.0018 2.134804,0.02034 0.667129,0.02794 1.335265,0.07246 1.989281,0.216088 0.64296,0.12847 1.285008,0.145599 1.940316,0.142862 0.666308,0.02911 1.333163,0.07597 1.986812,0.216877 0.622197,0.118312 1.238782,0.123308 1.86803,0.03309 0.62432,-0.08048 1.236315,-0.25045 1.866772,-0.267263 0.703556,-0.0012 1.407584,-7.35e-4 2.11041,-0.03699 0.636153,-0.0423 1.267464,-0.119188 1.889246,-0.264698 0.683423,-0.10144 1.375784,-0.04285 2.064568,-0.05601 0.712857,0.0015 1.425718,0.0045 2.138575,0.0022 0.808914,-0.0062 1.618582,-0.02085 2.424413,-0.09836 1.186417,-0.121984 2.366966,-0.301749 3.527768,-0.579618 0,0 -4.22104,3.210088 -4.22104,3.210088 z"
       inkscape:connector-curvature="0" />
    <path
       style="fill:#00ff00;fill-opacity:1;stroke:#00fb00;stroke-opacity:1"
       id="path3017"
       d="m 68.502437,19.977128 c 0.103627,-0.170181 0.207254,-0.340362 0.310881,-0.510544 0,0 4.818845,-2.147331 4.818845,-2.147331 l 0,0 c -0.09294,0.172809 -0.185883,0.345618 -0.278824,0.518427 0,0 -4.850902,2.139448 -4.850902,2.139448 z"
       inkscape:connector-curvature="0" />
    <path
       style="fill:#00ff00;fill-opacity:1;stroke:#00fb00;stroke-opacity:1"
       id="path3019"
       d="m 78.962311,57.471067 c -0.689229,0.978691 -1.407094,1.932759 -2.168347,2.856047 -0.485773,0.485773 -0.816635,1.100514 -1.301731,1.583003 -0.350921,0.368504 -0.772714,0.656437 -1.072502,1.070734 -0.294421,0.417289 -0.632224,0.797842 -0.958862,1.189205 -0.374922,0.343357 -0.611781,0.799002 -0.931018,1.189642 -0.313026,0.400357 -0.652924,0.784633 -1.021927,1.134766 -0.369911,0.344497 -0.675184,0.734552 -0.946167,1.160412 -0.222984,0.477932 -0.558788,0.886039 -0.813502,1.344809 -0.255518,0.454926 -0.597229,0.844076 -0.927562,1.24356 -0.381655,0.344171 -0.685054,0.746478 -1.00036,1.147423 -0.396706,0.336259 -0.673408,0.780096 -1.023218,1.160145 -0.37913,0.415959 -0.783818,0.810749 -1.149319,1.238756 -0.297512,0.430173 -0.593022,0.864244 -0.94727,1.250167 -0.333495,0.380316 -0.677542,0.755867 -1.048666,1.100368 -0.322154,0.393691 -0.618306,0.810299 -0.925698,1.217044 -0.358709,0.362894 -0.592235,0.820773 -0.911059,1.216005 -0.37859,0.431918 -0.707004,0.904737 -1.06958,1.34968 -0.370582,0.470151 -0.789901,0.899266 -1.169821,1.360803 -0.294958,0.4343 -0.59132,0.870369 -0.946968,1.257683 -0.412886,0.49028 -0.804887,0.997141 -1.199622,1.501937 -0.448591,0.533315 -0.898807,1.066121 -1.332932,1.611508 -0.364562,0.477205 -0.789179,0.903207 -1.174222,1.362203 -0.269056,0.438252 -0.62979,0.812018 -0.869513,1.267037 -0.200965,0.425973 0.253118,0.446795 0.56643,0.374884 0.495077,-0.114919 1.021447,-0.275282 1.444355,-0.565668 0.145283,-0.126701 0.344369,-0.128962 0.507852,-0.212242 0.15735,-0.08016 0.605902,-0.363024 0.453066,-0.274564 -1.431411,0.828488 -5.740786,3.2876 -4.301597,2.472698 1.613105,-0.913376 3.215569,-1.845418 4.823353,-2.768128 -8.06588,4.425399 -4.652142,2.986944 -3.186455,1.633359 0.379907,-0.337876 0.75334,-0.687428 1.099276,-1.060668 0.389107,-0.326408 0.805248,-0.623438 1.214711,-0.925754 0.461467,-0.342509 0.820497,-0.752774 1.166611,-1.205723 0.351205,-0.412094 0.580701,-0.913387 0.959468,-1.299935 0.351469,-0.375 0.581151,-0.854846 0.788874,-1.321486 0.249195,-0.470655 0.445028,-0.963529 0.752151,-1.401312 0.292381,-0.431289 0.520148,-0.900031 0.783282,-1.348237 0.343554,-0.613122 0.779425,-1.171463 1.216084,-1.720611 0.37372,-0.53686 0.84411,-0.991523 1.290262,-1.465565 0.399318,-0.338208 0.719563,-0.73459 1.034795,-1.147 0.334447,-0.509624 0.669222,-1.018486 1.001304,-1.52978 0.306296,-0.499805 0.647387,-0.980761 1.044742,-1.412308 0.107746,-0.100306 0.574214,-0.957973 0.724115,-0.733392 0.897818,1.959748 0.02255,0.42306 4.604586,-2.009998 0.09057,-0.04809 -0.1496,0.140344 -0.222435,0.212536 -0.272252,0.269846 -0.532432,0.550613 -0.788466,0.835708 -0.430263,0.494843 -0.842159,1.007093 -1.298552,1.478332 -0.35353,0.376669 -0.703051,0.760231 -1.082451,1.111327 -0.355621,0.355898 -0.698151,0.726661 -1.068606,1.067525 -0.356942,0.356447 -0.699963,0.728479 -1.071083,1.070546 -0.356979,0.356826 -0.700149,0.729131 -1.071451,1.071434 -0.421724,0.416068 -0.826312,0.84583 -1.160497,1.336995 -0.302999,0.557768 -0.76687,0.996606 -1.148062,1.498725 -0.365564,0.497692 -0.800705,0.938582 -1.156273,1.442911 -0.348198,0.514019 -0.666732,1.027686 -1.079844,1.495532 -0.432022,0.510991 -0.883397,1.004743 -1.325572,1.506643 -0.377469,0.371456 -0.704225,0.794925 -1.146036,1.092679 -0.380928,0.149631 -0.521758,0.729017 -0.900148,0.848271 -0.03213,-0.0741 -0.09226,-0.185088 -0.06816,-0.269931 0.03641,-0.128177 0.254803,-0.273583 0.359072,-0.333673 -1.458407,0.841028 -2.916814,1.682056 -4.375222,2.523084 0.425211,-0.329687 0.841477,-0.674601 1.219338,-1.058848 0.514644,-0.448604 0.994583,-0.932601 1.453832,-1.437246 0.485158,-0.480604 0.902645,-1.021482 1.283435,-1.586696 0.385062,-0.559779 0.735482,-1.143231 1.120726,-1.70266 0.311375,-0.454448 0.661521,-0.885843 1.053118,-1.273604 0.398045,-0.416367 0.769719,-0.845158 1.127297,-1.295821 0.367055,-0.445783 0.690158,-0.92411 1.034122,-1.387386 0.279453,-0.478747 0.58147,-0.938774 0.905307,-1.388343 0.351724,-0.367207 0.655414,-0.763612 0.958139,-1.169859 0.251808,-0.460457 0.529538,-0.899774 0.831498,-1.328857 0.413959,-0.407314 0.676101,-0.915619 0.964387,-1.410194 0.261767,-0.489854 0.480385,-1.00225 0.745245,-1.49009 0.333185,-0.59169 0.655556,-1.189096 0.970478,-1.79073 0.360696,-0.68015 0.700237,-1.369165 1.007856,-2.074696 0.291107,-0.584331 0.508972,-1.200521 0.816681,-1.77668 0.253845,-0.559779 0.57607,-1.082967 0.8744,-1.619261 0.392228,-0.640928 0.669,-1.338468 0.993969,-2.012759 0.346634,-0.621512 0.55307,-1.303317 0.851411,-1.947057 0.270522,-0.458395 0.572313,-0.897955 0.876644,-1.334639 0.280934,-0.426823 0.609107,-0.826342 0.972627,-1.185634 0.191343,-0.176509 0.28813,-0.396789 0.383528,-0.632122 0,0 4.806926,-2.274262 4.806926,-2.274262 l 0,0 c -0.064,0.291431 -0.124691,0.581781 -0.285952,0.838984 -0.306263,0.395304 -0.699581,0.712353 -1.006848,1.108434 -0.266907,0.463276 -0.584555,0.883614 -0.889336,1.318247 -0.424335,0.580319 -0.529548,1.306009 -0.874172,1.93101 -0.371763,0.655539 -0.596709,1.377342 -0.977836,2.029452 -0.311501,0.521838 -0.621212,1.053415 -0.878224,1.600287 -0.303484,0.577713 -0.595843,1.151871 -0.828159,1.765001 -0.373243,0.670139 -0.597942,1.422403 -1.010687,2.076464 -0.2863,0.61358 -0.612873,1.210377 -0.952416,1.794839 -0.250114,0.500843 -0.527966,0.985365 -0.74424,1.501553 -0.27012,0.526082 -0.536651,1.054966 -0.911794,1.516565 -0.378646,0.335462 -0.662083,0.799467 -0.861776,1.260022 -0.264063,0.453148 -0.571098,0.86141 -0.927328,1.241639 -0.403278,0.358484 -0.697294,0.850139 -0.936585,1.328908 -0.309234,0.483773 -0.641959,0.968622 -1.029434,1.392347 -0.313845,0.497363 -0.682471,0.940078 -1.101259,1.348891 -0.33458,0.426302 -0.763293,0.769682 -1.091136,1.205603 -0.359044,0.574984 -0.741025,1.138628 -1.134768,1.691674 -0.344032,0.614018 -0.7691,1.165465 -1.225886,1.699706 -0.50973,0.455732 -0.901617,1.028126 -1.445495,1.45128 -0.410507,0.351208 -0.756484,0.777412 -1.193416,1.094461 -1.573972,0.932795 -3.145284,1.870093 -4.721915,2.798386 -0.169988,0.100087 -0.409189,0.159103 -0.594871,0.04343 -0.203809,-0.126959 -0.25501,-0.285861 -0.366403,-0.487325 -0.0106,-0.504438 0.551066,-0.751311 0.780252,-1.168034 0.444774,-0.385237 -0.06127,0.02135 0.4271,-0.277196 0.298255,-0.18233 0.501549,-0.516482 0.748413,-0.755444 0.506142,-0.433198 0.912754,-0.983722 1.345403,-1.487699 0.429001,-0.447271 0.837096,-0.877964 1.086902,-1.451919 0.43468,-0.501799 -0.05966,0.09616 0.350605,-0.497435 0.238555,-0.345158 0.615318,-0.574632 0.799609,-0.965254 0.458821,-0.486346 -0.03989,0.06894 0.386098,-0.496647 0.183547,-0.243701 0.418283,-0.431191 0.617893,-0.655226 0.07129,-0.08002 0.124147,-0.174725 0.186221,-0.262087 0.265896,-0.541125 0.640242,-1.05188 1.102458,-1.439527 0.312215,-0.396062 0.712954,-0.720491 1.071439,-1.071451 0.31203,-0.395838 0.712529,-0.720137 1.070942,-1.070719 0.311186,-0.394773 0.710925,-0.717919 1.068788,-1.067075 0.319697,-0.404886 0.731955,-0.731942 1.091544,-1.09999 0.406831,-0.515825 0.907211,-0.955909 1.320006,-1.470163 1.232298,-1.639313 4.998836,-5.48258 6.080552,-3.49264 0.134119,0.496713 -0.516749,0.572712 -0.623125,1.030966 -0.34758,0.456861 -0.780697,0.842647 -1.087108,1.335771 -0.290355,0.543169 -0.671929,1.023155 -0.980464,1.553273 -0.275018,0.470214 -0.596265,0.888649 -0.989537,1.263625 -0.497418,0.39867 -0.917239,0.903835 -1.334343,1.382747 -0.401106,0.556527 -0.864809,1.065896 -1.23625,1.645515 -0.243731,0.472268 -0.519525,0.920897 -0.763978,1.389975 -0.282648,0.443044 -0.615602,0.840649 -0.77276,1.356709 -0.297394,0.44853 -0.440602,0.990767 -0.733949,1.445691 -0.660323,0.73778 0.307572,-0.314187 -0.372088,0.332332 -0.267467,0.254426 -0.2974,0.681553 -0.624117,0.893154 -0.299271,0.494238 -0.61727,0.99885 -1.115047,1.3149 -0.333336,0.379509 -0.775339,0.685873 -1.214348,0.926745 -0.403738,0.31522 -0.723698,0.730953 -1.090953,1.08585 -0.678052,0.509402 0.272139,-0.226002 -0.397398,0.368193 -1.553643,1.378813 -4.525476,1.900465 -5.490917,3.321596 9.281992,-5.373161 1.620854,-0.789731 -1.494529,0.776493 -0.527377,0.18762 -1.040123,0.412822 -1.616261,0.344851 -0.623292,-0.163038 -1.144804,-0.530431 -1.069562,-1.246265 0.160705,-0.535135 0.469252,-0.943478 0.825533,-1.364555 0.289668,-0.556667 0.804108,-0.917753 1.158847,-1.431089 0.473931,-0.506672 0.882352,-1.078554 1.321373,-1.617098 0.457373,-0.444691 0.780262,-0.999839 1.201683,-1.478297 0.306748,-0.41657 0.696499,-0.763415 0.973173,-1.206309 0.290546,-0.553369 0.792729,-0.921905 1.144552,-1.433579 0.396691,-0.412788 0.663308,-0.912253 1.080083,-1.302088 0.288452,-0.430335 0.642979,-0.809201 0.886984,-1.27162 0.382714,-0.331278 0.673384,-0.781587 0.926597,-1.214843 0.311649,-0.39438 0.711729,-0.713821 1.060517,-1.072976 0.305667,-0.415584 0.693648,-0.762021 0.971057,-1.202326 0.27653,-0.527656 0.752435,-0.86855 1.108219,-1.337902 0.39243,-0.355202 0.692779,-0.758554 1.012523,-1.175271 0.267668,-0.17266 0.325341,-0.305107 0.491658,-0.567625 0.211451,-0.333758 0.09463,-0.09248 0.355539,-0.356336 0.06128,-0.06197 0.10668,-0.137834 0.160021,-0.206751 0.386389,-0.31038 0.70487,-0.730496 0.970852,-1.14374 0.31682,-0.400623 0.51144,-0.889852 0.840596,-1.286807 0.170473,-0.433046 0.520679,-1.005289 0.886472,-1.292705 0.310354,-0.394897 0.708318,-0.713086 1.042936,-1.086305 0.28895,-0.430046 0.644412,-0.808766 0.899001,-1.264224 0.386279,-0.311962 0.6987,-0.731587 0.981906,-1.134235 0.383099,-0.42657 -0.05327,0.089 0.294278,-0.429033 0.187832,-0.279972 0.514076,-0.469004 0.76272,-0.686548 0.856558,-0.927346 -0.493637,0.509966 0.412595,-0.37282 0.358414,-0.349142 0.50249,-0.887571 0.935287,-1.1785 0.73528,-0.934978 1.554258,-1.808023 2.167025,-2.835732 0,0 4.865839,-2.096871 4.865839,-2.096871 z"
       inkscape:connector-curvature="0" />
    <path
       style="fill:#00ff00;fill-opacity:1;stroke:#00fb00;stroke-opacity:1"
       id="path3021"
       d="m 52.220828,89.674784 c 1.086554,0.373957 2.14153,0.814739 3.26589,1.067777 0.764253,0.153785 1.54498,0.165839 2.321405,0.171591 0.711663,1.51e-4 1.423313,-0.0052 2.13497,-0.0078 0.654144,0.07021 1.262445,-0.157929 1.899842,-0.25721 0.672146,-0.0867 1.350922,-0.09469 2.027573,-0.102776 0.713039,-0.0051 1.426105,-0.0027 2.139154,-0.0018 0.714829,0.001 1.429659,0.0014 2.144489,0.0016 0.71434,1.46e-4 1.42868,1.3e-4 2.143019,1.27e-4 0.714281,-7e-6 1.428562,-1.3e-5 2.142842,-1.6e-5 0.714285,-3e-6 1.428569,-3e-6 2.142854,-3e-6 0.714286,0 1.428571,0 2.142857,0 0.655048,0.07244 1.264594,-0.155067 1.902935,-0.254268 0.649106,-0.12602 1.328513,-0.0042 1.964843,-0.177024 0.609012,-0.18226 1.24348,-0.22874 1.874703,-0.261191 0.581359,-0.214202 1.191183,-0.293039 1.804811,-0.340799 0.225374,-0.06924 0.522421,0.03903 0.745088,-0.05328 0.01446,-0.006 0.02043,-0.05462 0.0071,-0.04643 -4.744673,2.912194 -3.003247,3.70432 -4.884477,2.747431 -0.467398,-0.393612 -1.01378,-0.526338 -1.604499,-0.595991 -0.679597,-0.05624 -1.362407,-0.04953 -2.043746,-0.04872 -0.623798,0.110782 -1.199797,0.360589 -1.809001,0.520983 -0.45228,0.14683 -0.939495,0.09547 -1.399846,0.175217 -0.200173,0.03468 -0.389478,0.115811 -0.585236,0.170133 -0.09953,0.02168 -0.202905,0.03011 -0.298601,0.06503 -0.171068,0.06242 -0.319708,0.177346 -0.490478,0.240578 -0.282202,0.104491 -0.573572,0.147961 -0.869588,0.190909 -0.440006,0.09081 -0.900979,0.01277 -1.341819,0.0724 -0.196589,0.02659 -0.383256,0.102653 -0.575401,0.151996 -0.09865,0.02024 -0.197298,0.04048 -0.295946,0.06072 0,0 4.235121,-3.21251 4.235121,-3.21251 l 0,0 c 0.09817,-0.02094 0.196346,-0.04188 0.294519,-0.06283 0.636102,-0.110483 1.289021,-0.07044 1.920546,-0.219518 0.558119,-0.147655 1.073669,-0.413451 1.645555,-0.513293 0.652416,-0.139012 1.330728,-0.142021 1.967465,-0.360917 0.616886,-0.197524 1.242145,-0.4032 1.897975,-0.397895 0.700195,0.0045 1.404672,0.0037 2.097816,0.115787 0.62509,0.131575 1.189898,0.365615 1.70751,0.746884 1.776463,1.068417 0.42608,0.134592 -3.822039,3.403211 -0.01521,0.0117 -0.02808,-0.03021 -0.04703,-0.03319 -0.04556,-0.0071 -0.09223,0.0018 -0.13829,0.0041 -0.2721,0.01366 -0.280982,0.01842 -0.577253,0.04718 -0.611198,0.08316 -1.202063,0.258733 -1.814412,0.325692 -0.624128,0.05882 -1.235543,0.175374 -1.849215,0.300605 -0.65509,0.04239 -1.314817,0.0532 -1.960875,0.182974 -0.647704,0.127394 -1.288187,0.228014 -1.952523,0.175987 -0.714286,0 -1.428572,0 -2.142857,0 -0.714285,10e-7 -1.428569,10e-7 -2.142853,6e-6 -0.714281,4e-6 -1.428563,1.4e-5 -2.142845,1e-5 -0.714373,-1.2e-5 -1.428747,-1.9e-5 -2.14312,-2.97e-4 -0.714895,-3.42e-4 -1.42979,-9.68e-4 -2.144684,-0.0019 -0.711116,-5.71e-4 -1.422327,-0.0028 -2.133339,0.01147 -0.663619,0.01886 -1.329748,0.04546 -1.983288,0.172164 -0.646284,0.127856 -1.285426,0.229794 -1.948568,0.180423 -0.713732,0.003 -1.42757,0.0099 -2.141248,-0.0025 -0.799007,-0.02373 -1.600057,-0.0755 -2.376926,-0.279105 -1.120039,-0.306962 -2.183205,-0.771905 -3.297838,-1.095299 0,0 4.386974,-2.976518 4.386974,-2.976518 z"
       inkscape:connector-curvature="0" />
    <path
       style="fill:#00ff00;fill-opacity:1;stroke:#00fb00;stroke-opacity:1"
       id="path3023"
       d="m 79.031327,93.497632 c -0.493207,0.966955 -0.958208,1.948313 -1.459055,2.911294 -0.282607,0.611587 -0.515119,1.241639 -0.814298,1.846358 -0.245018,0.541767 -0.469631,1.095277 -0.745321,1.622378 -0.297124,0.529578 -0.560426,1.076588 -0.820175,1.625208 -0.177675,0.57948 -0.456936,1.11628 -0.697905,1.66973 -0.194097,0.55138 -0.540588,1.02258 -0.815199,1.53235 -0.28567,0.44342 -0.492002,0.92826 -0.803413,1.35563 -0.297278,0.41368 -0.639661,0.79945 -1.009415,1.15014 -0.354364,0.3595 -0.699547,0.73042 -1.071716,1.07198 -0.358481,0.36727 -0.586885,0.82754 -0.849171,1.26177 -0.307248,0.47768 -0.623896,0.9545 -0.958298,1.41462 -0.308576,0.50597 -0.621362,1.00993 -0.92174,1.52124 -0.31703,0.46936 -0.665053,0.89803 -0.895902,1.41787 -0.238046,0.51138 -0.4717,1.02051 -0.744781,1.51492 -0.296353,0.50177 -0.583105,1.0088 -0.884523,1.5079 -0.312951,0.46697 -0.629889,0.92458 -0.966383,1.37574 -0.462153,0.50025 -0.941014,0.98456 -1.396193,1.49166 -0.368748,0.40444 -0.765736,0.78184 -1.135619,1.18475 -0.422623,0.37915 -0.747563,0.85068 -1.08353,1.30478 -0.347166,0.47135 -0.789366,0.86615 -1.10789,1.35698 -0.207589,0.53194 -0.43576,1.04508 -0.728048,1.53591 -0.322245,0.40124 -0.556186,0.86057 -0.877478,1.26251 -0.367502,0.42298 -0.695731,0.87619 -1.037583,1.32012 -0.318146,0.49804 -0.62917,1.00163 -0.928706,1.51157 -0.331609,0.46614 -0.640531,0.94773 -0.975965,1.4105 -0.341704,0.46826 -0.730698,0.89635 -1.108163,1.33483 -0.389361,0.34932 -0.698676,0.75849 -1.019365,1.16659 -0.06064,0.0565 -0.121273,0.11303 -0.18191,0.16954 0,0 -4.916591,2.03847 -4.916591,2.03847 l 0,0 c 0.05801,-0.063 0.116031,-0.12589 0.174046,-0.18884 0.268192,-0.17382 0.326613,-0.30882 0.494335,-0.57178 0.209964,-0.3292 0.103744,-0.10274 0.364053,-0.36652 0.06399,-0.0649 0.112638,-0.14323 0.168957,-0.21485 0.436972,-0.36215 0.789924,-0.83486 1.13347,-1.28249 0.386313,-0.42066 0.642051,-0.92461 0.99555,-1.36972 0.365475,-0.46091 0.623435,-1.01738 0.92353,-1.51971 0.30293,-0.46499 0.630521,-0.94017 1.02908,-1.32616 0.288608,-0.42846 0.64414,-0.80383 0.872508,-1.27478 0.39324,-0.38566 0.628059,-0.9222 0.773534,-1.44753 0.239352,-0.59689 0.67301,-0.97232 1.053999,-1.47428 0.412936,-0.40419 0.67705,-0.9223 1.058033,-1.35654 0.42879,-0.33613 0.772147,-0.77982 1.150334,-1.16999 0.504573,-0.45048 0.890072,-1.01538 1.408778,-1.45478 0.396194,-0.39288 0.704893,-0.85788 0.97712,-1.34053 0.39722,-0.42115 0.558173,-0.98327 0.926374,-1.42724 0.242257,-0.51058 0.565,-0.97404 0.739505,-1.51465 0.153135,-0.25476 0.210655,-0.53032 0.360059,-0.78655 0.249508,-0.42792 0.06502,-0.051 0.355376,-0.43113 0.06178,-0.0809 0.105534,-0.17404 0.158301,-0.26107 0.365527,-0.46006 0.625143,-1.01593 0.920875,-1.51987 0.299461,-0.47119 0.62108,-0.93724 0.97303,-1.37003 0.244796,-0.47499 0.518283,-0.92464 0.797847,-1.37696 0.312596,-0.39531 0.714018,-0.71847 1.073394,-1.06796 0.310273,-0.39314 0.708665,-0.70746 1.038467,-1.08363 0.285499,-0.44183 0.626259,-0.83751 0.810855,-1.34193 0.340044,-0.43988 0.560961,-0.97086 0.867212,-1.43654 0.196308,-0.57778 0.537769,-1.08912 0.689414,-1.67985 0.207768,-0.57787 0.512358,-1.1223 0.799858,-1.66215 0.263225,-0.53202 0.550871,-1.05268 0.757727,-1.6102 0.279244,-0.623222 0.613322,-1.217371 0.81984,-1.871912 0.499127,-0.959545 1.014447,-1.913004 1.455886,-2.900569 0,0 4.832989,-2.186597 4.832989,-2.186597 z"
       inkscape:connector-curvature="0" />
    <path
       style="fill:#00ff00;fill-opacity:1;stroke:#00fb00;stroke-opacity:1"
       id="path3025"
       d="m 79.088534,92.41041 c -0.280329,1.057924 -0.741613,2.054297 -1.326938,2.975588 -0.386164,0.736305 -0.977226,1.293016 -1.65332,1.759873 -1.715145,1.028366 -2.883407,1.731627 -5.107996,2.932949 -0.386478,0.20871 -0.650524,-0.531983 -0.70116,-0.752861 0.186934,-0.478579 0.449724,-0.939256 0.725022,-1.37487 0.323464,-0.542046 0.690755,-1.05602 0.996415,-1.608284 0.349137,-0.499199 0.597106,-1.053053 0.880014,-1.588962 0.19778,-0.377577 0.400138,-0.752245 0.62892,-1.1119 0,0 4.861486,-2.148439 4.861486,-2.148439 l 0,0 c -0.214411,0.360841 -0.457075,0.695367 -0.645742,1.072038 -0.27081,0.554519 -0.535326,1.107578 -0.857908,1.635511 -0.370234,0.505067 -0.620809,1.096003 -1.00212,1.598238 -0.245157,0.421355 -0.502386,0.845732 -0.751299,1.255098 -0.06304,-0.04292 -0.189003,-0.0689 -0.17756,-0.1443 0.0078,-0.05153 0.20275,-0.157359 0.196775,-0.153901 -4.304297,2.491213 -5.680094,3.426912 -3.994859,2.292657 0.697873,-0.338336 1.38247,-0.843673 1.754412,-1.534887 0.582465,-0.873987 1.125601,-1.772115 1.399336,-2.799923 0,0 4.776522,-2.303625 4.776522,-2.303625 z"
       inkscape:connector-curvature="0" />
  </g>
</svg>
