<?xml version="1.0" encoding="UTF-8" standalone="no"?>
<!-- Created with Inkscape (http://www.inkscape.org/) -->

<svg
   xmlns:dc="http://purl.org/dc/elements/1.1/"
   xmlns:cc="http://creativecommons.org/ns#"
   xmlns:rdf="http://www.w3.org/1999/02/22-rdf-syntax-ns#"
   xmlns:svg="http://www.w3.org/2000/svg"
   xmlns="http://www.w3.org/2000/svg"
   xmlns:sodipodi="http://sodipodi.sourceforge.net/DTD/sodipodi-0.dtd"
   xmlns:inkscape="http://www.inkscape.org/namespaces/inkscape"
   width="744.09448819"
   height="1052.3622047"
   id="svg2"
   version="1.1"
   inkscape:version="0.48.4 r9939"
   sodipodi:docname="icon-blink.svg"
   inkscape:export-filename="/home/renmai/git/eduras/Eduras/src/de/illonis/eduras/images/gui/icons/icon-blink.png"
   inkscape:export-xdpi="13.625074"
   inkscape:export-ydpi="13.625074">
  <defs
     id="defs4" />
  <sodipodi:namedview
     id="base"
     pagecolor="#ffffff"
     bordercolor="#666666"
     borderopacity="1.0"
     inkscape:pageopacity="0.0"
     inkscape:pageshadow="2"
     inkscape:zoom="0.35"
     inkscape:cx="380.71429"
     inkscape:cy="514.28571"
     inkscape:document-units="px"
     inkscape:current-layer="layer1"
     showgrid="false"
     inkscape:window-width="1920"
     inkscape:window-height="1023"
     inkscape:window-x="1280"
     inkscape:window-y="22"
     inkscape:window-maximized="1" />
  <metadata
     id="metadata7">
    <rdf:RDF>
      <cc:Work
         rdf:about="">
        <dc:format>image/svg+xml</dc:format>
        <dc:type
           rdf:resource="http://purl.org/dc/dcmitype/StillImage" />
        <dc:title></dc:title>
      </cc:Work>
    </rdf:RDF>
  </metadata>
  <g
     inkscape:label="Layer 1"
     inkscape:groupmode="layer"
     id="layer1">
    <path
       style="fill:#ff00ff;fill-opacity:1;stroke:#ff00ff;stroke-width:0.96535325;stroke-opacity:1"
       id="path2985"
       d="m 285.12191,362.69442 c -5.70695,-6.3024 -11.13971,-12.80921 -16.46653,-19.46205 -2.70903,-4.17051 -6.32821,-7.53864 -8.85766,-11.83034 -2.1801,-3.8319 -5.1161,-7.03968 -7.39566,-10.78662 -3.0098,-3.93295 -5.22908,-8.25576 -7.49513,-12.68655 -1.76488,-4.12059 -4.87686,-7.31833 -7.52869,-10.79131 -2.82843,-2.78483 -5.01461,-6.30823 -8.39829,-8.37658 -3.07078,-2.66145 -6.80032,-4.05761 -9.90799,-6.68589 -3.31657,-1.99634 -6.88121,-3.78979 -10.53554,-5.03873 -3.57962,-2.58348 -7.64159,-3.37414 -11.85555,-3.8374 -1.57574,-0.48665 -3.29097,0.1415 -4.86935,-0.26976 -3.00243,-0.78233 -6.54945,-3.00312 -9.13794,-4.75674 -3.75966,-2.68235 -8.13993,-3.25094 -12.53978,-3.62842 -4.65544,-0.44659 -9.12647,-1.95791 -13.80226,-2.52666 -4.38945,-0.19959 -8.7107,1.27939 -13.11016,1.7808 -0.76804,-0.12035 -1.53609,-0.2407 -2.30413,-0.36105 0,0 32.36103,-24.72978 32.36103,-24.72978 l 0,0 c 0.62704,-0.063 1.2541,-0.12611 1.88116,-0.18916 4.57052,-0.73887 9.10421,-1.9217 13.73395,-0.86262 4.58935,0.79649 9.07553,2.19701 13.73973,2.45621 4.80918,0.76691 9.39667,2.12261 13.4812,5.04501 4.21873,2.29597 8.35218,3.61377 13.13776,3.69335 4.37491,0.83973 8.43251,2.3515 12.36885,4.55449 3.84651,1.69602 7.7887,3.37803 11.1611,6.0086 3.23815,2.25754 6.80861,3.9429 9.82373,6.55909 3.36855,2.72354 6.08074,6.17397 8.97708,9.43289 2.84656,3.64878 6.04452,7.1339 7.91462,11.49024 2.19238,4.34201 4.36033,8.54529 7.32888,12.38438 2.31545,3.73485 5.2995,6.95978 7.45121,10.83125 2.44068,4.0967 5.96704,7.35764 8.4453,11.44681 5.16257,6.77484 10.58236,13.28184 16.46741,19.37781 0,0 -34.06835,21.75873 -34.06835,21.75873 z"
       inkscape:connector-curvature="0" />
    <path
       style="fill:#ff00ff;fill-opacity:1;stroke:#ff00ff;stroke-width:0.96535325;stroke-opacity:1"
       id="path2987"
       d="m 249.98482,446.28173 c -7.15496,-4.75005 -14.39363,-9.32573 -21.74161,-13.73134 -3.90949,-2.73974 -7.77286,-5.83681 -12.13091,-7.72833 -4.18858,-1.24145 -7.82688,-3.85681 -11.9384,-5.36867 -4.82208,-1.46154 -9.86395,-1.59718 -14.84217,-1.73104 -5.34252,-0.0842 -10.68594,-0.044 -16.0288,-0.0269 -5.18243,0.36837 -10.55522,-0.72641 -15.62311,0.60904 -4.43549,0.55919 -8.37136,2.51479 -12.61563,3.7589 -4.07393,0.90101 -7.76795,3.0407 -11.50316,4.90685 -12.32477,8.40342 0.0799,-0.0994 30.16691,-18.27433 0.7579,-0.45784 -1.45575,1.01952 -2.19117,1.51687 -2.53003,1.71101 -4.99414,3.42969 -7.41937,5.30749 -3.47496,2.99148 -6.80345,6.16369 -9.25645,10.15299 0,0 -36.32008,17.35521 -36.32008,17.35521 l 0,0 c 1.92102,-4.90327 5.01174,-8.32348 8.67122,-11.88279 14.36151,-12.4032 31.81027,-20.67673 47.55941,-30.53518 3.78024,-1.91122 7.81785,-3.21187 11.8381,-4.42384 4.22061,-1.54726 8.55586,-2.55374 12.98764,-3.18227 5.29852,-0.21176 10.60343,-0.0637 15.90477,-0.12945 5.37737,-0.0114 10.7574,-0.0495 16.13186,0.17092 5.2926,0.30842 10.6283,0.7877 15.61656,2.84651 4.06804,1.82005 7.98101,4.01468 12.14182,5.60871 4.23002,2.39561 8.21682,5.25731 12.16946,8.12862 7.26379,4.63727 14.50212,9.3218 21.84502,13.81224 0,0 -33.42191,22.83981 -33.42191,22.83981 z"
       inkscape:connector-curvature="0" />
    <path
       style="fill:#ff00ff;fill-opacity:1;stroke:#ff00ff;stroke-width:0.96535325;stroke-opacity:1"
       id="path2989"
       d="m 275.57774,478.94139 c -3.3823,8.90413 -6.04673,18.08962 -9.79708,26.8338 -2.21506,4.59706 -4.178,9.33831 -7.0605,13.5222 -2.18435,4.26187 -5.28228,7.78252 -8.17477,11.49861 -2.50883,3.86033 -6.28504,6.34652 -9.20219,9.76328 -3.17044,2.69741 -5.7805,5.95439 -8.68717,8.95796 -3.22899,3.27792 -7.09837,5.60783 -10.60331,8.50594 -13.12929,10.74596 -27.11333,18.04727 -42.22856,27.00741 -0.93018,0.5514 -2.07335,0.54097 -3.07592,0.92402 -0.96037,0.36694 -1.86527,0.88015 -2.79791,1.32022 -0.93734,0.37222 -1.9084,0.66021 -2.81203,1.11666 -1.57798,0.79706 -6.1002,3.62173 -4.58663,2.69478 10.07107,-6.16784 40.4088,-24.44009 30.35644,-18.23803 -11.9764,7.38915 -24.00047,14.69109 -36.00069,22.03663 10.80338,-6.58874 21.5844,-13.21888 32.41014,-19.76621 0.58642,-0.35466 -1.10271,0.83009 -1.68848,1.18599 -11.99532,7.28796 -24.02293,14.51609 -36.05092,21.74325 -2.05958,1.23752 -4.10162,1.95832 -6.05388,3.40073 -2.61301,2.09744 -5.8699,2.12976 -8.84907,3.06917 -1.37982,0.43509 -2.65293,1.19067 -4.00951,1.70146 -2.806,0.76463 -1.51816,0.18449 -3.8865,1.68187 0,0 31.27137,-26.26869 31.27137,-26.26869 l 0,0 c 2.71142,-0.8919 1.35578,-0.42142 4.06651,-1.41279 4.23474,-1.56581 8.66545,-2.5211 12.39755,-5.35679 3.37099,-1.64449 0.86391,-0.39627 4.22072,-2.13545 0.6794,-0.35201 2.69539,-1.45106 2.04289,-1.04584 -10.7581,6.6812 -21.58301,13.24072 -32.36558,19.8774 -0.5771,0.35521 1.16592,-0.68852 1.74888,-1.03279 11.93693,-7.38668 23.87384,-14.77335 35.81076,-22.16001 -10.73518,6.6218 -21.4526,13.27613 -32.20556,19.86543 -0.63608,0.38979 1.21908,-0.87161 1.85286,-1.26559 11.99117,-7.45434 23.98976,-14.89551 36.02024,-22.27828 2.37957,-1.46027 5.00533,-2.37332 7.51598,-3.5295 12.81439,-5.39669 31.45013,-17.85468 -25.99454,16.96356 -4.34917,2.63611 10.26805,-6.38114 5.81797,-4.58289 1.89915,-1.29478 3.41769,-3.11498 5.33272,-4.34277 1.8956,-1.21532 4.02118,-1.8141 5.3435,-3.92495 3.51402,-2.4105 5.34296,-6.20457 8.83557,-8.4849 4.22604,-4.19151 -1.46892,1.64802 2.69466,-3.31201 2.00469,-2.38816 5.30744,-3.17699 6.62483,-6.33932 3.91865,-4.08398 -0.41355,0.63203 3.2434,-4.02069 1.78585,-2.27213 4.22597,-3.97489 5.07373,-6.94586 2.69155,-4.24573 5.67915,-8.21222 7.46681,-13.07461 4.45006,-8.22617 6.6975,-17.46185 9.99577,-26.2302 0,0 35.9875,-17.9222 35.9875,-17.9222 z"
       inkscape:connector-curvature="0" />
    <path
       style="fill:#ff00ff;fill-opacity:1;stroke:#ff00ff;stroke-width:0.96535325;stroke-opacity:1"
       id="path2991"
       d="m 329.14627,495.9829 c -3.44551,8.21386 -6.04188,16.76769 -9.10203,25.13861 -2.13029,5.2491 -3.00449,10.81223 -3.41864,16.46489 0.0241,5.05559 -1.28311,9.93285 -2.01482,14.89067 -0.6778,5.30918 -0.75209,10.67484 -0.82145,16.02333 -0.39369,5.39229 0.25411,10.47982 2.03293,15.51687 1.12152,4.41537 2.79783,8.4434 5.00604,12.34202 1.86152,3.89765 3.16413,8.07914 5.01936,11.97847 1.54519,3.76138 4.40676,6.56592 6.38148,10.04331 2.24505,2.8997 4.96998,5.51104 7.76977,7.82779 3.23153,2.13513 6.50733,4.11973 9.88652,6.00289 4.07167,1.787 8.53883,1.89688 12.87991,2.07542 2.60025,0.0821 5.20172,0.086 7.80282,0.0954 0,0 -32.22971,24.7831 -32.22971,24.7831 l 0,0 c -2.64573,-0.0417 -5.29279,-0.0754 -7.93422,-0.25819 -4.80921,-0.40845 -9.65074,-1.02619 -13.93766,-3.56984 -3.5015,-2.11465 -7.08814,-4.06266 -10.3016,-6.67247 -3.01759,-2.77648 -6.17785,-5.53512 -8.45511,-9.0466 -2.0377,-3.53671 -5.02343,-6.42321 -6.52694,-10.32353 -1.82637,-3.8048 -3.14532,-7.86818 -4.8782,-11.71849 -2.3248,-4.11808 -4.18896,-8.35206 -5.31034,-13.02916 -1.96669,-5.47761 -3.17085,-11.00245 -2.69696,-16.91981 0.0369,-5.4954 0.0684,-11.00121 0.56337,-16.47649 0.54442,-4.93486 1.93004,-9.69652 2.1742,-14.6326 0.27772,-6.02321 0.83758,-12.04961 2.97429,-17.70463 3.13904,-8.27286 5.75579,-16.7378 9.14949,-24.90883 0,0 35.9875,-17.92221 35.9875,-17.92221 z"
       inkscape:connector-curvature="0" />
    <path
       style="fill:#ff00ff;fill-opacity:1;stroke:#ff00ff;stroke-width:0.96535325;stroke-opacity:1"
       id="path2993"
       d="m 412.64438,501.25817 c -1.1842,9.31034 -1.77131,18.69032 -2.17107,28.07056 -0.75154,6.13443 0.74862,11.72924 2.57753,17.4319 1.3787,4.63212 3.83707,8.57647 6.42695,12.50514 2.76441,3.2276 5.62525,6.30762 7.95767,9.91954 2.68077,3.95531 5.96315,7.11803 9.34854,10.3277 3.06436,2.70148 6.27755,5.08213 9.72164,7.21472 3.52653,2.13428 6.89577,3.74816 10.94063,4.44295 4.06878,1.99821 8.42463,2.70251 12.84524,3.10447 5.14208,0.34613 10.298,0.32436 15.44803,0.3285 3.57214,-0.003 7.14427,-0.0121 10.7164,-0.0192 0,0 -32.20084,24.81803 -32.20084,24.81803 l 0,0 c -3.57697,0.006 -7.15397,0.0157 -10.73094,0.002 -5.24834,-0.0373 -10.51176,-0.0571 -15.73334,-0.6873 -4.49148,-0.68047 -8.78673,-1.96202 -13.09596,-3.43976 -4.20968,-1.20841 -7.96659,-3.28417 -11.72242,-5.60911 -3.50223,-2.41513 -6.93308,-4.87852 -10.05478,-7.84054 -3.65246,-3.37619 -6.90525,-7.08796 -9.83627,-11.19142 -2.38817,-3.54933 -5.415,-6.50095 -7.97273,-9.90912 -2.80127,-4.2614 -5.33362,-8.6332 -6.95429,-13.57677 -1.92553,-6.17242 -3.88449,-12.27108 -3.09206,-18.91392 0.44817,-9.43049 1.17146,-18.83894 1.94232,-28.24535 0,0 35.63975,-18.73267 35.63975,-18.73267 z"
       inkscape:connector-curvature="0" />
    <path
       style="fill:#ff00ff;fill-opacity:1;stroke:#ff00ff;stroke-width:0.96535325;stroke-opacity:1"
       id="path2995"
       d="m 462.53661,449.04758 c 6.93482,4.24057 13.51264,9.01958 20.07876,13.85521 4.06258,2.40525 7.56625,5.78615 11.04783,9.0348 3.26785,2.96392 6.31629,6.20965 9.63145,9.11588 2.49902,3.24647 5.7026,5.50976 8.73655,8.07558 3.09223,2.69673 5.94154,4.56758 9.90435,5.39314 4.60987,0.93613 8.86717,0.66943 13.0922,-1.50922 38.57773,-21.47095 -103.65294,63.2623 13.33857,-7.22221 -84.89612,51.78381 2.45028,-1.71537 3.72649,-2.48233 2.71758,-1.6332 5.88926,-2.60481 8.67683,-4.16342 14.68845,-6.09031 40.21865,-22.41619 -18.9725,13.26631 0,0 37.15401,-15.1415 37.15401,-15.1415 l 0,0 c -16.66323,10.07716 -32.01824,20.27669 -49.29936,28.21839 -2.24194,1.07183 -4.51822,2.12937 -6.70951,3.3147 -0.63095,0.3413 -2.46647,1.47814 -1.85379,1.10125 31.98446,-19.6755 56.65444,-34.70505 -3.85889,2.25465 10.67079,-6.5476 21.34329,-13.09203 32.01235,-19.64279 0.7073,-0.43429 -1.41784,0.86262 -2.12709,1.29333 -12.11897,7.35974 -24.20295,14.78464 -36.35753,22.07801 -2.25028,1.35029 -4.78194,2.13456 -7.19498,3.06856 -4.8554,1.09442 -9.68978,0.93291 -14.49827,-0.49507 -4.08636,-1.46438 -7.42359,-3.91487 -10.78385,-6.74027 -3.2076,-2.47554 -6.0856,-5.27567 -8.84643,-8.30052 -3.19698,-3.04174 -6.36883,-6.10988 -9.62601,-9.07959 -3.51692,-3.0424 -6.72907,-6.46419 -10.72802,-8.82237 -6.31178,-4.88604 -12.78198,-9.54217 -19.77707,-13.28264 0,0 33.23391,-23.18788 33.23391,-23.18788 z"
       inkscape:connector-curvature="0" />
    <path
       style="fill:#ff00ff;fill-opacity:1;stroke:#ff00ff;stroke-width:0.96535325;stroke-opacity:1"
       id="path2997"
       d="m 472.91378,386.71283 c 8.84436,-0.88551 17.70094,-1.59796 26.57515,-2.03321 6.1515,-0.2738 12.30905,-0.29889 18.46489,-0.30874 4.41809,-0.49903 8.13695,-2.82487 12.27384,-4.20223 1.45491,-1.64115 3.58402,-1.87516 5.35578,-2.8311 0.57812,-0.3119 2.14248,-1.5464 1.57855,-1.20655 -31.54898,19.0138 -42.36893,27.6798 -30.6414,18.40538 2.90958,-3.29967 4.68041,-7.70265 6.02587,-11.95496 0.97704,-4.60374 2.28902,-9.10648 3.41798,-13.66993 1.18513,-4.25228 2.9691,-8.23852 4.58613,-12.31124 1.84292,-3.75632 3.36033,-7.6546 5.68837,-11.11599 1.50813,-2.29539 0.70982,-1.21895 2.3814,-3.24052 0,0 36.70549,-16.62767 36.70549,-16.62767 l 0,0 c -1.50938,2.18409 -0.66498,1.2138 -2.50987,2.93349 -2.12843,3.50053 -4.65621,6.62678 -5.86817,10.7039 -2.23301,3.52164 -3.38592,7.80535 -4.85962,11.7235 -1.73391,4.07799 -2.35906,9.13465 -3.55065,13.43224 -1.04143,4.95028 -3.13046,9.38961 -5.18486,13.93094 -10.42516,14.57063 -29.06369,20.31876 -44.57467,27.84944 -4.16077,1.77168 -8.48692,3.02493 -13.01618,2.99586 -6.07992,0.0215 -12.16131,0.0728 -18.23597,0.36807 -8.86509,0.46446 -17.72413,1.14136 -26.53214,2.32873 0,0 31.92008,-25.16941 31.92008,-25.16941 z"
       inkscape:connector-curvature="0" />
    <path
       style="fill:#ff00ff;fill-opacity:1;stroke:#ff00ff;stroke-width:0.96535325;stroke-opacity:1"
       id="path2999"
       d="m 419.08369,306.15806 c 7.76772,-3.2013 15.26397,-7.12121 23.05841,-10.23447 12.36011,-6.88724 29.49038,-17.34862 -27.22314,16.75299 -0.63029,0.379 1.21648,-0.83512 1.82526,-1.2518 2.56938,-1.75865 1.26277,-0.80736 3.69097,-2.67186 3.48743,-3.41365 6.92779,-6.86124 10.45881,-10.22876 4.58621,-4.27788 9.10788,-8.5897 13.40994,-13.19024 3.85544,-3.96642 6.25473,-9.08439 8.4892,-14.18598 1.99816,-4.11971 3.5809,-8.22745 4.33958,-12.79908 1.00788,-4.46612 -0.60502,-8.07653 -2.15693,-12.07292 -0.99181,-4.19009 -3.94294,-7.12037 -5.65266,-10.97266 -0.90291,-1.72548 -1.73406,-3.43475 -2.82228,-5.03674 0,0 34.39312,-21.47309 34.39312,-21.47309 l 0,0 c 1.17772,1.83715 2.17443,3.73203 3.16282,5.69153 1.65553,3.90837 4.89845,6.81509 5.73766,11.13677 1.74785,4.57472 3.92345,8.93174 3.09448,14.06939 -0.49318,4.83316 -1.23248,9.64997 -3.92214,13.73016 -1.84854,5.59492 -4.61553,11.02597 -7.96774,15.7484 -4.26343,4.66898 -8.51436,9.30079 -13.27856,13.38308 -3.46782,3.41851 -7.05412,6.67707 -10.38968,10.19351 -1.60528,1.92869 -3.1725,3.28841 -5.27552,4.58637 -13.31852,8.21993 -26.64748,18.11679 -41.13157,24.61657 -7.71171,3.44676 -15.40408,6.94186 -23.23698,10.07473 0,0 31.39695,-25.8659 31.39695,-25.8659 z"
       inkscape:connector-curvature="0" />
    <path
       style="fill:#ff00ff;fill-opacity:1;stroke:#ff00ff;stroke-width:0.96535325;stroke-opacity:1"
       id="path3001"
       d="m 338.38052,317.37875 c 5.19038,-8.29898 10.38426,-16.62799 14.27534,-25.71176 2.40344,-5.83576 3.08108,-12.09489 3.36203,-18.38313 -0.0183,-5.43769 0.37337,-10.92765 -0.19105,-16.34257 -0.5622,-4.56447 -1.87586,-8.87691 -3.18298,-13.23713 -1.55091,-3.60241 -3.47917,-7.05256 -5.56237,-10.34131 -2.47881,-2.88489 -4.92647,-5.60396 -7.59686,-8.28065 -2.84588,-2.84043 -6.37988,-4.5557 -9.02999,-7.60226 -2.6908,-2.8602 -6.54081,-3.79491 -10.00296,-5.25858 -4.32731,-1.50391 -8.91804,-1.63259 -13.42832,-1.79171 -4.20498,0.41227 -8.14953,-0.82027 -12.21535,-1.69141 0,0 32.71112,-24.16061 32.71112,-24.16061 l 0,0 c 3.9235,0.84007 7.82802,1.25469 11.84112,1.2012 4.85417,0.34487 9.73954,0.86669 14.25796,2.93227 3.91216,1.76201 8.02248,3.10564 10.8838,6.67577 2.7794,2.70535 6.26204,4.54729 8.9319,7.43359 2.96758,2.82458 5.42893,6.02723 8.0924,9.16471 2.2399,3.65893 4.41033,7.39949 6.0893,11.38837 1.32239,4.58849 2.8398,9.05674 3.45545,13.84553 0.90784,5.61408 0.35265,11.36704 0.47511,17.04474 -0.17455,6.73126 -0.62957,13.48654 -2.8814,19.85829 -3.57829,9.35134 -8.76888,17.77936 -13.90445,26.24224 0,0 -36.3798,17.01441 -36.3798,17.01441 z"
       inkscape:connector-curvature="0" />
  </g>
</svg>
