<?xml version="1.0" encoding="UTF-8" standalone="no"?>
<!-- Created with Inkscape (http://www.inkscape.org/) -->

<svg
   xmlns:dc="http://purl.org/dc/elements/1.1/"
   xmlns:cc="http://creativecommons.org/ns#"
   xmlns:rdf="http://www.w3.org/1999/02/22-rdf-syntax-ns#"
   xmlns:svg="http://www.w3.org/2000/svg"
   xmlns="http://www.w3.org/2000/svg"
   xmlns:sodipodi="http://sodipodi.sourceforge.net/DTD/sodipodi-0.dtd"
   xmlns:inkscape="http://www.inkscape.org/namespaces/inkscape"
   width="1052.3622"
   height="744.09448"
   id="svg2"
   version="1.1"
   inkscape:version="0.48.2 r9819"
   sodipodi:docname="logo.svg"
   inkscape:export-filename="C:\Users\Jannis\Pictures\Eduras\logo.png"
   inkscape:export-xdpi="300"
   inkscape:export-ydpi="300">
  <defs
     id="defs4" />
  <sodipodi:namedview
     id="base"
     pagecolor="#ffffff"
     bordercolor="#666666"
     borderopacity="1.0"
     inkscape:pageopacity="0.0"
     inkscape:pageshadow="2"
     inkscape:zoom="1.4"
     inkscape:cx="463.09169"
     inkscape:cy="409.22559"
     inkscape:document-units="px"
     inkscape:current-layer="layer1"
     showgrid="false"
     borderlayer="true"
     inkscape:window-width="1920"
     inkscape:window-height="1028"
     inkscape:window-x="-8"
     inkscape:window-y="-8"
     inkscape:window-maximized="1" />
  <metadata
     id="metadata7">
    <rdf:RDF>
      <cc:Work
         rdf:about="">
        <dc:format>image/svg+xml</dc:format>
        <dc:type
           rdf:resource="http://purl.org/dc/dcmitype/StillImage" />
        <dc:title></dc:title>
      </cc:Work>
    </rdf:RDF>
  </metadata>
  <g
     inkscape:label="Ebene 1"
     inkscape:groupmode="layer"
     id="layer1"
     transform="translate(0,-308.2677)">
    <g
       style="font-size:40px;font-style:normal;font-weight:normal;line-height:125%;letter-spacing:0px;word-spacing:0px;fill:#000000;fill-opacity:1;stroke:none;font-family:Sans"
       id="text2985">
      <path
         d="m 246.66475,677.45931 79.15869,0 9.97119,-30.7242 -4.52637,-2.18848 c -6.23152,8.37307 -11.99275,14.19142 -17.28369,17.45508 -5.54596,3.34571 -12.21099,5.01855 -19.99511,5.01855 l -4.17153,0 c -3.47465,0 -5.99271,-0.66503 -7.5542,-1.99511 -1.47073,-1.24804 -2.20609,-3.33105 -2.20606,-6.24903 l 0,-36.2373 10.89956,0 c 4.46772,5e-5 7.84858,1.27153 10.14258,3.81445 2.40814,2.65727 3.61224,19.13609 3.6123,25.88605 l 6.40283,0 c 0,0 27.14286,-34.54059 27.14286,-38.09142 0,-3.55083 -27.14286,-43.56904 -27.14286,-43.56904 l -6.40283,0 c -6e-5,7.01374 -1.01959,32.3247 -3.05859,34.50433 -2.45514,2.57232 -6.02056,3.85845 -10.69629,3.85839 l -10.89956,0 0,-52.12523 c -3e-5,-2.80655 0.71921,-4.77969 2.15772,-5.91943 1.50583,-1.1835 3.94772,-1.77529 7.32568,-1.77539 l 107.02311,0 c 7.63471,10e-5 13.62336,1.55861 19.23926,5.40967 8.09496,5.55106 8.32585,46.22624 8.43693,53.52144 l 20.39643,-3.78719 c 0,0 -1.22178,-63.78691 -20.25523,-69.73549 -26.06719,-9.0632 -177.71682,-2.27284 -177.71682,-2.27284 l 0,6.25781 c 4.96581,10e-5 8.30126,0.60654 10.00635,1.81933 1.60252,1.15733 2.40381,3.11582 2.40381,5.87549 l 0,112.56637 c 0,2.95607 -0.85988,5.05958 -2.57959,6.31055 -1.58791,1.28907 -4.86476,1.9336 -9.83057,1.93359 z"
         style="font-size:144px;font-variant:normal;font-weight:bold;font-stretch:normal;font-family:Batang;-inkscape-font-specification:Batang Bold"
         id="path2990"
         inkscape:connector-curvature="0"
         sodipodi:nodetypes="cccccssccccccczcccccccccsccccccssccc" />
      <path
         d="m 395.08565,674.3811 c 4.88958,-0.36621 8.43011,-0.6416 10.62158,-0.82617 2.45794,-0.18457 5.97063,-0.39404 10.53809,-0.62842 l 0,-5.77002 c -3.89071,1e-5 -6.53475,-0.74266 -7.93213,-2.22802 -0.96394,-0.96386 -1.44587,-2.78612 -1.4458,-5.4668 l 0,-91.30078 -23.36133,7.45752 1.08105,4.31543 c 4.79878,9e-5 7.78413,0.3121 8.95606,0.93603 1.21283,0.71201 1.81927,1.99961 1.81933,3.8628 l 0,25.47949 c -0.71197,-2.28802 -2.46832,-4.08245 -5.26904,-5.3833 -3.68853,-1.64935 -8.21782,-2.47405 -13.58789,-2.47412 -10.29495,7e-5 -18.25198,3.87458 -23.87109,11.62353 -4.88087,6.69732 -7.3213,15.14946 -7.32129,25.35645 -1e-5,9.85256 2.5327,18.21974 7.59814,25.10156 5.70408,7.73438 13.56882,11.60156 23.59424,11.60156 5.12691,0 9.46431,-0.82764 13.01221,-2.48291 3.4892,-1.5791 5.34515,-3.32519 5.56787,-5.23828 z m 0.27685,-57.05859 0,43.85303 -0.39111,0.32959 c -1.80767,2.16505 -3.51715,3.6709 -5.12842,4.51758 -2.7481,1.58496 -6.22856,2.37744 -10.4414,2.37744 -7.15434,0 -12.65628,-2.95459 -16.50586,-8.86377 -3.40725,-5.16795 -5.11086,-11.90183 -5.11084,-20.20166 -2e-5,-8.31148 1.70359,-15.13325 5.11084,-20.46534 3.85836,-5.9179 9.36031,-8.87688 16.50586,-8.87695 4.02827,7e-5 7.32856,0.64313 9.90087,1.9292 2.21479,1.14264 4.23481,2.94293 6.06006,5.40088 z"
         style="font-size:144px;font-variant:normal;font-weight:bold;font-stretch:normal;font-family:Batang;-inkscape-font-specification:Batang Bold"
         id="path2992" />
      <path
         d="m 424.20792,607.94136 0.0861,4.85961 c 0,0 0.44888,24.81138 2.00041,33.83148 1.55153,9.0201 2.02433,14.81881 12.23113,24.50109 3.5654,3.26954 8.51657,4.9043 14.85351,4.9043 5.16793,0 10.56881,-1.53809 16.20264,-4.61426 3.42475,-1.79296 5.78022,-3.97851 7.06641,-6.55664 l 0,9.51416 c 4.70501,-0.36621 8.15325,-0.6416 10.34472,-0.82617 2.45794,-0.18457 6.01604,-0.39404 10.67432,-0.62842 l 0,-5.77002 c -3.8907,1e-5 -6.47908,-0.64159 -7.76514,-1.9248 -1.16608,-1.16601 -1.74909,-3.08934 -1.74902,-5.77002 l 0,-61.14754 -11.50488,4.09631 0,56.71289 c -2.79791,2.32033 -4.66061,5.39356 -7.35587,6.69433 -3.75005,1.82813 -4.3852,1.85832 -8.72403,1.85831 -4.56156,10e-6 -6.28099,-1.00253 -7.93623,-2.50254 -1.5762,-1.42675 -4.93631,-4.28208 -5.14218,-8.04404 -0.96806,-17.68999 -1.0709,-39.08808 -2.90419,-53.06998 z"
         style="font-size:144px;font-variant:normal;font-weight:bold;font-stretch:normal;font-family:Batang;-inkscape-font-specification:Batang Bold"
         id="path2994"
         inkscape:connector-curvature="0"
         sodipodi:nodetypes="cczcsccccccccccccscscc" />
      <path
         d="m 502.75606,673.69116 30.39697,0 0,-6.39404 c -4.31839,1e-5 -6.98587,-0.43505 -8.00244,-1.30518 -0.91702,-0.78514 -1.37549,-2.36424 -1.37549,-4.7373 l 0,-26.37152 c 32.68262,-41.26821 60.38713,-41.76641 86.99153,-28.32106 -9.82418,-20.48321 -53.91521,-26.25044 -87.28599,10.16719 l 0.29443,1.75781 0,-17.37158 c -9.11732,3.23484 -15.85324,5.22509 -24.57485,9.58545 3.83495,6e-5 11.05287,2.5567 12.01089,3.29492 0.70604,0.53033 1.05906,1.85308 1.05908,3.96826 l 0,43.29053 c -2e-5,2.20313 -0.6548,3.75294 -1.96436,4.64941 -1.31544,0.92872 -3.83204,1.39308 -7.5498,1.39307 z"
         style="font-size:144px;font-variant:normal;font-weight:bold;font-stretch:normal;font-family:Batang;-inkscape-font-specification:Batang Bold"
         id="path2996"
         inkscape:connector-curvature="0"
         sodipodi:nodetypes="ccccscccccccssccc" />
      <path
         d="m 619.36823,664.09992 c -1.99226,1.36231 -9.2124,2.99359 -10.23187,3.46527 -0.61823,0.27832 -1.32428,0.41748 -2.11816,0.41748 -0.28132,0 -0.52155,-0.38379 -0.7207,-1.15137 -0.32526,-1.13378 -0.48786,-2.8081 -0.4878,-5.02295 l 0,-39.15967 c -6e-5,-6.45697 -2.46832,-11.61322 -7.40478,-15.46875 -3.04986,-3.21673 -7.85308,-4.82512 -14.40967,-4.82519 -9.24027,7e-5 -16.91897,1.42975 -23.03613,4.28906 -5.71291,2.85944 -8.56935,6.40289 -8.56934,10.63037 -10e-6,2.29107 0.54052,4.02984 1.62158,5.21631 1.2539,1.50298 3.06737,2.25444 5.44043,2.25439 2.1533,5e-5 3.8657,-0.74262 5.13721,-2.22802 1.01365,-1.26558 1.78123,-2.60444 2.30273,-4.01661 1.3242,-3.87884 3.05418,-6.45111 5.18995,-7.71679 2.46383,-1.4472 6.20504,-2.17084 11.22363,-2.1709 3.53023,6e-5 6.22261,1.08112 8.07715,3.24316 1.94819,2.20319 2.92231,5.34234 2.92236,9.41748 l 0,8.87696 c -13.88383,2.10941 -24.67239,5.55619 -32.36572,10.34033 -7.83693,4.79885 -11.75538,10.66408 -11.75537,17.5957 -10e-6,5.27931 1.76952,9.53761 5.30859,12.7749 3.74705,3.45118 9.15672,5.17676 16.229,5.17676 5.49606,0 10.29635,-0.91992 14.40088,-2.75976 3.6855,-1.72852 6.41304,-4.02685 8.18262,-6.89502 -5e-5,2.17676 0.52436,4.15576 1.57324,5.93701 1.46479,2.47851 3.98432,3.71777 7.5586,3.71777 2.85345,0 5.43596,-0.82617 7.74755,-2.47851 3.47143,-3.23336 5.06891,-5.81473 8.18402,-9.45941 z m -25.06341,-27.4986 0,23.51514 c -2.79497,2.55469 -5.36723,4.35059 -7.7168,5.38769 -3.41019,1.37696 -7.44584,2.06544 -12.10693,2.06543 -3.92581,10e-6 -6.76467,-0.72949 -8.5166,-2.18848 -2.20608,-2.11815 -3.3091,-4.64207 -3.30908,-7.57177 -2e-5,-5.56346 3.15085,-10.26267 9.45263,-14.09766 6.17282,-3.7529 13.57174,-6.12301 22.19678,-7.11035 z"
         style="font-size:144px;font-variant:normal;font-weight:bold;font-stretch:normal;font-family:Batang;-inkscape-font-specification:Batang Bold"
         id="path2998"
         inkscape:connector-curvature="0"
         sodipodi:nodetypes="ccsccscccsccccccccccscscccscccccscccc" />
      <path
         d="m 622.51778,650.75171 2.87489,55.58597 9.4254,-32.72122 c 0.76169,-0.31641 1.65525,-0.38233 2.68066,-0.19776 0.74119,0.16699 2.08738,0.4834 4.03858,0.94922 2.02438,0.64746 3.68404,1.06347 4.979,1.24805 2.04488,0.46288 4.21432,0.69433 6.5083,0.69433 6.69429,0 12.31635,-1.59668 16.86621,-4.79004 5.414,-3.80858 8.12103,-8.88426 8.1211,-15.22705 -7e-5,-6.00583 -2.26179,-10.86911 -6.78516,-14.58984 -4.08697,-3.32516 -10.80327,-6.4277 -20.14892,-9.30762 -7.83988,-2.48433 -13.12064,-4.5937 -15.84229,-6.32812 -2.6426,-1.65523 -3.96389,-3.80562 -3.96387,-6.45117 -2e-5,-3.43354 1.33299,-6.21528 3.99903,-8.34522 1.99802,-1.49701 5.06686,-2.24554 9.20654,-2.24561 5.59859,7e-5 10.96577,1.88093 16.10156,5.64258 4.52631,3.71783 14.64455,13.7807 18.2188,15.01407 l -11.68852,-27.19131 -6.74122,2.62793 c -0.33696,0.17878 -0.81889,0.18756 -1.4458,0.0264 -0.56255,-0.0849 -1.64067,-0.32512 -3.23437,-0.7207 -1.82524,-0.52434 -3.36772,-0.93157 -4.62744,-1.22168 -2.18852,-0.38079 -4.38285,-0.57122 -6.58301,-0.57129 -6.9844,7e-5 -12.50539,1.47077 -16.56299,4.41211 -4.60255,3.45417 -6.90382,7.64508 -6.90381,12.57276 -10e-6,5.28227 2.00536,9.66508 6.01612,13.14843 3.93161,3.47758 11.06686,6.83353 21.40576,10.06787 7.63765,2.29398 12.86127,4.45023 15.6709,6.46875 2.5224,1.81057 3.78363,4.14114 3.78369,6.9917 -6e-5,4.10158 -1.56305,7.53224 -4.68897,10.292 -2.4229,2.03613 -5.81401,3.0542 -10.17334,3.05419 -6.62992,10e-6 -12.72659,-2.06395 -18.29004,-6.19189 -3.59474,-2.57225 -7.66701,-6.80418 -12.21679,-12.6958 z"
         style="font-size:144px;font-variant:normal;font-weight:bold;font-stretch:normal;font-family:Batang;-inkscape-font-specification:Batang Bold"
         id="path3000"
         inkscape:connector-curvature="0"
         sodipodi:nodetypes="ccccccscccccccccccccccccscccccsccc" />
      <path
         d="m 703.91768,649.01147 c -4e-5,-5.60739 1.23189,-10.8691 3.6958,-15.78515 2.43745,-4.78121 6.05708,-9.57124 10.85889,-14.37012 l 0.83056,-1.10742 c 3.80268,-3.80561 6.45697,-6.98578 7.96289,-9.54053 2.63373,-4.40618 3.95062,-9.24309 3.95069,-14.51074 -7e-5,-8.77433 -3.04255,-15.61367 -9.12744,-20.51807 -5.32916,-4.26552 -12.1773,-6.39833 -20.54444,-6.39843 -8.15628,10e-5 -14.75832,1.76084 -19.80615,5.28222 -5.93556,4.32725 -8.90333,10.43564 -8.90332,18.3252 -10e-6,2.795 0.49364,5.12849 1.48096,7.00049 1.29198,2.70417 3.3369,4.05622 6.13476,4.05615 2.23534,7e-5 4.05028,-0.58147 5.44483,-1.74463 1.7197,-1.26262 2.57956,-3.08049 2.57959,-5.45361 -3e-5,-1.37981 -0.38968,-2.57219 -1.16895,-3.57715 -0.4424,-0.66203 -1.07961,-1.3256 -1.91162,-1.99072 -1.1133,-1.01066 -1.84865,-1.78556 -2.20606,-2.32471 -0.33693,-0.55948 -0.50538,-1.28312 -0.50537,-2.1709 -10e-6,-3.17569 1.5659,-5.71866 4.69776,-7.62891 3.69138,-2.15908 8.22799,-3.23867 13.60986,-3.23877 4.91891,1e-4 8.95455,1.41368 12.10693,4.24073 3.58296,4.4913 5.37446,9.31942 5.37452,14.48437 -6e-5,3.16707 -0.61822,6.60506 -1.8545,10.31397 -1.3477,4.0401 -3.07475,7.57916 -5.18115,10.61718 -4.83402,6.44244 -8.05521,11.50787 -9.66357,15.19629 -2.46976,5.61039 -3.70463,12.55814 -3.70459,20.84326 z m -3.47608,9.87452 c -2.63382,10e-6 -4.69192,0.91554 -6.17431,2.74658 -1.32718,1.66407 -1.99075,3.60645 -1.99072,5.82715 -3e-5,2.14453 0.66354,4.05029 1.99072,5.71728 1.56735,1.90723 3.62545,2.86084 6.17431,2.86084 2.6279,0 4.75924,-0.99316 6.39405,-2.97949 1.45601,-1.56152 2.18404,-3.42773 2.18408,-5.59863 -4e-5,-2.24999 -0.64311,-4.06493 -1.9292,-5.44483 -1.82524,-2.08592 -4.04154,-3.12889 -6.64893,-3.1289 z"
         style="font-size:144px;font-variant:normal;font-weight:bold;font-stretch:normal;font-family:Batang;-inkscape-font-specification:Batang Bold"
         id="path3002"
         inkscape:connector-curvature="0" />
    </g>
  </g>
</svg>
