<?xml version="1.0" encoding="UTF-8" standalone="no"?>
<!-- Created with Inkscape (http://www.inkscape.org/) -->

<svg
   xmlns:dc="http://purl.org/dc/elements/1.1/"
   xmlns:cc="http://creativecommons.org/ns#"
   xmlns:rdf="http://www.w3.org/1999/02/22-rdf-syntax-ns#"
   xmlns:svg="http://www.w3.org/2000/svg"
   xmlns="http://www.w3.org/2000/svg"
   xmlns:sodipodi="http://sodipodi.sourceforge.net/DTD/sodipodi-0.dtd"
   xmlns:inkscape="http://www.inkscape.org/namespaces/inkscape"
   width="210mm"
   height="297mm"
   id="svg2"
   version="1.1"
   inkscape:version="0.48.2 r9819"
   sodipodi:docname="newgame.svg"
   inkscape:export-filename="C:\Users\Jannis\Pictures\Eduras\newgame.png"
   inkscape:export-xdpi="79.019997"
   inkscape:export-ydpi="79.019997">
  <defs
     id="defs4" />
  <sodipodi:namedview
     id="base"
     pagecolor="#ffffff"
     bordercolor="#666666"
     borderopacity="1.0"
     inkscape:pageopacity="0.0"
     inkscape:pageshadow="2"
     inkscape:zoom="1.4"
     inkscape:cx="448.5678"
     inkscape:cy="610.54569"
     inkscape:document-units="px"
     inkscape:current-layer="layer1"
     showgrid="false"
     inkscape:window-width="1920"
     inkscape:window-height="1028"
     inkscape:window-x="-8"
     inkscape:window-y="-8"
     inkscape:window-maximized="1" />
  <metadata
     id="metadata7">
    <rdf:RDF>
      <cc:Work
         rdf:about="">
        <dc:format>image/svg+xml</dc:format>
        <dc:type
           rdf:resource="http://purl.org/dc/dcmitype/StillImage" />
        <dc:title></dc:title>
      </cc:Work>
    </rdf:RDF>
  </metadata>
  <g
     inkscape:label="Ebene 1"
     inkscape:groupmode="layer"
     id="layer1">
    <rect
       style="fill:none;stroke:#4d4d4d;stroke-width:20;stroke-linecap:round;stroke-linejoin:round;stroke-miterlimit:4;stroke-dasharray:none"
       id="rect2985"
       width="662.85712"
       height="480"
       x="42.857143"
       y="192.36218" />
    <rect
       style="fill:none;stroke:#4d4d4d;stroke-width:20;stroke-linecap:round;stroke-linejoin:round;stroke-miterlimit:4;stroke-dasharray:none"
       id="rect2987"
       width="267.14285"
       height="308.57144"
       x="55.714287"
       y="209.50504" />
    <rect
       style="fill:none;stroke:#4d4d4d;stroke-width:20;stroke-linecap:round;stroke-linejoin:round;stroke-miterlimit:4;stroke-dasharray:none"
       id="rect2989"
       width="240.71428"
       height="327.85715"
       x="454.28571"
       y="193.07646" />
    <rect
       style="fill:none;stroke:#4d4d4d;stroke-width:20;stroke-linecap:round;stroke-linejoin:round;stroke-miterlimit:4;stroke-dasharray:none"
       id="rect2991"
       width="659.28571"
       height="147.14285"
       x="45.714287"
       y="519.50507" />
    <rect
       style="fill:none;stroke:#4d4d4d;stroke-width:20;stroke-linecap:round;stroke-linejoin:round;stroke-miterlimit:4;stroke-dasharray:none"
       id="rect2993"
       width="283.57144"
       height="147.14285"
       x="419.28571"
       y="521.64789" />
    <rect
       style="fill:none;stroke:#4d4d4d;stroke-width:18.56231308;stroke-linecap:round;stroke-linejoin:round;stroke-miterlimit:4;stroke-dasharray:none"
       id="rect2995"
       width="131.42857"
       height="121.82639"
       x="322.85715"
       y="193.79076" />
    <text
       xml:space="preserve"
       style="font-size:40px;font-style:normal;font-weight:normal;line-height:125%;letter-spacing:0px;word-spacing:0px;fill:#000000;fill-opacity:1;stroke:none;font-family:Sans"
       x="351.42856"
       y="268.07645"
       id="text2997"
       sodipodi:linespacing="125%"><tspan
         sodipodi:role="line"
         id="tspan2999"
         x="351.42856"
         y="268.07645">Map</tspan></text>
    <text
       xml:space="preserve"
       style="font-size:40px;font-style:normal;font-weight:normal;line-height:125%;letter-spacing:0px;word-spacing:0px;fill:#000000;fill-opacity:1;stroke:none;font-family:Sans"
       x="118.57143"
       y="412.36218"
       id="text3001"
       sodipodi:linespacing="125%"><tspan
         sodipodi:role="line"
         id="tspan3003"
         x="118.57143"
         y="412.36218">Team 1</tspan></text>
    <text
       xml:space="preserve"
       style="font-size:40px;font-style:normal;font-weight:normal;line-height:125%;letter-spacing:0px;word-spacing:0px;fill:#000000;fill-opacity:1;stroke:none;font-family:Sans"
       x="509.28571"
       y="433.07645"
       id="text3005"
       sodipodi:linespacing="125%"><tspan
         sodipodi:role="line"
         id="tspan3007"
         x="509.28571"
         y="433.07645">Team 2</tspan></text>
    <text
       xml:space="preserve"
       style="font-size:40px;font-style:normal;font-weight:normal;line-height:125%;letter-spacing:0px;word-spacing:0px;fill:#000000;fill-opacity:1;stroke:none;font-family:Sans"
       x="160.71428"
       y="598.79077"
       id="text3009"
       sodipodi:linespacing="125%"><tspan
         sodipodi:role="line"
         id="tspan3011"
         x="160.71428"
         y="598.79077">Chat</tspan></text>
    <text
       xml:space="preserve"
       style="font-size:40px;font-style:normal;font-weight:normal;line-height:125%;letter-spacing:0px;word-spacing:0px;fill:#000000;fill-opacity:1;stroke:none;font-family:Sans"
       x="430.71429"
       y="619.50507"
       id="text3013"
       sodipodi:linespacing="125%"><tspan
         sodipodi:role="line"
         id="tspan3015"
         x="430.71429"
         y="619.50507">Game settings</tspan></text>
    <rect
       style="fill:none;stroke:#4d4d4d;stroke-width:5;stroke-linecap:round;stroke-linejoin:round;stroke-miterlimit:4;stroke-dasharray:none"
       id="rect3789"
       width="96.428574"
       height="24.285715"
       x="340"
       y="479.50504" />
    <rect
       style="fill:none;stroke:#4d4d4d;stroke-width:4.71763706;stroke-linecap:round;stroke-linejoin:round;stroke-miterlimit:4;stroke-dasharray:none"
       id="rect3791"
       width="94.285713"
       height="26.07143"
       x="340.71429"
       y="358.07651" />
    <text
       xml:space="preserve"
       style="font-size:18.77120209px;font-style:normal;font-weight:normal;line-height:125%;letter-spacing:0px;word-spacing:0px;fill:#000000;fill-opacity:1;stroke:none;font-family:Sans"
       x="359.52509"
       y="499.0499"
       id="text3793"
       sodipodi:linespacing="125%"><tspan
         sodipodi:role="line"
         id="tspan3795"
         x="359.52509"
         y="499.0499">Start</tspan></text>
    <rect
       style="fill:none;stroke:#4d4d4d;stroke-width:4.58656597;stroke-linecap:round;stroke-linejoin:round;stroke-miterlimit:4;stroke-dasharray:none"
       id="rect3791-1"
       width="94.285713"
       height="24.642859"
       x="340.71429"
       y="392.00504" />
    <text
       xml:space="preserve"
       style="font-size:25.52581978px;font-style:normal;font-weight:normal;line-height:125%;letter-spacing:0px;word-spacing:0px;fill:#000000;fill-opacity:1;stroke:none;font-family:Sans"
       x="367.79306"
       y="378.9675"
       id="text3815"
       sodipodi:linespacing="125%"><tspan
         sodipodi:role="line"
         id="tspan3817"
         x="367.79306"
         y="378.9675">--&gt;</tspan></text>
    <text
       xml:space="preserve"
       style="font-size:25.52581978px;font-style:normal;font-weight:normal;line-height:125%;letter-spacing:0px;word-spacing:0px;fill:#000000;fill-opacity:1;stroke:none;font-family:Sans"
       x="-399.25089"
       y="412.08154"
       id="text3815-7"
       sodipodi:linespacing="125%"
       transform="scale(-1,1)"><tspan
         sodipodi:role="line"
         id="tspan3817-4"
         x="-399.25089"
         y="412.08154">--&gt;</tspan></text>
    <rect
       style="fill:none;stroke:#4d4d4d;stroke-width:5;stroke-linecap:round;stroke-linejoin:round;stroke-miterlimit:4;stroke-dasharray:none"
       id="rect3789-0"
       width="96.428574"
       height="24.285715"
       x="340.35715"
       y="434.07645" />
    <text
       xml:space="preserve"
       style="font-size:18.77120209px;font-style:normal;font-weight:normal;line-height:125%;letter-spacing:0px;word-spacing:0px;fill:#000000;fill-opacity:1;stroke:none;font-family:Sans"
       x="357.66528"
       y="452.93771"
       id="text3793-9"
       sodipodi:linespacing="125%"><tspan
         sodipodi:role="line"
         id="tspan3795-4"
         x="357.66528"
         y="452.93771">Leave</tspan></text>
    <rect
       style="fill:none;stroke:#4d4d4d;stroke-width:5.00437832;stroke-linecap:round;stroke-linejoin:round;stroke-miterlimit:4;stroke-dasharray:none"
       id="rect3883"
       width="237.85275"
       height="52.138477"
       x="70.573616"
       y="225.07863" />
    <rect
       style="fill:none;stroke:#4d4d4d;stroke-width:5;stroke-linecap:round;stroke-linejoin:round;stroke-miterlimit:4;stroke-dasharray:none"
       id="rect3885"
       width="50"
       height="47.142857"
       x="73.571426"
       y="227.36218" />
    <text
       xml:space="preserve"
       style="font-size:19.35982895px;font-style:normal;font-weight:normal;line-height:125%;letter-spacing:0px;word-spacing:0px;fill:#000000;fill-opacity:1;stroke:none;font-family:Sans"
       x="129.44949"
       y="247.58755"
       id="text3887"
       sodipodi:linespacing="125%"><tspan
         sodipodi:role="line"
         id="tspan3889"
         x="129.44949"
         y="247.58755">Playername</tspan></text>
    <path
       style="fill:none;stroke:#000000;stroke-width:1px;stroke-linecap:butt;stroke-linejoin:miter;stroke-opacity:1"
       d="m 80.714286,263.93361 c 0.952381,-0.47619 2.380952,-2.38095 2.857143,-1.42857 0.47619,0.95238 -3.610066,2.18149 -2.857143,1.42857 0.981692,-0.98169 2.487331,-1.27558 3.571428,-2.14286 0.185922,-0.14873 -0.168358,-0.54592 0,-0.71428 0.168359,-0.16836 0.545927,0.16836 0.714286,0 0.168359,-0.16836 -0.168359,-0.54593 0,-0.71429 0.168359,-0.16836 0.545927,0.16836 0.714286,0 0.02297,-0.023 0,-1.96962 0,-2.14286 0,-0.23809 0,-0.47619 0,-0.71428 0,-0.2381 0.106479,-0.50133 0,-0.71429 -0.150585,-0.30117 -0.563701,-0.41311 -0.714286,-0.71428 -0.106479,-0.21296 0.168359,-0.54593 0,-0.71429 -0.168359,-0.16836 -0.545927,0.16836 -0.714286,0 -0.168358,-0.16836 0.168359,-0.54593 0,-0.71428 -0.168358,-0.16836 -0.545927,0.16835 -0.714285,0 -0.168359,-0.16836 0.168358,-0.54593 0,-0.71429 -0.336718,-0.33672 -1.428572,0.47619 -1.428572,0 0,-0.23809 0.476191,0 0.714286,0 0.262312,0 2.828399,0.0287 2.857143,0 0.168359,-0.16836 -0.168359,-0.54593 0,-0.71429 0.168359,-0.16835 0.545927,0.16836 0.714286,0 0.168358,-0.16835 0,-0.47619 0,-0.71428 0,-1.19048 0,-2.38095 0,-3.57143 0,-0.23809 0.168358,-0.54593 0,-0.71429 -0.168359,-0.16835 -0.545927,0.16836 -0.714286,0 -0.336718,-0.33671 0.212959,-1.00265 0,-1.42857 -0.150585,-0.30117 -0.476191,-0.47619 -0.714286,-0.71428 -0.238095,-0.2381 -0.413116,-0.5637 -0.714286,-0.71429 -0.212958,-0.10648 -0.545927,0.16836 -0.714285,0 -0.357143,-0.35714 0.357143,-1.78571 0,-2.14286 -0.168359,-0.16835 -0.545927,0.16836 -0.714286,0 -0.168359,-0.16835 -0.168359,-0.54592 0,-0.71428 0.168359,-0.16836 0.47619,0 0.714286,0 0.173233,0 2.119885,-0.023 2.142857,0 0.168359,0.16836 -0.168359,0.54593 0,0.71428 0.168359,0.16836 0.501327,-0.10647 0.714286,0 0.301169,0.15059 0.413116,0.56371 0.714285,0.71429 0.14652,0.0733 2.042125,0.10073 2.142857,0 0.168359,-0.16836 0,-0.47619 0,-0.71429 0,-0.49681 -0.129154,-3.31311 0,-3.57142 0.150585,-0.30117 0.413117,-0.56371 0.714286,-0.71429 0.187815,-0.0939 2.483628,0 2.857143,0 1.904762,0 3.809524,0 5.714286,0 0.50785,0 2.142861,-0.30003 2.142861,0.71429 0,0.23809 -0.50133,-0.10648 -0.71429,0 -2.972686,1.48634 0.7636,-0.0493 -0.714286,1.42857 -0.168358,0.16836 -0.545927,-0.16836 -0.714285,0 -0.168359,0.16836 0.168358,0.54592 0,0.71428 -0.168359,0.16836 -0.545927,-0.16836 -0.714286,0 -0.100733,0.10074 -0.07326,1.99634 0,2.14286 0.789662,1.57933 0.443316,0.22166 1.428571,0.71429 0.30117,0.15058 0.413117,0.5637 0.714286,0.71428 0.21296,0.10648 0.50133,-0.10648 0.71429,0 0.30117,0.15059 0.41311,0.5637 0.71428,0.71429 0.21296,0.10648 0.54593,-0.16836 0.71429,0 0.16836,0.16836 0.16836,0.54592 0,0.71428 -0.16836,0.16836 -0.54593,-0.16836 -0.71429,0 -0.16836,0.16836 0.16836,0.54593 0,0.71429 -0.35714,0.35714 -1.785713,-0.35714 -2.142856,0 -0.238446,0.23844 0.238446,1.19012 0,1.42857 -0.168358,0.16836 -0.501326,-0.10648 -0.714285,0 -0.946104,0.47305 -0.482468,0.95552 -1.428572,1.42857 -0.10989,0.0549 -2.454212,-0.31135 -1.428571,0.71429 0.168359,0.16836 0.545927,-0.16836 0.714286,0 0.168358,0.16836 -0.168359,0.54592 0,0.71428 0.336717,0.33672 1.091853,-0.33671 1.428571,0 0.168359,0.16836 -0.168359,0.54593 0,0.71429 0.168359,0.16836 0.545927,-0.16836 0.714286,0 0.168358,0.16836 -0.168359,0.54593 0,0.71428 0.146026,0.14603 1.859651,-0.1416 2.142861,0 0.30117,0.15059 0.41311,0.56371 0.71428,0.71429 0.0609,0.0305 2.79625,0.0305 2.85714,0 0.30117,-0.15058 0.41312,-0.5637 0.71429,-0.71429 0.21296,-0.10647 0.54593,0.16836 0.71429,0 0.16835,-0.16835 -0.16836,-0.54592 0,-0.71428 0.16835,-0.16836 0.54592,0.16836 0.71428,0 0.16836,-0.16836 -0.16836,-0.54593 0,-0.71429 0.33672,-0.33671 1.09186,0.33672 1.42857,0 0.16836,-0.16836 0,-0.47619 0,-0.71428 0,-0.2381 0,-0.47619 0,-0.71429 0,-1.42857 0,-2.85714 0,-4.28571 0,-0.2381 0.16836,-0.54593 0,-0.71429 -0.33671,-0.33672 -1.09185,0.33672 -1.42857,0 -0.16836,-0.16836 0.16836,-0.54593 0,-0.71428 -0.16836,-0.16836 -0.54593,0.16835 -0.71428,0 -0.35715,-0.35715 0.35714,-1.78572 0,-2.14286 -0.33672,-0.33672 -1.09186,0.33672 -1.42858,0 -0.16835,-0.16836 -0.16835,-0.54593 0,-0.71429 0.16836,-0.16836 0.47619,0 0.71429,0 1.67513,0 -0.33672,-0.16836 1.42857,0.71429 0.42592,0.21296 1.09186,-0.33672 1.42857,0 0.16836,0.16836 -0.16836,0.54593 0,0.71428 0.35715,0.35715 1.78572,-0.35714 2.14286,0 0.16836,0.16836 -0.10648,0.50133 0,0.71429 0.15058,0.30117 0.5637,0.41312 0.71429,0.71429 0.22447,0.44894 -0.22448,2.40819 0,2.85714 0.15058,0.30117 0.5637,0.41312 0.71428,0.71428 0.19375,0.3875 -0.19544,2.6617 0,2.85715 0.16836,0.16836 0.54593,-0.16836 0.71429,0 0.16836,0.16836 0,0.47619 0,0.71428 0,0.2381 0,0.47619 0,0.71429 0,1.19048 0,2.38095 0,3.57143 0,0.23809 0.16836,0.54592 0,0.71428 -0.16836,0.16836 -0.54593,-0.16836 -0.71429,0 -0.16836,0.16836 0.16836,0.54593 0,0.71429 -0.17188,0.17188 -2.68526,-0.17188 -2.85714,0 -0.16836,0.16836 0.16836,0.54593 0,0.71428 -0.35714,0.35715 -1.78572,-0.35714 -2.14286,0 -0.16836,0.16836 0.16836,0.54593 0,0.71429 -0.16836,0.16836 -0.54593,-0.16836 -0.71428,0 -0.16836,0.16836 0.16835,0.54593 0,0.71429 -0.16836,0.16835 -0.54593,-0.16836 -0.71429,0 -0.95238,0.95238 1.19048,0.71428 -0.71429,0.71428 -0.23809,0 -0.47619,0 -0.71428,0 -0.2381,0 -0.50133,-0.10648 -0.71429,0 -0.30117,0.15059 -0.41311,0.5637 -0.71428,0.71429 -0.28321,0.1416 -1.99683,-0.14603 -2.14286,0 -0.168359,0.16836 -0.168359,0.54592 0,0.71428 0.16836,0.16836 0.54593,-0.16836 0.71429,0 0.16835,0.16836 -0.16836,0.54593 0,0.71429 0.16835,0.16836 0.54592,-0.16836 0.71428,0 0.16836,0.16836 -0.16836,0.54593 0,0.71428 0.16836,0.16836 0.54593,-0.16835 0.71429,0 0.16836,0.16836 -0.16836,0.54593 0,0.71429 0.17188,0.17188 2.68526,-0.17188 2.85714,0 0.16836,0.16836 -0.16836,0.54593 0,0.71429 0.33672,0.33671 0.97682,-0.15059 1.42857,0 0.50508,0.16835 0.9235,0.54592 1.42857,0.71428 0.39381,0.13127 2.70443,-0.15271 2.85715,0 0.16835,0.16836 -0.16836,0.54593 0,0.71429 0.35714,0.35714 1.78571,-0.35715 2.14285,0 0.16836,0.16836 -0.16836,0.54592 0,0.71428 0.33672,0.33672 1.42857,-0.47619 1.42857,0 0,0.2381 -0.47619,0 -0.71428,0 -0.47619,0 -0.95238,0 -1.42857,0 -1.90476,0 0.23809,-0.23809 -0.71429,0.71429 -0.16836,0.16836 -0.47619,0 -0.71428,0 -1.66667,0 -3.33334,0 -5,0 -4.52381,0 -9.047623,0 -13.571433,0 -0.173233,0 -2.119886,-0.023 -2.142857,0 -0.168359,0.16836 0.168359,0.54593 0,0.71428 -0.02874,0.0288 -2.594831,0 -2.857143,0 -0.238095,0 -0.545927,-0.16835 -0.714285,0 -0.168359,0.16836 0.168358,0.54593 0,0.71429 -0.168359,0.16836 -0.545927,0.16836 -0.714286,0 -0.168359,-0.16836 0.168359,-0.54593 0,-0.71429 -0.357143,-0.35714 -1.785714,0.35715 -2.142857,0 -0.168359,-0.16835 0.168358,-0.54592 0,-0.71428 -0.336718,-0.33672 -1.183574,0.40833 -1.428572,0 -0.659677,-1.09946 -0.952381,-2.38095 -1.428571,-3.57143 z"
       id="path3891"
       inkscape:connector-curvature="0" />
    <rect
       style="fill:none;stroke:#4d4d4d;stroke-width:3;stroke-linecap:round;stroke-linejoin:round;stroke-miterlimit:4;stroke-dasharray:none"
       id="rect3895"
       width="13.571428"
       height="12.857142"
       x="268.57144"
       y="230.93361" />
    <rect
       style="fill:none;stroke:#4d4d4d;stroke-width:3;stroke-linecap:round;stroke-linejoin:round;stroke-miterlimit:4;stroke-dasharray:none"
       id="rect3895-8"
       width="13.571428"
       height="12.857142"
       x="287.5"
       y="230.93361" />
    <path
       style="fill:none;stroke:#000000;stroke-width:1px;stroke-linecap:butt;stroke-linejoin:miter;stroke-opacity:1"
       d="m 290.16632,233.63354 c 1.0775,0.80813 1.01015,0.33672 1.01015,1.01016 0,0.0842 -0.0595,0.19301 0,0.25253 0.0595,0.0595 0.19302,-0.0595 0.25254,0 0.0595,0.0595 -0.0595,0.19302 0,0.25254 0.0595,0.0595 0.19301,-0.0595 0.25254,0 0.0595,0.0595 -0.0595,0.19302 0,0.25254 0.11905,0.11905 0.38603,-0.11905 0.50507,0 0.11905,0.11905 -0.0753,0.35449 0,0.50508 0.52551,1.051 -0.0174,-0.26998 0.50508,0.25254 0.0595,0.0595 -0.0595,0.19301 0,0.25253 0.11905,0.11905 0.38603,-0.11904 0.50508,0 0.0595,0.0595 -0.0595,0.19302 0,0.25254 0.0595,0.0595 0.19301,-0.0595 0.25253,0 0.0595,0.0595 -0.0595,0.19302 0,0.25254 0.0595,0.0595 0.19302,-0.0595 0.25254,0 0.0595,0.0595 -0.0595,0.19301 0,0.25254 0.0595,0.0595 0.19302,-0.0595 0.25254,0 0.0595,0.0595 -0.0595,0.19301 0,0.25254 0.11905,0.11904 0.38603,-0.11905 0.50508,0 0.0595,0.0595 -0.0595,0.19301 0,0.25253 0.11904,0.11905 0.38603,-0.11904 0.50507,0 0.0595,0.0595 -0.0595,0.19302 0,0.25254 0.0595,0.0595 0.17725,-0.0376 0.25254,0 0.10648,0.0532 0.14606,0.1993 0.25254,0.25254 0.0753,0.0377 0.19301,-0.0595 0.25254,0 0.0595,0.0595 -0.0595,0.19301 0,0.25254 0.0595,0.0595 0.19301,-0.0595 0.25254,0 0.0595,0.0595 -0.0595,0.19301 0,0.25254 0.0595,0.0595 0.19301,-0.0595 0.25253,0 0.0595,0.0595 -0.0595,0.19301 0,0.25253 0.0595,0.0595 0.19302,-0.0595 0.25254,0 0.0595,0.0595 -0.0595,0.19302 0,0.25254 0.0595,0.0595 0.19302,-0.0595 0.25254,0 0.0842,0.0842 -0.0842,0.42087 0,0.50508 0.0595,0.0595 0.17725,-0.0376 0.25254,0 0.10648,0.0532 0.14606,0.1993 0.25254,0.25254 0.0753,0.0376 0.19301,-0.0595 0.25253,0 0.0595,0.0595 -0.0376,0.17724 0,0.25254 0.0532,0.10647 0.1993,0.14605 0.25254,0.25253 0.0753,0.15059 -0.0753,0.3545 0,0.50508 0.0532,0.10648 0.16836,0.16836 0.25254,0.25254"
       id="path3915"
       inkscape:connector-curvature="0" />
    <path
       style="fill:none;stroke:#000000;stroke-width:1px;stroke-linecap:butt;stroke-linejoin:miter;stroke-opacity:1"
       d="m 290.41886,240.95715 c 0.33671,-0.25254 0.64923,-0.54107 1.01015,-0.75761 0.14437,-0.0866 0.38603,0.11904 0.50508,0 0.0595,-0.0595 -0.0595,-0.19302 0,-0.25254 0.0595,-0.0595 0.17724,0.0376 0.25253,0 0.21296,-0.10648 0.29212,-0.3986 0.50508,-0.50508 0.0753,-0.0377 0.19301,0.0595 0.25254,0 0.0595,-0.0595 -0.0595,-0.19301 0,-0.25254 0.0595,-0.0595 0.17724,0.0377 0.25254,0 0.10648,-0.0532 0.14606,-0.1993 0.25253,-0.25254 0.0753,-0.0376 0.19302,0.0595 0.25254,0 0.0595,-0.0595 -0.0595,-0.19301 0,-0.25253 0.0595,-0.0595 0.19302,0.0595 0.25254,0 0.0595,-0.0595 -0.0595,-0.19302 0,-0.25254 0.0595,-0.0595 0.19302,0.0595 0.25254,0 0.0595,-0.0595 -0.0595,-0.19302 0,-0.25254 0.0595,-0.0595 0.19301,0.0595 0.25254,0 0.0595,-0.0595 -0.0595,-0.19301 0,-0.25254 0.0595,-0.0595 0.19301,0.0595 0.25254,0 0.0595,-0.0595 -0.0595,-0.19301 0,-0.25254 0.0595,-0.0595 0.19301,0.0595 0.25253,0 0.0595,-0.0595 -0.0595,-0.19301 0,-0.25253 0.0842,-0.0842 0.42086,0.0842 0.50508,0 0.0595,-0.0595 -0.0595,-0.19302 0,-0.25254 0.0595,-0.0595 0.19301,0.0595 0.25254,0 0.0595,-0.0595 -0.0595,-0.19302 0,-0.25254 0.0595,-0.0595 0.19301,0.0595 0.25254,0 0.0595,-0.0595 -0.0595,-0.19301 0,-0.25254 0.52251,-0.52251 -0.0204,0.79847 0.50507,-0.25254 0.0377,-0.0753 -0.0595,-0.19301 0,-0.25253 0.0595,-0.0595 0.19302,0.0595 0.25254,0 0.11905,-0.11905 -0.11905,-0.38603 0,-0.50508 0.0595,-0.0595 0.19301,0.0595 0.25254,0 0.0595,-0.0595 -0.0595,-0.19302 0,-0.25254 0.0595,-0.0595 0.19301,0.0595 0.25254,0 0.0595,-0.0595 -0.0595,-0.19301 0,-0.25254 0.0595,-0.0595 0.19301,0.0595 0.25253,0 0.0595,-0.0595 -0.0595,-0.19301 0,-0.25254 0.0595,-0.0595 0.19302,0.0595 0.25254,0 0.11905,-0.11904 -0.11904,-0.38602 0,-0.50507 0.0595,-0.0595 0.19302,0.0595 0.25254,0 0.0595,-0.0595 -0.0595,-0.19302 0,-0.25254 0.24912,-0.24912 0.50508,0.51747 0.50508,-0.25254"
       id="path3917"
       inkscape:connector-curvature="0" />
    <path
       style="fill:none;stroke:#000000;stroke-width:1px;stroke-linecap:butt;stroke-linejoin:miter;stroke-opacity:1"
       d="m 275.77165,234.13862 c -0.89148,-0.56655 -0.95214,-0.50508 -1.76777,-0.50508 -0.0842,0 -0.19302,-0.0595 -0.25254,0 -0.33672,0.33672 0.4209,0.25254 -0.25254,0.25254 -0.67343,0 0.0842,-0.0842 -0.25254,0.25254 -0.11904,0.11905 -0.38602,-0.11905 -0.50507,0 -0.0595,0.0595 0.0595,0.19301 0,0.25254 -0.0595,0.0595 -0.19302,-0.0595 -0.25254,0 -0.0595,0.0595 0.0595,0.19301 0,0.25254 -0.0595,0.0595 -0.19301,-0.0595 -0.25254,0 -0.0595,0.0595 0.0595,0.19301 0,0.25253 -0.0595,0.0595 -0.19301,-0.0595 -0.25254,0 -0.0595,0.0595 0.0595,0.19302 0,0.25254 -0.0595,0.0595 -0.19301,-0.0595 -0.25254,0 -0.11904,0.11905 0.11905,0.38603 0,0.50508 -0.0595,0.0595 -0.19301,-0.0595 -0.25253,0 -0.0102,0.0102 0,0.91741 0,1.01015 0,0.0842 -0.0595,0.19302 0,0.25254 0.11904,0.11905 0.38603,-0.11905 0.50507,0 0.11905,0.11905 -0.11904,0.38603 0,0.50508 0.11905,0.11904 0.38603,-0.11905 0.50508,0 0.0595,0.0595 -0.0595,0.19301 0,0.25253 0.0595,0.0595 0.19301,-0.0595 0.25254,0 0.0595,0.0595 -0.0595,0.19302 0,0.25254 0.0595,0.0595 0.17724,-0.0376 0.25254,0 0.10648,0.0532 0.14605,0.1993 0.25253,0.25254 0.0753,0.0377 0.19302,-0.0595 0.25254,0 0.0595,0.0595 -0.0595,0.19301 0,0.25254 0.0595,0.0595 0.19302,-0.0595 0.25254,0 0.0595,0.0595 -0.0595,0.19301 0,0.25254 0.0114,0.0114 1.14362,0 1.26269,0 0.0842,0 0.19302,-0.0595 0.25254,0 0.0595,0.0595 -0.0595,0.19301 0,0.25253 0.0595,0.0595 0.16836,0 0.25254,0 0.50507,0 1.01015,0 1.51523,0 0.58925,0 1.17851,0 1.76776,0 0.0842,0 0.19302,0.0595 0.25254,0 0.0595,-0.0595 -0.0595,-0.19301 0,-0.25253 0.0595,-0.0595 0.19302,0.0595 0.25254,0 0.12627,-0.12627 -0.12627,-0.63135 0,-0.75762 0.0595,-0.0595 0.19301,0.0595 0.25254,0 0.0114,-0.0114 0,-1.14362 0,-1.26269 0,-0.0842 0.0595,-0.19301 0,-0.25254 -0.0595,-0.0595 -0.19302,0.0595 -0.25254,0 -0.0595,-0.0595 0.0595,-0.19301 0,-0.25253 -0.11905,-0.11905 -0.38603,0.11904 -0.50508,0 -0.0595,-0.0595 0.0376,-0.17725 0,-0.25254 -0.0532,-0.10648 -0.1993,-0.14606 -0.25254,-0.25254 -0.0376,-0.0753 0.0595,-0.19302 0,-0.25254 -0.11904,-0.11905 -0.38602,0.11905 -0.50507,0 -0.0595,-0.0595 0.0595,-0.19301 0,-0.25254 -0.11905,-0.11905 -0.38603,0.11905 -0.50508,0 -0.0595,-0.0595 0.0595,-0.19301 0,-0.25254 -0.0595,-0.0595 -0.19301,0.0595 -0.25254,0 -0.0595,-0.0595 0.0595,-0.19301 0,-0.25253 -0.0595,-0.0595 -0.17267,0.0266 -0.25253,0 -0.43006,-0.14336 -0.8418,-0.33672 -1.26269,-0.50508 z"
       id="path3919"
       inkscape:connector-curvature="0" />
    <path
       style="fill:none;stroke:#000000;stroke-width:1px;stroke-linecap:butt;stroke-linejoin:miter;stroke-opacity:1"
       d="m 273.75134,238.93684 c 0,0.33672 0.33672,1.01016 0,1.01016 -0.33672,0 0.2381,-1.24825 0,-1.01016 -0.30351,0.30352 -0.18197,0.8393 -0.25254,1.2627 -0.0168,0.10092 0.0202,0.48491 0,0.50507 -0.0595,0.0595 -0.19301,-0.0595 -0.25254,0 -0.0253,0.0253 -0.0253,0.73236 0,0.75762 0.0595,0.0595 0.19302,0.0595 0.25254,0 0.0595,-0.0595 -0.0595,-0.19302 0,-0.25254 0.0595,-0.0595 0.19302,0.0595 0.25254,0 0.0595,-0.0595 -0.0595,-0.19302 0,-0.25254 0.11905,-0.11905 0.38603,0.11905 0.50508,0 0.0595,-0.0595 -0.0595,-0.19301 0,-0.25254 0.11904,-0.11905 0.38603,0.11905 0.50507,0 0.0595,-0.0595 -0.0595,-0.19301 0,-0.25254 0.0595,-0.0595 0.19302,0.0595 0.25254,0 0.0842,-0.0842 -0.0842,-0.42086 0,-0.50507 0.12627,-0.12627 0.63135,0.12627 0.75762,0 0.0595,-0.0595 -0.0595,-0.19302 0,-0.25254 0.0595,-0.0595 0.19301,0.0595 0.25253,0 0.0595,-0.0595 -0.0376,-0.17725 0,-0.25254 0.5255,-1.051 -0.0174,0.26997 0.50508,-0.25254 0.33672,-0.33671 -0.4209,-0.25254 0.25254,-0.25254"
       id="path3921"
       inkscape:connector-curvature="0" />
    <rect
       style="fill:none;stroke:#4d4d4d;stroke-width:2.3142283;stroke-linecap:round;stroke-linejoin:round;stroke-miterlimit:4;stroke-dasharray:none"
       id="rect3895-8-8"
       width="10.469128"
       height="9.9181213"
       x="290.61386"
       y="248.66963" />
    <rect
       style="fill:none;stroke:#4d4d4d;stroke-width:2.33111525;stroke-linecap:round;stroke-linejoin:round;stroke-miterlimit:4;stroke-dasharray:none"
       id="rect3895-8-8-2"
       width="10.545521"
       height="9.9904938"
       x="290.52902"
       y="261.9733" />
    <text
       xml:space="preserve"
       style="font-size:12.39526653px;font-style:normal;font-weight:normal;line-height:125%;letter-spacing:0px;word-spacing:0px;fill:#000000;fill-opacity:1;stroke:none;font-family:Sans"
       x="293.57138"
       y="258.11398"
       id="text3959"
       sodipodi:linespacing="125%"><tspan
         sodipodi:role="line"
         id="tspan3961"
         x="293.57138"
         y="258.11398">&gt;</tspan></text>
    <path
       style="fill:none;stroke:#000000;stroke-width:1px;stroke-linecap:butt;stroke-linejoin:miter;stroke-opacity:1"
       d="m 297.5,253.96932 -5.53571,0"
       id="path3984"
       inkscape:connector-curvature="0" />
    <text
       xml:space="preserve"
       style="font-size:12.39526653px;font-style:normal;font-weight:normal;line-height:125%;letter-spacing:0px;word-spacing:0px;fill:#000000;fill-opacity:1;stroke:none;font-family:Sans"
       x="-298.15234"
       y="271.59216"
       id="text3959-5"
       sodipodi:linespacing="125%"
       transform="scale(-1,1)"><tspan
         sodipodi:role="line"
         id="tspan3961-1"
         x="-298.15234"
         y="271.59216">&gt;</tspan></text>
    <path
       style="fill:none;stroke:#000000;stroke-width:1px;stroke-linecap:butt;stroke-linejoin:miter;stroke-opacity:1"
       d="m 294.22376,267.4475 5.53571,0"
       id="path3984-7"
       inkscape:connector-curvature="0" />
    <rect
       style="fill:none;stroke:#4d4d4d;stroke-width:5;stroke-linecap:round;stroke-linejoin:round;stroke-miterlimit:4;stroke-dasharray:none"
       id="rect3789-0-1"
       width="96.428574"
       height="24.285715"
       x="340.35715"
       y="326.64789" />
    <text
       xml:space="preserve"
       style="font-size:19.38254929px;font-style:normal;font-weight:normal;line-height:125%;letter-spacing:0px;word-spacing:0px;fill:#000000;fill-opacity:1;stroke:none;font-family:Sans"
       x="361.92282"
       y="345.46094"
       id="text4028"
       sodipodi:linespacing="125%"><tspan
         sodipodi:role="line"
         id="tspan4030"
         x="361.92282"
         y="345.46094">Invite</tspan></text>
  </g>
</svg>
