<?xml version="1.0" encoding="UTF-8" standalone="no"?>
<!-- Created with Inkscape (http://www.inkscape.org/) -->

<svg
   xmlns:dc="http://purl.org/dc/elements/1.1/"
   xmlns:cc="http://creativecommons.org/ns#"
   xmlns:rdf="http://www.w3.org/1999/02/22-rdf-syntax-ns#"
   xmlns:svg="http://www.w3.org/2000/svg"
   xmlns="http://www.w3.org/2000/svg"
   xmlns:sodipodi="http://sodipodi.sourceforge.net/DTD/sodipodi-0.dtd"
   xmlns:inkscape="http://www.inkscape.org/namespaces/inkscape"
   width="744.09448819"
   height="1052.3622047"
   id="svg2"
   version="1.1"
   inkscape:version="0.48.4 r9939"
   sodipodi:docname="speedpowerup.svg"
   inkscape:export-filename="/home/renmai/git/eduras/Eduras/src/de/illonis/eduras/images/gameobjects/healthpotion.png"
   inkscape:export-xdpi="2.4200001"
   inkscape:export-ydpi="2.4200001">
  <defs
     id="defs4" />
  <sodipodi:namedview
     id="base"
     pagecolor="#ffffff"
     bordercolor="#666666"
     borderopacity="1.0"
     inkscape:pageopacity="0"
     inkscape:pageshadow="2"
     inkscape:zoom="0.35"
     inkscape:cx="386.42858"
     inkscape:cy="742.85714"
     inkscape:document-units="px"
     inkscape:current-layer="layer1"
     showgrid="false"
     inkscape:window-width="1920"
     inkscape:window-height="1023"
     inkscape:window-x="1280"
     inkscape:window-y="22"
     inkscape:window-maximized="1" />
  <metadata
     id="metadata7">
    <rdf:RDF>
      <cc:Work
         rdf:about="">
        <dc:format>image/svg+xml</dc:format>
        <dc:type
           rdf:resource="http://purl.org/dc/dcmitype/StillImage" />
        <dc:title></dc:title>
      </cc:Work>
    </rdf:RDF>
  </metadata>
  <g
     inkscape:label="Layer 1"
     inkscape:groupmode="layer"
     id="layer1">
    <path
       sodipodi:type="arc"
       style="fill:#668000;fill-opacity:1;stroke:#00fb00;stroke-opacity:1"
       id="path2987"
       sodipodi:cx="392.85715"
       sodipodi:cy="549.50507"
       sodipodi:rx="375.71429"
       sodipodi:ry="500"
       d="m 768.57144,549.50507 a 375.71429,500 0 1 1 -751.428587,0 375.71429,500 0 1 1 751.428587,0 z"
       transform="matrix(0.92451237,0,0,0.75103733,-4.5747308,103.72793)"
       inkscape:export-filename="/home/renmai/git/eduras/Eduras/src/de/illonis/eduras/images/gameobjects/speedpowerup.png"
       inkscape:export-xdpi="2.4200001"
       inkscape:export-ydpi="2.4200001" />
    <path
       style="fill:#000080;fill-opacity:1;stroke:#00fb00;stroke-opacity:1"
       id="path3064"
       d="m 531.05176,315.72867 c -9.26233,-1.44171 -18.09374,-4.29475 -26.85201,-7.52609 -5.70026,-1.20308 -10.19618,-4.9558 -15.34377,-7.33786 -4.33338,-2.17162 -8.24435,-4.9523 -12.93268,-6.32306 -4.085,-2.14203 -8.5112,-3.24567 -12.78675,-4.91424 -4.42621,-1.17442 -8.80405,-2.63771 -13.00352,-4.49329 -4.96779,-1.36006 -9.74336,-3.39453 -14.75548,-4.57414 -5.71033,-0.9164 -11.36289,-1.1822 -16.98414,-2.56257 -5.26119,-0.8637 -10.24055,-2.68999 -15.49241,-3.63506 -5.53008,-0.83681 -11.13419,-0.90319 -16.71488,-0.96727 -5.70943,-0.0338 -11.41902,-0.009 -17.12848,0.002 -5.7162,0.011 -11.43241,0.0138 -17.14862,0.0155 -5.71448,0.001 -11.42896,0.001 -17.14344,9.4e-4 -7.45865,1.1839 -14.95684,1.95928 -22.49161,2.41655 -6.07643,0.26888 -11.92073,2.07 -17.97111,2.76155 -1.02437,0.0615 -2.07786,-0.0656 -3.07311,0.18461 -1.87138,0.47042 -3.44321,1.76135 -5.24991,2.43899 -3.23833,1.21459 -6.61073,1.81909 -10.0066,2.36898 -7.60065,0.56128 -14.9963,2.33297 -22.5711,3.15252 -6.95227,0.58925 -14.23645,0.88154 -20.77952,3.51171 -6.14413,1.24221 -12.09985,3.05207 -18.18586,4.55248 -4.34561,1.96417 -8.61088,3.66869 -12.61824,6.28696 -13.96579,6.69634 -6.00583,2.94755 32.12705,-18.64354 0.73656,-0.41705 -1.40912,0.93932 -2.09029,1.44176 -2.00886,1.48174 -3.94382,3.03619 -5.76666,4.73818 -2.92315,3.26892 -5.47684,6.84624 -8.47475,10.04587 -2.82626,3.23926 -3.82157,7.57391 -5.23024,11.55021 -1.55037,4.82825 -1.76727,9.91967 -1.95769,14.94615 -0.14503,5.67012 -0.11477,11.34289 -0.10544,17.01433 0.0126,5.72238 0.0194,11.44476 0.0232,17.16714 0.003,5.71546 0.003,11.43092 0.003,17.14637 -0.18808,5.36885 0.84643,10.6423 2.57403,15.69621 1.68814,4.22535 3.25207,8.5251 4.99973,12.73184 2.25859,4.97431 3.41971,10.34062 5.27022,15.45584 1.97876,4.97189 4.10404,9.88437 6.43196,14.70298 2.47102,3.42763 4.10914,7.35703 6.77711,10.64204 2.00965,3.97091 4.95872,6.89454 8.04703,9.98806 3.16813,2.94934 6.59854,5.44619 10.30999,7.67011 3.59244,2.77575 6.90112,5.88702 10.04144,9.1689 3.65685,2.99578 7.25986,6.20503 11.51829,8.31471 4.65655,2.89708 9.69194,4.79692 14.71279,6.92789 6.12596,2.42814 12.19501,5.00628 18.23405,7.64738 6.90865,2.45327 14.07886,4.26228 20.81008,7.16128 8.46626,3.39944 17.19754,6.2546 25.44575,10.16746 8.25504,3.95396 17.31251,5.47969 26.10412,7.75746 1.2321,0.24546 2.50057,0.35097 3.69631,0.73638 1.33127,0.42908 5.27542,2.5008 6.65335,3.09207 3.39578,1.4571 6.93119,2.67746 10.42711,3.86583 7.46389,1.37923 14.50278,4.19546 21.32513,7.48391 3.98753,2.53272 8.70847,2.34832 13.09986,3.39709 0.83049,0.19834 6.61713,2.33937 7.54874,2.68008 7.65056,1.52452 14.42451,5.3309 21.87866,7.50797 4.24827,2.43179 9.12518,2.61652 13.72487,3.77454 2.88867,0.72726 5.65396,1.87879 8.49717,2.76731 8.4327,1.56471 16.02376,5.53691 24.28486,7.70639 7.59611,1.76373 15.16203,3.47574 22.91993,4.3578 5.27394,0.83026 9.98939,3.14948 14.98724,4.80362 4.0711,2.14571 7.92926,4.66569 11.19282,7.93297 3.72814,2.81749 5.78145,7.10736 8.74362,10.61001 2.64923,3.44071 4.47251,7.3924 6.68356,11.09926 2.30544,4.4558 4.27419,9.09249 6.30094,13.68453 2.34795,5.17441 4.85958,10.29064 6.99657,15.55737 1.72663,4.37536 3.04212,8.90281 4.66678,13.30993 2.06329,4.63021 2.83239,9.59923 3.30523,14.60094 0.9987,5.58538 2.0579,11.13902 2.64232,16.78828 0.50852,5.76467 0.55277,11.55565 0.59048,17.33835 0.39705,5.58068 -0.30979,10.86537 -2.19245,16.10858 -1.89331,4.36299 -4.21706,8.53875 -6.66085,12.61746 -2.31786,3.5435 -5.32767,6.50346 -8.11372,9.65772 -3.56945,4.3611 -7.60478,8.29592 -11.76433,12.08591 -3.4178,3.35244 -6.84818,6.66288 -10.76242,9.43572 -13.51267,10.61596 -1.48002,1.30436 -40.28552,23.79194 -1.49827,0.86823 -6.17672,3.12556 -4.68108,2.25282 11.36622,-6.63243 45.47929,-26.49422 34.27672,-19.58897 -12.61837,7.77795 -25.68412,14.80556 -38.52618,22.20833 -3.09632,1.75462 -6.70075,1.53233 -10.031,2.30076 -1.5173,0.3501 -2.93433,1.04606 -4.42145,1.50782 -5.14221,0.98901 -10.01802,2.74194 -15.19631,3.62802 -3.73953,0.88128 -7.67644,0.31999 -11.4363,0.85869 -1.60861,0.23048 -3.13732,0.84885 -4.70988,1.25849 -5.07709,1.21402 -10.3086,1.42367 -15.50343,1.59125 -0.9292,0.018 -1.86634,-0.0684 -2.78761,0.054 -1.68383,0.2238 -3.28661,0.88179 -4.96273,1.15738 -3.31662,0.54532 -6.68415,0.81312 -10.0291,1.10947 -6.34879,0.50622 -12.71971,0.58251 -19.08504,0.62581 -5.77231,0.0203 -11.54468,0.005 -17.31701,-0.002 -5.70773,-0.007 -11.41547,-0.008 -17.1232,-0.009 -5.71296,-7.2e-4 -11.42592,-5.9e-4 -17.13888,-5.5e-4 -5.71431,6e-5 -11.42861,1e-4 -17.14292,1.2e-4 -5.17982,0.18601 -10.07361,-1.55001 -14.76245,-3.52633 -4.97816,-1.82762 -9.84418,-4.05746 -14.54952,-6.51771 -5.66404,-2.75263 -11.37485,-5.43588 -16.92827,-8.41165 -5.72578,-2.63369 -11.13994,-5.88581 -17.06306,-8.07274 -4.38385,-2.34739 -8.91033,-4.56539 -13.01462,-7.37146 -3.78439,-3.05589 -8.48305,-4.04219 -12.76923,-6.0295 -4.64893,-1.6531 -8.27595,-4.96131 -12.01519,-8.0291 -4.37293,-3.37536 -7.79513,-7.73406 -11.75482,-11.53814 -3.28615,-3.20947 -6.03299,-6.78695 -8.54006,-10.63051 -1.69612,-4.00263 -3.41085,-7.89794 -5.63105,-11.64089 -2.35139,-4.22625 -2.82402,-9.07673 -4.17697,-13.64873 -1.23231,-5.1859 -3.56334,-9.99611 -5.35844,-14.9906 -1.78221,-4.44698 -3.51341,-8.18328 -6.54508,-11.86004 -2.13432,-3.70907 -4.25746,-7.37996 -6.6142,-10.9572 -2.12535,-2.41479 -4.11997,-4.93386 -6.51674,-7.09101 0,0 36.25367,-22.33158 36.25367,-22.33158 l 0,0 c 2.49134,2.49677 4.83012,5.13152 7.00308,7.91122 2.29197,3.44818 4.32672,7.01136 6.38606,10.58819 3.25976,4.00342 5.25025,8.41992 7.18977,13.19216 1.75612,5.07926 4.26832,9.8877 5.52996,15.13272 1.28234,4.2493 1.75857,8.70763 3.69096,12.72455 2.1897,3.68587 4.01318,7.47229 5.53225,11.47617 2.36674,3.58036 4.95579,6.90253 8.03749,9.90424 3.74812,3.84811 7.2532,7.96023 11.57031,11.20688 3.42822,2.88812 7.0671,5.46164 11.33319,6.9854 4.63705,1.75803 9.1063,3.72956 13.18906,6.59969 4.09332,2.38408 8.09655,4.94277 12.47722,6.78456 5.88492,2.54445 11.50853,5.6375 17.27707,8.43097 5.60933,2.83448 11.24252,5.62387 16.91317,8.33357 4.7364,2.24589 9.51987,4.39827 14.45554,6.17521 4.3943,1.68995 9.03876,2.46688 13.75532,2.24169 5.71431,-3e-5 11.42862,-8e-5 17.14293,-1.2e-4 5.71323,0 11.42647,-9e-5 17.1397,0.001 5.70854,0.002 11.41707,0.005 17.1256,0.0128 5.75833,0.007 11.51686,0.0247 17.27505,-0.0281 6.27546,-0.0872 12.55791,-0.2375 18.80388,-0.90187 6.01159,-0.69996 11.92648,-2.11207 17.99315,-2.19474 5.09111,-0.32866 10.15203,-0.91382 15.10517,-2.18919 5.34477,-0.97375 10.84162,-0.7559 16.1487,-2.03758 5.03676,-1.20562 10.0047,-2.68505 15.02659,-3.94844 4.69899,-1.30445 9.68243,-1.73859 13.84281,-4.5527 -115.06235,66.53622 88.71168,-51.06224 -25.30505,15.15495 -0.6777,0.39359 1.31993,-0.84532 1.9799,-1.26798 4.095,-3.6513 -0.49962,0.2197 3.94126,-2.84765 1.97013,-1.36079 3.42022,-3.0428 5.12211,-4.66271 0.58398,-0.55585 1.26731,-0.99695 1.90097,-1.49542 3.76638,-4.10757 8.41793,-7.31138 11.85365,-11.75701 2.67736,-3.24766 5.69802,-6.05869 8.20094,-9.40751 3.19761,-3.35186 4.52366,-7.79989 7.22009,-11.52193 1.86579,-4.85977 3.5937,-9.38909 2.89638,-14.74913 -0.0171,-5.66828 -0.0237,-11.34276 -0.41507,-17.0004 -0.48559,-5.67157 -1.39393,-11.26858 -2.69108,-16.81394 -0.33637,-4.62409 -0.85254,-9.24894 -2.79017,-13.52368 -1.70416,-4.35169 -2.86152,-8.93843 -4.60045,-13.28451 -2.02381,-5.25186 -4.51692,-10.33188 -6.88189,-15.43428 -1.95756,-4.43748 -3.97277,-8.86389 -6.14225,-13.1958 -2.07741,-3.54031 -3.82955,-7.28833 -6.3561,-10.55387 -2.73002,-3.46045 -4.88118,-7.41722 -8.43025,-10.15222 -3.04374,-2.67545 -6.4776,-4.94622 -10.25192,-6.45733 -4.65556,-1.80753 -9.35259,-3.45288 -14.33189,-4.15103 -7.82857,-1.18106 -15.5339,-2.97765 -23.20666,-4.91848 -8.13175,-2.51654 -15.92482,-6.01619 -24.28555,-7.80249 -7.43882,-2.24409 -15.14245,-3.47016 -22.33098,-6.51156 -7.34492,-2.49783 -14.35955,-5.84978 -21.95035,-7.62013 -6.9381,-2.33542 -14.38293,-2.86123 -20.91631,-6.37246 -6.83733,-2.98253 -13.73903,-5.57512 -21.03583,-7.20371 -6.86748,-2.49207 -13.44541,-5.84029 -20.59917,-7.40896 -8.92011,-2.41081 -18.05331,-4.22931 -26.38273,-8.41111 -8.36967,-3.57201 -16.93432,-6.66453 -25.42985,-9.91945 -6.96217,-2.43629 -13.98136,-4.70683 -20.90748,-7.24223 -6.09612,-2.51008 -12.11767,-5.19613 -18.27444,-7.55686 -5.21227,-2.06066 -10.20172,-4.5247 -15.06839,-7.30985 -4.34885,-2.68223 -8.41064,-5.87397 -12.16972,-9.3305 -3.01161,-2.97176 -6.0448,-5.94337 -9.55377,-8.33354 -3.80979,-2.55592 -7.49885,-5.20297 -10.76419,-8.45014 -3.26351,-3.16993 -6.15003,-6.45263 -8.37202,-10.44555 -2.71884,-3.62315 -4.68025,-7.68954 -7.18266,-11.45802 -2.35453,-4.95671 -4.53542,-9.99102 -6.581,-15.08141 -1.87107,-5.02944 -3.02961,-10.31628 -5.25056,-15.22736 -1.84056,-4.26813 -3.31091,-8.72696 -5.10535,-13.01164 -1.88872,-5.44954 -3.27129,-11.15696 -3.19367,-16.96208 2e-5,-5.71479 1.9e-4,-11.42957 -0.002,-17.14436 -0.003,-5.72081 -0.007,-11.44162 -0.0202,-17.16242 -0.012,-5.70929 -0.0414,-11.41902 0.0342,-17.128 0.11474,-5.33703 0.2304,-10.71886 1.38944,-15.95308 1.20568,-4.44868 2.87849,-8.77999 4.52117,-13.06272 2.61726,-3.53123 5.90169,-6.53 8.51676,-10.08482 1.65736,-2.47143 3.17544,-3.69436 5.46088,-5.51887 12.88164,-10.28366 28.09306,-17.24657 42.46274,-25.3931 4.25955,-2.1533 8.65453,-4.07533 13.26392,-5.35686 6.01042,-1.67586 12.1375,-2.81736 18.09527,-4.67979 6.96568,-1.4734 14.00026,-2.27164 21.09203,-2.8554 7.47892,-1.08121 14.9292,-2.35864 22.40661,-3.43285 6.24634,-1.55693 12.10027,-4.46253 18.59988,-4.8464 5.98629,-0.95852 11.90762,-2.42206 18.00996,-2.43878 7.61289,-0.59749 15.15897,-1.79243 22.77841,-2.26178 5.71413,-5e-5 11.42825,2e-5 17.14238,-0.002 5.71498,-0.003 11.42997,-0.008 17.14495,-0.0201 5.72741,-0.01 11.45556,-0.0359 17.18228,0.0711 5.74927,0.15891 11.52376,0.40207 17.17001,1.59228 5.20158,1.1856 10.30865,2.74539 15.56748,3.68835 5.65388,1.15926 11.49466,1.12177 17.0703,2.73673 5.04774,1.56037 10.10726,3.11677 15.06136,4.95048 4.32127,1.54133 8.63482,3.06738 13.00964,4.44258 4.21734,1.64378 8.60669,2.81184 12.68586,4.81827 4.61323,1.88574 8.77251,4.62745 13.26184,6.78351 4.81277,2.67877 9.49165,5.58794 14.88076,7.04515 8.52416,3.1759 17.25868,5.73412 26.35677,6.60956 0,0 -34.60188,24.55936 -34.60188,24.55936 z"
       inkscape:connector-curvature="0"
       inkscape:export-filename="/home/renmai/git/eduras/Eduras/src/de/illonis/eduras/images/gameobjects/speedpowerup.png"
       inkscape:export-xdpi="2.4200001"
       inkscape:export-ydpi="2.4200001" />
    <path
       style="fill:#000080;fill-opacity:1;stroke:#00fb00;stroke-opacity:1"
       id="path3122"
       d="m 205.31454,648.06515 c 2.48867,8.64203 5.7425,17.06798 9.35957,25.29741 1.79161,5.17997 4.12425,10.16347 5.60305,15.44804 0.9066,4.18887 3.62771,6.56071 6.44464,9.498 2.90993,3.4762 5.70322,7.11369 8.9934,10.24462 3.61435,2.85716 7.14286,5.85827 10.83286,8.62912 3.19268,3.05415 6.63792,5.75858 9.10852,9.46077 2.22586,3.35398 4.93353,6.30371 7.44714,9.42915 2.93101,4.12494 6.90537,7.27604 10.38165,10.89713 3.47765,3.02876 8.0854,4.59657 12.48573,5.8122 5.59441,0.94074 11.17181,1.37013 16.44913,3.58934 4.44046,1.82469 9.0338,3.5381 13.14069,6.04349 3.01671,2.74597 6.14687,5.61988 9.88151,7.33825 3.42278,2.58172 7.57411,3.72099 11.49046,5.34166 4.75022,1.48009 9.70885,2.48987 14.27715,4.48364 4.53765,1.82861 9.29363,2.62148 13.91889,4.17775 4.54176,0.83803 8.63182,2.88474 13.15715,3.81548 5.14171,0.81933 10.36501,0.84542 15.55841,0.90324 5.69393,0.0319 11.38799,0.007 17.08195,-0.004 7.17951,0.0404 14.35906,0.0246 21.53861,0.009 6.1626,-0.0145 12.32521,-0.0207 18.48783,-0.024 5.71994,-0.002 11.43989,-0.002 17.15984,-0.002 5.70764,9e-5 11.41527,1.9e-4 17.12291,2.4e-4 5.52231,-0.35211 11.24621,0.75308 16.64702,-0.58565 3.08518,-1.22771 6.53458,-0.9721 9.69599,-1.73485 1.46529,-0.35352 2.81687,-1.07639 4.24591,-1.55586 4.91994,-0.93195 8.88577,-4.01886 13.49134,-5.74979 2.33706,-2.34329 5.51746,-2.59328 8.40525,-3.69102 1.36507,-0.5189 2.59821,-1.34182 3.94785,-1.89962 -59.20568,42.17968 -40.0494,22.14939 -26.23725,14.1037 2.9478,-2.6221 6.30294,-4.98689 8.85891,-8.02543 12.57453,-12.89046 33.90986,-21.5522 47.11501,-29.05349 1.81422,-1.74772 4.31862,-2.10024 6.47013,-3.14326 2.12402,-1.0297 3.76599,-2.17921 6.06053,-2.94531 0.78224,-0.175 1.59384,-0.24987 2.34672,-0.525 0.67901,-0.24813 2.53654,-1.38821 1.90859,-1.03002 -11.59657,6.61482 -23.17742,13.25765 -34.81493,19.80019 -0.59322,0.3335 1.11924,-0.77457 1.67409,-1.16862 2.49069,-1.76885 0.8996,-0.75513 3.43697,-2.26158 3.56969,-2.28007 4.73592,-6.50533 6.21909,-10.25363 1.28308,-4.31563 2.60935,-8.65053 4.49652,-12.74585 1.93383,-3.70182 4.24781,-7.19551 6.32673,-10.82304 2.30693,-3.82606 3.99149,-7.66248 4.82329,-12.05931 1.1022,-4.82569 0.0315,-9.45897 -0.8053,-14.20491 -1.66358,-4.26577 -2.43882,-8.77785 -3.6939,-13.1543 -1.45692,-4.86239 -3.30395,-9.5789 -4.54535,-14.50502 -1.89747,-4.75069 -3.1698,-9.62475 -3.87851,-14.68302 -0.76945,-5.39314 -0.30806,-10.86798 -0.89286,-16.26572 -0.96011,-4.62878 -1.4946,-9.31341 -2.84348,-13.84894 -0.95685,-4.55538 -2.77922,-8.83343 -3.95631,-13.32577 -0.77731,-4.37496 -2.21817,-8.589 -4.00884,-12.64177 -2.28939,-3.26105 -3.85839,-6.94514 -6.38973,-10.0355 -2.39338,-3.10713 -4.99603,-6.15221 -7.93627,-8.76423 -3.50065,-1.89967 -6.20603,-4.89776 -9.80053,-6.62825 -3.36892,-2.63239 -7.50704,-3.78989 -11.40395,-5.41602 -4.55876,-1.24846 -9.14282,-1.73107 -13.68664,-3.05496 -4.8186,-0.98546 -9.5636,-1.46779 -14.29315,-2.8303 -4.83375,-1.29844 -9.8512,-1.50841 -14.82536,-1.68224 -4.80915,-1.40657 -9.70792,-2.20639 -14.69179,-2.61137 -4.79001,-0.68435 -9.9698,-1.47358 -14.49985,-3.28223 -4.40901,-1.5539 -8.925,-2.29286 -13.35517,-3.77375 -4.73236,-1.41055 -9.6916,-1.59732 -14.59161,-1.77088 -5.45769,0.45358 -10.57543,-0.64883 -15.86518,-1.7179 -5.10403,-0.92407 -10.30109,-1.05721 -15.47297,-1.1707 -4.87457,-1.03181 -9.61166,-2.0695 -14.28089,-3.76984 -4.46247,-0.93781 -8.4702,-3.00383 -12.93928,-3.94602 -4.18745,-1.89642 -8.57252,-2.99251 -12.84285,-4.65432 -4.39866,-1.53007 -8.72795,-3.81888 -12.54817,-6.5063 -3.80405,-2.47174 -8.058,-4.17375 -11.87653,-6.58927 -2.81653,-3.19009 -6.60313,-4.93864 -10.32494,-6.8198 -3.3569,-2.6672 -7.30955,-4.2584 -10.61092,-7.00977 -3.63132,-1.95014 -6.83577,-4.48777 -10.20974,-6.83481 -3.7699,-1.6503 -6.57756,-4.75944 -10.26662,-6.53319 -3.30001,-2.59635 -6.99752,-4.57388 -10.37716,-7.02399 -3.56859,-2.16482 -7.53075,-3.63405 -11.06996,-5.8297 -0.6121,-0.3142 -1.25893,-0.56836 -1.83628,-0.94259 -2.96058,-1.91903 -0.65026,-0.93865 -3.4976,-2.53116 -1.83766,-1.0278 -3.81451,-1.4784 -5.67939,-2.49025 -4.02805,-1.55295 -7.6526,-3.74659 -11.88302,-4.76143 -3.95944,-1.90703 -8.00291,-3.81778 -11.64491,-6.28577 -3.94069,-1.62356 -7.3017,-4.11283 -10.81842,-6.45905 -2.94696,-2.98775 -6.78656,-4.70515 -9.9373,-7.45071 -3.66623,-2.30247 -6.14664,-5.6823 -8.79507,-8.99199 -2.94522,-3.3057 -4.72434,-7.14972 -6.66656,-11.06763 -1.79602,-4.17531 -3.29897,-8.49423 -4.75186,-12.80789 -1.68341,-3.62976 -3.71133,-7.13165 -5.92523,-10.46706 -2.21054,-3.90202 -4.46146,-7.75535 -5.89323,-12.02327 -1.23242,-4.64871 -2.82269,-9.13626 -3.67065,-13.88536 -0.58761,-4.8439 -2.09858,-9.48487 -2.87976,-14.30201 -0.30311,-4.75036 0.47361,-9.58692 1.90349,-14.11513 1.36537,-4.41405 3.36494,-8.59423 5.23181,-12.81435 1.71974,-4.40826 4.72474,-8.08109 7.05768,-12.14521 2.10067,-3.65333 4.87457,-6.78726 7.55319,-10.00654 2.74501,-2.97751 5.72517,-5.72403 8.47842,-8.69181 2.5968,-3.17521 6.272,-5.0998 9.03869,-8.0557 12.30566,-12.06852 -4.43026,4.09756 39.78519,-23.65931 11.28901,-7.08684 -46.18974,26.62932 -34.67604,19.9137 62.39128,-36.39108 23.35835,-14.31983 42.56906,-23.74567 4.97763,-1.29847 9.68955,-3.29263 14.64541,-4.6432 3.338,-0.64185 1.65006,-0.36822 5.06444,-0.81696 0,0 -33.94263,25.5895 -33.94263,25.5895 l 0,0 c -3.21354,0.73532 -1.62997,0.31757 -4.75168,1.2496 -4.77905,1.68807 -9.72818,2.87731 -14.31519,5.06992 -1.40525,0.59896 -5.45846,2.73741 -4.13788,1.96958 11.51342,-6.69426 46.18447,-26.54928 34.57801,-20.01768 -128.34983,72.22954 24.41465,-12.25688 -5.47231,2.81563 -4.27452,3.91237 1.40898,-1.49169 -2.71318,3.15222 -1.84054,2.07351 -5.00798,2.31566 -6.26384,5.05357 -3.1802,2.45158 -5.75598,5.68106 -8.53966,8.54313 -3.13598,2.51175 -5.70551,5.91213 -7.8996,9.23977 -2.81052,3.53509 -4.71988,7.76707 -7.45497,11.3929 -1.65433,4.24978 -3.75131,8.30615 -5.30461,12.54473 -1.47624,4.00863 -2.45219,8.01881 -2.84888,12.31149 0.67196,4.8303 2.22599,9.43219 2.85537,14.24858 0.69117,4.59041 2.23573,8.86406 3.40252,13.32718 1.18648,3.95269 3.36897,7.42546 5.35458,11.01463 2.36607,3.68261 4.63604,7.45586 6.44847,11.44497 1.3218,4.1439 2.86566,8.2279 4.46614,12.25981 1.82827,3.65078 3.41942,7.24898 6.24071,10.31081 2.41472,3.11892 4.98392,5.97338 8.30655,8.19212 3.22629,2.41971 6.74679,4.43245 9.74487,7.15283 3.40947,2.39765 7.06648,4.2915 10.71122,6.29702 3.56829,1.97841 7.06132,4.16802 10.99424,5.36079 4.22345,1.48071 8.18927,3.57983 12.2994,5.34186 3.94068,1.71795 7.49285,3.92132 11.14796,6.16049 3.82259,1.90782 7.64928,3.84064 11.26467,6.12139 3.45224,2.15753 6.70313,4.57942 10.17028,6.71438 3.57047,2.22434 6.84934,4.89698 10.54062,6.94542 3.32929,2.47935 6.88181,4.58524 10.28486,6.95079 3.30386,2.30326 6.90211,4.12853 10.21735,6.41604 3.67207,2.05339 7.34258,4.01792 10.40804,6.95863 4.05883,2.13695 8.08334,4.34565 11.96558,6.79211 3.8311,2.28981 7.8217,4.35901 12.07846,5.74051 4.12223,1.57515 8.41189,2.68908 12.54203,4.24651 4.42268,1.30286 8.6984,3.05058 13.15885,4.24156 4.34474,1.44573 8.93439,2.29737 13.48196,2.75304 5.33901,0.2217 10.68649,0.57424 15.9211,1.72093 5.12668,1.02536 10.24804,1.16737 15.4713,1.23134 5.17565,0.34729 10.35392,0.90553 15.27835,2.64488 4.42449,1.3787 9.05661,2.01098 13.36698,3.78981 4.59025,1.12636 9.20501,2.30623 13.94221,2.56143 4.89454,0.61124 9.6588,1.84523 14.54609,2.43646 5.19489,0.33326 10.38068,0.88561 15.38856,2.38956 4.72764,1.17004 9.6491,1.34724 14.30981,2.85244 4.67142,1.20737 9.59535,1.43724 14.02497,3.51915 3.99672,1.74354 8.15372,3.11393 11.66828,5.79747 3.60201,2.27591 6.90402,5.00684 10.36223,7.49471 2.95398,2.91458 5.80961,5.97052 8.26891,9.31629 2.61791,3.46083 4.53397,7.33074 6.90324,10.95732 1.88892,4.26278 3.56285,8.68078 4.33973,13.29559 1.05118,4.465 2.99845,8.62207 3.86371,13.13651 1.4603,4.74504 2.11921,9.58157 3.12473,14.44094 0.90265,5.38928 0.27578,10.89032 0.91038,16.32259 0.55641,4.93841 1.69074,9.68707 3.64422,14.27732 1.11719,4.88028 3.03552,9.46566 4.4736,14.25008 1.44899,4.49734 1.96284,9.27682 3.92939,13.63739 0.86613,5.1312 2.34717,10.17061 1.41694,15.41895 -0.53182,4.6408 -1.20594,9.40873 -4.25079,13.15242 -1.414,3.68239 -3.91748,7.70059 -6.33971,10.79638 -1.84066,3.99639 -3.80993,7.99533 -4.70129,12.33652 -0.62998,2.2195 -1.62501,4.06156 -2.42343,6.18087 -0.83253,2.20987 -1.00051,4.62238 -2.7409,6.43617 -1.52653,1.38114 -3.29347,2.50366 -5.06867,3.54607 -21.50569,12.62844 -26.44191,17.92067 -42.46479,23.69547 -4.12645,2.08235 -8.27645,4.0916 -12.37502,6.22947 62.4518,-36.26046 37.98708,-23.50446 25.41183,-13.88519 -3.66688,3.62103 0.87123,-1.07695 -2.57698,3.26956 -1.73722,2.18979 -4.8677,2.7359 -5.94909,5.58349 -3.23985,2.73972 0.12462,0.15684 -3.49143,2.18204 -2.9054,1.62718 -0.48735,0.6089 -3.13268,2.71405 -12.06605,9.60217 -52.97782,-22.89229 -40.13631,23.00431 -4.13776,1.81092 -8.37455,3.32818 -12.30448,5.60054 -4.44175,2.22391 -8.94949,4.21535 -13.80829,5.37737 -4.68045,1.2915 -9.56912,1.78532 -14.32933,2.72421 -5.6477,0.20711 -11.30169,0.0484 -16.95225,0.0979 -5.70784,4e-5 -11.41568,1.3e-4 -17.12352,1.6e-4 -5.71786,-4e-5 -11.43572,2e-5 -17.15357,-0.002 -6.14121,-0.003 -12.28241,-0.01 -18.42361,-0.0208 -7.20106,-0.0104 -14.40217,-0.0193 -21.60303,0.0455 -5.71376,0.0102 -11.42822,0.0383 -17.14136,-0.0634 -5.41337,-0.14767 -10.8738,-0.32389 -16.15505,-1.64143 -4.47453,-1.27679 -8.81717,-2.96611 -13.34368,-4.076 -4.6627,-1.49419 -9.54994,-2.25693 -14.01247,-4.3733 -4.78332,-1.56893 -9.68905,-2.77223 -14.39349,-4.56816 -4.00531,-1.72485 -8.17431,-3.06338 -11.73043,-5.68645 -3.51188,-2.16139 -6.65385,-4.82634 -9.89004,-7.36707 -4.15687,-2.02325 -8.3227,-4.02686 -12.7082,-5.51762 -5.37839,-1.56487 -10.98509,-1.83478 -16.35058,-3.45044 -4.94592,-1.74181 -9.93881,-3.69098 -13.64709,-7.55006 -3.62657,-3.64634 -7.50299,-7.06992 -10.62465,-11.18465 -2.65136,-3.17487 -5.30464,-6.33155 -7.63496,-9.75629 -2.27386,-3.25476 -5.54601,-5.63 -8.40462,-8.34714 -3.71154,-3.01326 -7.5653,-5.86343 -11.11462,-9.06319 -3.1599,-3.29589 -6.06341,-6.82418 -9.01566,-10.30449 -3.32308,-3.38212 -6.31009,-6.64579 -7.51158,-11.39672 -1.27112,-5.14329 -3.61532,-9.91874 -5.16215,-14.97897 -3.52098,-8.39957 -6.60945,-16.97371 -9.5721,-25.58536 0,0 37.14993,-20.46009 37.14993,-20.46009 z"
       inkscape:connector-curvature="0"
       inkscape:export-filename="/home/renmai/git/eduras/Eduras/src/de/illonis/eduras/images/gameobjects/speedpowerup.png"
       inkscape:export-xdpi="2.4200001"
       inkscape:export-ydpi="2.4200001" />
    <path
       style="fill:#000080;fill-opacity:1;stroke:#00fb00;stroke-opacity:1"
       id="path3124"
       d="m 533.82589,302.65802 c -7.76155,-3.87824 -15.50157,-7.78325 -23.24164,-11.70412 -4.70316,-2.07709 -9.21843,-4.50831 -13.79041,-6.84626 -4.16591,-1.26827 -7.98081,-3.22989 -12.26958,-4.13016 -4.98292,-0.16717 -9.65379,-1.45459 -14.48399,-2.51358 -5.07187,-0.95427 -10.24678,-1.06265 -15.39097,-1.16762 -5.61449,-0.31955 -11.32268,0.53458 -16.84806,-0.60532 -4.86564,-1.32014 -9.86998,-1.79684 -14.88442,-2.07666 -4.64677,-1.76589 -9.73466,-1.7491 -14.38252,-3.34656 -4.48927,-1.91889 -9.46136,-1.59469 -14.0467,-2.99539 -4.62982,-0.85821 -8.91042,-2.64317 -13.41022,-3.93422 -4.80747,-0.46685 -9.31584,-1.87897 -13.98934,-2.98593 -5.03224,-1.00142 -10.18035,-1.10013 -15.29251,-1.20439 -5.66868,-0.0733 -11.33806,-0.0487 -17.00705,-0.039 -5.72082,0.0109 -11.44166,0.0151 -17.1625,0.0176 -5.7154,0.002 -11.4308,0.002 -17.14621,0.002 -5.52276,0.35222 -11.24718,-0.75329 -16.64844,0.58554 -4.73115,0.56055 -8.92875,2.52774 -13.4555,3.77913 -3.26668,1.07209 -6.80486,0.59454 -10.12538,1.18074 -1.53037,0.27017 -2.96916,0.91988 -4.46455,1.34277 -4.28006,1.00425 -8.1102,3.29224 -12.02336,5.22206 -0.70541,0.23671 -1.45172,0.37538 -2.11622,0.71015 -5.2571,2.6484 1.97122,-0.15028 -3.59035,2.16298 -2.16616,0.90099 -4.20173,1.11778 -6.27449,2.26464 -3.90635,1.73342 -8.26532,2.93639 -11.79433,5.38266 -13.71499,6.75874 -5.71679,2.86721 32.82483,-18.997 0.60048,-0.34065 -1.12309,0.80335 -1.69248,1.19372 -1.7486,1.19884 -3.30622,2.54179 -4.9671,3.86255 -13.52177,10.69141 -29.45965,17.39916 -44.1366,26.59301 -11.23965,7.04068 22.963,-13.27822 34.48005,-19.85534 0.59244,-0.33833 -1.13474,0.75774 -1.7021,1.1366 -3.27122,3.04921 -6.19831,6.37081 -9.77076,9.08743 -3.48783,2.64263 -6.6735,5.6311 -9.99112,8.47238 -2.86472,2.99225 -4.72001,6.71852 -7.92649,9.39211 -2.82557,2.76166 -5.45027,5.79229 -7.91591,8.8884 -2.08564,4.06985 -4.11492,8.17614 -6.25364,12.22711 -2.25761,3.89693 -4.72172,7.73318 -6.45083,11.90102 -1.80438,4.36557 -0.9708,8.62441 -0.27039,13.09514 0.83914,5.38708 1.04973,10.83956 1.19312,16.28086 0.7266,4.88712 1.79961,9.69506 2.35041,14.61411 0.30314,4.91104 1.79043,9.62437 2.55097,14.47457 0.73991,5.51092 0.81901,11.07938 0.88997,16.63041 0.0829,5.34841 -0.29733,10.68176 0.66616,15.96357 1.30158,3.95797 3.54785,7.46116 5.26303,11.22742 2.04375,3.72258 4.14943,7.44257 5.8524,11.33801 2.64911,3.77656 3.50252,8.2347 4.8567,12.53094 0.99139,4.15137 2.84589,7.77689 5.09612,11.34728 2.3987,3.12972 5.34501,5.73884 7.95152,8.67726 3.21091,2.81297 5.71871,6.50061 7.64382,10.29627 1.80132,3.58188 4.42263,6.54539 6.8743,9.66604 2.35878,3.52446 5.82339,4.69957 9.26536,6.70474 3.77991,2.21689 7.53169,4.40742 11.58548,6.15849 4.80125,1.22322 9.25046,3.32847 14.11581,4.33681 4.56526,1.75509 9.07739,3.6877 13.7856,5.03626 4.81011,1.37343 9.36249,3.14965 14.36195,3.86213 4.81124,0.74159 9.39932,2.29726 14.27569,2.8928 4.91944,0.71295 9.59071,2.31193 14.58474,2.82591 6.05396,0.78555 12.23707,-0.0538 18.22092,1.12828 4.9782,1.306 10.08404,1.80479 15.20547,2.08478 4.75189,1.20104 9.41047,2.24502 14.00003,3.93308 4.58366,0.81572 8.89556,2.38534 13.38677,3.55888 4.80737,2.03664 9.84669,3.16155 14.74047,4.94562 4.59684,0.96736 8.75462,3.05938 13.35874,4.01836 4.19879,1.88246 8.58692,2.97817 12.86209,4.64063 3.55021,2.54761 7.67602,3.91713 11.63646,5.66542 4.06013,1.50822 7.87951,3.59454 11.74917,5.54685 0.63917,0.23371 1.30663,0.40117 1.91752,0.70113 4.63907,2.27788 -0.57575,0.22347 3.82041,2.15482 2.03758,0.89516 4.06973,1.26855 6.08935,2.2476 4.5203,1.58402 9.10663,3.08927 13.77288,4.23207 4.50699,2.06061 9.23166,3.317 13.82498,5.12882 4.56129,0.88054 8.87958,2.42896 13.36847,3.59285 4.07948,1.66533 7.8585,3.97316 11.99275,5.48303 4.25073,1.21075 8.24827,3.17158 12.23758,5.0616 4.24867,1.19768 8.11202,3.19845 12.45295,4.12074 4.43849,1.67944 8.40783,3.85277 11.36997,7.61365 2.88933,3.04408 4.99964,6.63091 7.36422,10.05852 2.27529,3.64176 3.92707,7.62902 6.02844,11.36212 2.01154,3.75702 3.63366,7.72421 5.70833,11.44571 1.99219,4.03358 3.61108,8.28345 5.11481,12.53009 0.98239,4.66852 2.57542,9.16843 3.65669,13.81259 1.08929,5.381 1.23034,10.88485 1.34887,16.35488 0.45299,5.57862 -0.26264,10.85712 -2.14373,16.09877 -1.618,4.57178 -3.47718,9.09642 -5.72949,13.39524 -1.64467,4.03244 -3.90552,7.66899 -6.38199,11.22425 -2.52324,3.20903 -5.505,5.989 -8.25752,8.98776 -2.78425,3.05099 -5.99684,5.50696 -9.4425,7.76219 -3.66467,2.6437 -6.58453,6.07408 -10.31888,8.62267 -13.53572,10.08692 -5.0119,3.85025 -40.34713,23.50892 -0.71816,0.39954 -1.62162,0.31878 -2.38617,0.6202 -2.16889,0.85507 -3.97565,1.93542 -6.26577,2.59413 -4.03553,2.36899 -8.51036,4.15532 -13.02596,5.4228 -5.26011,2.56888 -11.00448,3.50457 -16.76935,4.06744 -5.4613,-0.26587 -10.52841,0.97737 -15.80445,2.05249 -4.84944,0.30982 -9.18848,2.34144 -13.95013,3.18252 -5.07526,0.009 -9.73687,1.44728 -14.62517,2.51204 -4.83752,0.35228 -9.17037,2.37115 -13.92837,3.20807 -5.30452,0.92526 -10.40798,0.87811 -15.62883,-0.29255 -4.64169,-0.81521 -9.33859,-2.09052 -13.50636,-4.33134 -3.73413,-2.02006 -7.2222,-4.45129 -10.90783,-6.58667 -4.06234,-1.40373 -7.82018,-3.34241 -12.05551,-4.24722 -5.13123,-0.82837 -10.34748,-0.83857 -15.53138,-0.88956 -4.939,-0.51248 -9.27888,-2.6789 -13.91318,-4.18628 -4.74471,-0.50471 -8.72764,-2.54396 -12.824,-4.79136 -3.81182,-1.8263 -7.4507,-3.97318 -11.19682,-5.95426 -4.0667,-1.29889 -7.07993,-4.4449 -10.89309,-6.22303 -3.6999,-2.11112 -6.73659,-5.04776 -10.05762,-7.65938 -2.71956,-2.8232 -6.03227,-5.29754 -9.66394,-6.82159 -3.81214,-1.98311 -6.92205,-4.87559 -10.29504,-7.46894 -3.0318,-2.74677 -5.7168,-5.86256 -8.79447,-8.55568 -2.85961,-3.13903 -6.12869,-5.78969 -8.47444,-9.362 -2.56604,-3.14478 -5.92573,-5.36135 -8.31867,-8.67809 -2.3738,-3.26063 -5.13102,-6.18938 -7.67577,-9.30799 -3.22544,-4.13131 -6.72713,-8.06835 -9.41982,-12.5764 -3.06845,-3.85181 -4.59018,-8.58675 -6.99865,-12.81709 -2.16154,-4.37766 -3.95101,-8.79534 -6.37718,-13.0439 -2.44094,-3.95035 -4.92068,-6.43628 -9.45009,-7.55696 -4.95239,-0.57043 -10.19934,-1.41721 -15.08615,-0.18737 -3.2475,0.67435 -6.14174,2.27088 -8.89226,4.02281 -0.68384,0.43557 -2.82064,1.60044 -2.11818,1.1956 11.38533,-6.56154 22.7779,-13.11048 34.16686,-19.66572 -4.47094,2.83133 -8.92574,5.53658 -11.66598,10.16788 -1.53607,4.56717 -2.70874,9.30995 -3.76696,14.02368 -0.83661,4.98115 -1.40154,10.09182 -1.00022,15.1403 1.11504,4.73302 1.42712,9.61588 2.41217,14.36311 0.9822,4.17652 2.40808,8.27336 4.37304,12.09196 1.76817,3.44352 4.78827,6.09385 7.46647,8.889 2.57146,3.05275 5.12727,6.19412 8.09031,8.88313 2.52758,3.21752 6.30793,4.91662 9.34351,7.58176 3.36078,2.21712 5.71299,5.60163 9.24602,7.55886 3.13643,2.72497 6.78358,4.67513 10.11299,7.09917 3.86913,1.67132 7.20927,4.12765 10.69926,6.44261 3.54576,3.16665 7.11957,6.35006 11.35878,8.5486 4.81434,2.44773 9.26028,5.50622 14.47322,7.05211 4.22706,1.69163 8.21737,3.93916 12.51541,5.43655 3.87582,2.16424 7.87976,3.89643 11.65254,6.26832 4.34462,1.96452 8.39321,4.39726 13.0462,5.58642 4.16549,2.0232 8.5995,3.11645 12.89973,4.78382 4.55054,0.83636 8.84673,2.37828 13.31651,3.53365 4.45153,1.26148 8.65573,2.9027 13.29455,3.55722 4.32786,2.16471 9.25956,2.14433 13.72539,3.7218 4.53373,1.72145 9.36152,2.10915 14.15668,2.38221 4.93305,1.27513 9.83937,2.39933 14.72363,3.82883 4.85953,1.49393 9.40211,3.4783 14.47367,4.28742 4.43474,1.97692 9.136,2.75632 13.93018,3.17623 5.47534,0.35533 10.96606,0.33376 16.45024,0.33853 5.81974,0.14309 10.45636,0.22853 16.11276,-1.19117 0.79178,-0.16344 1.61395,-0.21843 2.37532,-0.49033 1.3642,-0.48719 2.54509,-1.40609 3.90223,-1.91262 2.25168,-0.84042 4.5754,-1.19608 6.93873,-1.54617 2.65194,-1.73702 5.89624,-1.72775 8.79035,-2.65232 1.39414,-0.44538 2.65845,-1.23018 4.02471,-1.75488 4.42981,-1.12311 8.82684,-2.544 12.98518,-4.48568 3.28432,-1.70078 7.0501,-1.6438 10.53398,-2.51752 1.58443,-0.39737 3.0657,-1.13135 4.61856,-1.63827 0.79707,-0.19685 1.62664,-0.2914 2.39122,-0.59056 0.6856,-0.26825 1.27856,-0.7303 1.91785,-1.09545 0.67369,-0.29997 1.33112,-0.63954 2.02109,-0.89993 2.26284,-0.85399 4.60486,-1.20165 6.98301,-1.54686 4.68264,-1.68422 8.96755,-4.19436 13.50613,-6.20877 14.90803,-6.22003 42.23799,-23.16946 -22.22113,13.74129 14.16422,-8.99405 9.28836,-5.94383 40.70361,-23.37966 11.58167,-6.42797 -45.67062,26.84101 -34.47818,19.757 12.47212,-7.89397 25.64977,-14.61804 38.32058,-22.18897 11.42954,-6.82925 -23.02001,13.38639 -34.59636,19.96371 -0.61746,0.35082 1.13724,-0.8509 1.70586,-1.27635 13.42197,-9.71233 27.16738,-16.33974 42.61593,-24.81335 11.57805,-6.35062 -45.79662,26.32004 -34.38494,19.67511 37.69437,-21.94913 24.61648,-17.23325 40.79624,-22.87244 1.65974,-1.696 4.02683,-1.97134 6.0272,-2.96193 2.04643,-1.01341 3.57141,-2.13068 5.80181,-2.87398 12.63895,-8.9203 0.38858,-0.19576 -32.77296,18.64087 -0.70294,0.39929 1.32189,-0.93113 1.98811,-1.38908 1.89736,-1.3042 3.66667,-2.71527 5.49001,-4.12044 3.23293,-2.69358 6.10592,-5.7668 9.2055,-8.60098 2.91363,-2.48159 5.28236,-5.86899 8.47257,-8.00794 1.83999,2.49948 -6.36622,1.26125 -7.48127,1.24439 -4.82395,-0.20817 -9.26477,1.70836 -13.5747,3.58394 -4.17206,1.38357 -8.73957,2.44887 -12.45644,4.86051 -15.8668,5.25007 -36.82251,19.0416 24.48696,-15.78861 -3.5176,2.13362 -6.89058,4.48468 -10.24627,6.86472 -3.37414,2.17274 -6.50154,4.7737 -9.32751,7.6239 -1.02713,2.63793 -2.9371,-0.19302 -1.8742,-0.63935 0.40192,-0.16878 0.87099,-0.0384 1.30649,-0.0576 0.44499,-0.20563 0.88998,-0.41126 1.33497,-0.61689 3.83607,-1.18364 7.96204,-2.3924 11.31065,-4.67657 30.21572,-15.29583 -123.5334,69.05342 6.14597,-3.32453 11.52799,-6.43412 -22.8741,13.18918 -34.35187,19.71246 -0.46987,0.26705 1.6082,-1.0718 3.87722,-2.53848 0.70998,-0.29575 4.86947,-4.59975 5.81199,-3.7681 0.37223,0.32844 1.78509,3.96784 1.79626,3.99515 -0.38541,0.3473 -1.58974,1.44776 -1.87111,1.61029 -0.58256,0.33648 -1.24343,0.51409 -1.86514,0.77113 -0.68907,0.40819 -1.37814,0.81638 -2.06721,1.22457 -0.81617,0.36288 -3.22075,1.53751 -2.44852,1.08863 11.34677,-6.59565 22.78986,-13.0242 34.1848,-19.5363 -4.18251,2.1649 -7.70216,5.24544 -11.34879,8.16085 -3.70249,2.28501 -7.08155,5.01568 -10.58412,7.58896 -14.92217,8.9947 -30.4654,32.21722 -47.46059,25.67506 -1.10676,-1.75381 -2.23669,-2.84654 -1.81781,-5.17362 0.20223,-1.1235 3.53028,-2.91066 4.36711,-3.39625 12.76605,-7.40776 25.61002,-14.68043 38.41503,-22.02064 4.71053,-2.02734 9.3143,-4.42676 14.20718,-6.01001 12.71885,-7.29513 29.62387,-16.55245 -30.68003,17.6406 -0.61504,0.34873 1.1678,-0.79743 1.75709,-1.18809 2.40146,-1.59204 0.98796,-0.5021 3.23506,-2.42591 0.38519,-0.28396 0.73055,-0.63199 1.15558,-0.8519 0.19777,-0.10232 0.44141,-0.0591 0.66211,-0.0886 0.14115,0.24374 0.16466,0.84242 0.42345,0.73123 12.61617,-5.42016 25.00754,-11.3493 37.50948,-17.028 0.18752,-0.0852 -0.38592,0.34703 -0.5662,0.24742 -0.25968,-0.14347 -0.27531,-0.52562 -0.41297,-0.78843 -4.90753,-14.85483 -0.0274,-2.38388 -36.18618,17.05005 -0.55284,0.29713 1.11901,-0.57723 1.63269,-0.93785 1.87117,-1.31363 3.20448,-2.95664 4.50681,-4.80004 1.90454,-3.44887 4.10883,-6.82426 5.46693,-10.54089 0.63351,1.11873 1.90276,3.32707 2.08197,4.02979 0.0732,0.28684 -0.88042,0.77973 -0.62393,0.63195 77.11649,-44.43058 40.68351,-29.54086 33.32175,-18.19978 -2.27201,3.39934 -4.96018,6.45618 -7.5675,9.59327 -1.4965,1.38056 -3.09411,2.98409 -4.87022,4.02108 -12.72951,7.43211 -25.62917,14.57091 -38.33799,22.03835 -17.97931,10.56428 118.50409,-68.28662 -3.5614,2.1904 -3.96132,1.58617 -7.62094,3.79156 -11.45705,5.68666 11.57568,-6.65126 23.11653,-13.36352 34.72705,-19.95379 0.60066,-0.34094 -1.09191,0.85298 -1.68862,1.20078 -12.72645,7.41776 -25.42161,14.89271 -38.27322,22.09145 -1.89263,1.06015 -5.04117,1.05325 -7.13197,1.28914 -5.2237,-0.24134 -10.05181,1.03857 -15.09597,2.06312 -0.82231,0.12412 -1.6677,0.14248 -2.46692,0.37235 -1.42228,0.40908 -2.69453,1.24258 -4.10397,1.69391 -2.32223,0.74363 -4.69385,1.07194 -7.10117,1.38848 -4.56544,1.62848 -9.06405,3.45767 -13.75798,4.70573 -5.17911,0.58907 -9.88577,2.68637 -15.00564,3.59368 -3.27208,1.68151 -7.02936,1.7638 -10.48267,2.74614 -1.58889,0.45199 -3.06514,1.23556 -4.6215,1.78926 -11.98649,8.16401 -30.80563,17.39601 30.92849,-17.56381 0.60733,-0.34393 -1.1116,0.8444 -1.67324,1.25876 -3.12748,2.30737 -0.62508,0.37473 -3.6579,2.76406 -3.12283,3.31867 -7.04669,5.68047 -10.48475,8.63049 -25.89161,22.31041 -28.30292,24.56133 -49.19723,22.02126 -2.40793,-0.89191 -5.69063,0.36235 -8.02308,-0.71532 -0.29194,-0.13488 -0.92963,-0.5147 -0.66564,-0.69835 12.08506,-8.40755 24.52748,-16.28941 36.79122,-24.43411 3.9252,-1.93263 8.40804,-2.16807 12.70078,-2.48681 3.65228,-0.53654 7.44003,0.13668 11.08576,-0.31007 1.59587,-0.19556 3.11568,-0.79544 4.67509,-1.18694 4.73616,-0.57186 8.88107,-2.73899 13.55732,-3.64082 5.05305,-0.0589 9.69838,-1.50614 14.5692,-2.56873 4.97988,-0.17684 9.5331,-1.72574 14.32572,-2.82436 1.71163,-1.48905 4.05811,-1.68788 6.00573,-2.61938 2.02367,-0.96786 3.56172,-2.10216 5.75311,-2.83794 -1.38358,0.30629 4.79937,-2.86259 3.59033,-2.16252 -10.96038,6.34645 -43.98143,25.14116 -33.04475,18.75396 16.01463,-9.35282 81.62895,-47.06691 3.5668,-2.1594 3.41551,-2.14628 6.82136,-4.27119 9.28565,-7.51242 2.92582,-3.62307 7.05078,-6.02982 10.88545,-8.58426 13.15426,-10.51618 3.91737,-3.27164 40.01427,-23.75461 0.68992,-0.39149 1.55852,-0.34404 2.28696,-0.6581 2.12033,-0.91417 3.80738,-1.9916 6.07614,-2.66854 -1.37349,0.3446 4.93778,-2.77858 3.71175,-2.06912 -10.95524,6.33939 -43.98155,25.07713 -33.03011,18.73119 7.04614,-4.08296 89.86844,-51.6374 3.60728,-2.09963 3.74208,-2.02238 4.99569,-6.17579 6.52347,-9.88684 1.41106,-4.44432 -1.00008,-2.44053 -3.49253,-1.99095 -12.03549,9.0659 -30.47468,17.61765 29.54971,-16.40524 0.8427,-0.47765 -1.5443,1.18183 -2.39307,1.64862 -12.82015,5.05701 -25.51368,10.44758 -38.46044,15.17102 -0.61391,0.22398 0.71347,-1.10699 1.17622,-1.56841 1.81574,-1.81051 4.29836,-3.08455 6.29172,-4.6989 14.30444,-11.53437 30.04008,-18.5803 46.69842,-28.09174 -11.56688,6.62085 -23.13377,13.24171 -34.70066,19.86256 2.36951,-1.59204 3.17753,0.0174 1.26106,1.70698 -3.52902,1.23136 -7.36404,2.31714 -10.48726,4.45285 -1.87632,1.42093 -4.29583,1.42006 -6.39144,2.20422 -2.12177,0.79395 -3.92526,1.88444 -6.15322,2.52789 -4.99205,1.08038 -9.73727,2.88924 -14.44904,4.8085 1.53283,-0.50188 -6.14347,3.22453 -4.64271,2.35376 10.67581,-6.19435 42.90959,-24.41823 32.19333,-18.29412 -12.8654,7.3523 -25.60901,14.92463 -38.63067,21.99649 -11.64162,6.32238 22.99307,-13.16503 34.48961,-19.74755 -15.36648,11.59718 -31.0283,18.95161 -48.84635,28.86141 -5.12255,1.8663 -9.77925,4.51434 -14.53518,7.09709 87.53255,-50.36497 -0.68499,0.38242 -4.64883,2.71482 -11.32694,6.66499 22.75567,-13.15593 34.18217,-19.64876 0.72498,-0.41195 -1.35009,0.98415 -2.07136,1.40257 -12.82283,7.43872 -25.73903,14.71581 -38.55541,22.16565 -11.44882,6.65491 22.96848,-13.18724 34.45271,-19.78086 -13.59586,8.58842 -17.02852,10.7999 -40.47496,23.03807 -11.79169,6.15482 46.025,-26.686 34.65178,-19.78849 -48.13826,29.1944 -24.85257,14.85071 -41.94102,23.48751 12.03534,-7.88492 23.92886,-15.9907 36.10603,-23.65477 0.43175,-0.27173 1.03153,0.0755 1.53007,-0.0326 0.55379,-0.12016 1.04262,-0.44561 1.57453,-0.64102 2.16341,-0.79477 4.10565,-1.85088 6.23272,-2.75886 5.23383,-1.87415 10.31417,-4.02093 15.38927,-6.26267 4.31315,-1.56167 8.25742,-3.91688 12.3532,-5.95653 0.70885,-0.23839 1.45829,-0.3794 2.12654,-0.71516 1.24914,-0.62761 4.80732,-2.85593 3.59764,-2.15528 -56.17983,32.53959 -43.85173,26.01284 -31.43609,17.67595 3.03444,-2.87244 6.30573,-5.36235 9.6148,-7.88957 3.60957,-2.77896 6.96025,-5.85518 10.4167,-8.8139 3.20641,-2.68343 5.64104,-5.95871 7.98106,-9.39073 2.41617,-3.3285 4.64994,-6.58685 7.45917,-9.6015 9.8048,-13.69441 22.75073,-13.16046 40.76091,-25.73199 10.93284,-7.63139 -46.12321,26.7737 -34.64649,19.98768 6.1028,-3.60849 90.60396,-52.29672 3.53802,-2.10903 4.05285,-2.40824 4.66504,-6.79348 5.17174,-11.09977 0.43082,-5.56829 0.35395,-11.16037 0.33666,-16.74082 -0.028,-5.73364 -0.0464,-11.46731 -0.0566,-17.201 0.2337,-4.68713 -0.82209,-9.21221 -2.5491,-13.5283 -1.1309,-4.08146 -3.92252,-7.27771 -5.89414,-10.93117 -1.72408,-3.98724 -3.47249,-7.95651 -5.39307,-11.85371 -1.46099,-3.72086 -3.44826,-7.27236 -6.17449,-10.21002 -3.22738,-2.34253 -6.52818,-4.65054 -9.3922,-7.44424 -3.08924,-2.61403 -6.86158,-4.1429 -10.20911,-6.33624 -3.88693,-1.66272 -7.80907,-3.40105 -11.87583,-4.63527 -4.72745,-2.32371 -9.86392,-4.01703 -14.96258,-5.39885 -4.73814,-1.67281 -9.11916,-4.15969 -13.83481,-5.84758 -3.91804,-0.72055 -7.68428,-1.47465 -11.50218,-2.62083 0,0 35.10052,-24.03315 35.10052,-24.03315 l 0,0 c 3.90205,1.06607 7.97779,1.4222 11.74419,2.97444 4.46978,1.95867 8.88739,4.04166 13.5345,5.56965 5.12299,1.62354 10.22213,3.35627 15.15199,5.50104 4.20393,1.6039 8.51796,3.07224 12.39559,5.37902 3.74226,2.05523 7.4537,4.23776 10.6778,7.06256 3.12347,2.71651 6.56578,5.03103 9.62428,7.825 2.79972,3.35071 5.18987,7.07146 6.72388,11.17732 1.89407,3.85427 3.66724,7.75795 5.31982,11.71857 2.02901,3.78873 4.96729,7.10644 6.11445,11.34437 1.93939,4.77083 3.40682,9.79382 3.23308,15.00346 0.007,5.73083 0.02,11.46164 0.0511,17.19239 0.0269,5.69232 0.0971,11.38831 -0.1308,17.07761 -0.31065,4.97224 -0.58316,10.22883 -3.61049,14.40333 -131.84209,77.63572 23.84198,-14.14503 -3.45727,2.32277 -12.59582,7.5982 -25.04545,15.49508 -38.1298,22.21721 -11.86437,6.09535 22.97747,-13.55369 34.46417,-20.33399 1.11209,-0.65643 -4.61192,2.50273 -3.05003,2.38876 -1.2243,2.13325 -2.31144,2.89522 -4.0334,4.49575 -1.57476,1.46371 -1.10667,1.69845 -2.14973,3.60264 -0.33689,0.61502 -0.77945,1.16595 -1.16917,1.74893 -3.01955,2.97673 -4.33296,7.25508 -7.85132,9.74383 -2.94861,3.4918 -6.70676,6.35716 -10.29789,9.14292 -3.04759,2.92885 -6.66427,4.80432 -9.60353,7.82678 -1.64765,1.84463 -1.03343,1.44467 -3.13732,2.68485 -14.87476,8.76826 -28.51848,17.97349 -43.78683,25.19323 -4.01728,2.17613 -8.2808,3.8995 -12.47092,5.71329 -5.06976,2.25475 -10.35961,4.00111 -15.47498,6.15529 -2.28455,0.87739 -4.67264,1.82192 -7.18672,1.64035 -2.59304,-0.18727 -4.8013,-1.57757 -4.72235,-1.6463 10.56563,-9.19894 22.15832,-17.14706 33.23748,-25.72059 1.15995,-0.48566 4.48072,-2.28026 3.39292,-1.64934 -11.50562,6.67327 -46.33334,26.13226 -34.55028,19.96206 9.29914,-4.8695 87.66842,-50.66173 3.92195,-2.04292 -0.64783,0.37609 1.3181,-0.71209 1.97715,-1.06814 127.78029,-74.15489 -23.62951,13.91215 6.26067,-3.66864 12.80728,-7.53298 25.94103,-14.53317 38.44478,-22.5599 0.15923,-0.10221 -98.78153,57.26305 4.67247,-2.71612 4.7538,-2.64522 9.84372,-4.60727 14.88648,-6.62781 -62.61548,36.44078 -36.48295,23.33812 -24.26711,12.7007 127.99552,-73.82419 -23.74426,13.72955 6.27015,-3.5481 12.86721,-7.40694 25.70908,-14.85814 38.60651,-22.21232 1.42911,-0.81489 3.30272,-1.54432 4.81473,-2.17669 4.7605,-1.85121 9.75843,-3.01501 14.58423,-4.68214 4.093,-1.69427 8.32424,-3.0256 12.2104,-5.18707 3.85845,-1.37877 7.61521,-3.24455 11.83996,-2.85919 2.19999,0.91512 7.93194,5.54871 3.87021,7.96693 -12.64816,7.53027 -25.51699,14.68357 -38.27548,22.02536 81.82999,-47.49363 34.38627,-22.13304 26.16044,-14.11628 -6.89057,4.37529 3.52134,-2.40545 -3.157,2.5268 -13.27592,9.80484 -35.58351,1.40698 -45.05301,20.17958 1.34326,-1.49484 0.36363,-0.60746 2.48337,-1.86271 12.72644,-7.53625 25.42586,-15.11813 38.15784,-22.64502 1.48453,-0.87763 2.45436,-1.47076 4.17729,-1.75819 0.6738,-0.11241 1.36566,-0.0391 2.04849,-0.0586 4.88493,0.49561 8.11736,3.99497 7.61091,9.07617 -0.64416,2.22707 -1.64293,4.03196 -2.4808,6.14538 -0.87054,2.19583 -1.07482,4.57624 -2.91258,6.31439 -125.1885,72.76586 84.77298,-48.81694 -43.50214,25.39538 -1.62768,0.94168 -2.18934,1.07506 -3.94831,1.74754 -1.98869,0.92372 -4.02165,1.80913 -5.98851,2.76911 -0.66941,0.32672 -2.5912,1.47067 -1.94871,1.09376 35.57687,-20.87093 45.34178,-27.52634 32.53593,-18.874 -3.31392,3.16759 -7.43094,5.17168 -11.18323,7.77378 -3.29585,3.66745 0.64832,-0.95281 -2.40643,3.46645 -1.53033,2.21389 -4.23117,3.75899 -6.41136,5.20342 -125.07053,72.96832 84.47178,-49.31087 -43.35238,25.57726 -1.99638,1.16962 -1.68011,0.95209 -3.82887,1.84686 -3.90295,1.95163 -7.89118,3.84909 -12.13273,4.93674 -4.74178,1.2557 -9.57576,1.71526 -14.36013,2.7746 -4.8129,1.18254 -9.71485,1.50477 -14.54125,2.60886 -4.5162,1.34761 -8.94091,2.89591 -13.64688,3.50772 -5.29376,0.84782 -10.67789,0.46519 -15.99624,1.15362 -4.37067,0.59046 -8.57168,1.93705 -12.93542,2.36764 30.9676,-22.51002 21.17683,-26.10715 40.93924,-24.02074 1.9345,0.16965 4.05081,0.52713 5.96648,-0.019 0.55302,-0.15767 2.07769,-0.97998 1.58139,-0.6895 -33.54662,19.63422 -46.79014,25.27826 -32.56141,19.11853 3.69413,-2.54728 6.92503,-5.72223 10.70627,-8.17017 1.51096,-1.82013 3.03541,-3.30784 5.08688,-4.52926 9.04261,-5.38388 27.47354,-18.74796 42.18655,-24.2762 5.05115,-1.63147 10.30672,-2.62837 15.39154,-4.15898 4.92756,-1.2974 9.81457,-2.69037 14.77671,-3.84745 4.63778,-1.60242 9.25646,-3.39464 14.08719,-4.32255 4.58266,-1.05195 8.92484,-2.90768 13.6051,-3.55382 5.02473,-1.07185 10.09593,-1.18859 15.16471,-1.96141 1.91653,-0.47807 2.65217,-0.57089 4.44649,-1.36633 0.65639,-0.29098 2.52733,-1.36286 1.90773,-1.00007 -11.49721,6.73186 -23.01466,13.42917 -34.54251,20.10843 -0.59026,0.342 1.15228,-0.73059 1.72842,-1.09588 12.68878,-7.44276 25.37755,-14.88552 38.06633,-22.32828 3.72253,-2.05791 7.67708,-3.68674 11.38441,-5.77933 -90.56546,52.4697 1.70498,-1.00957 3.66668,-2.05211 11.75884,-6.24918 -23.01717,13.39776 -34.52055,20.10557 -3.81654,2.2255 8.63052,-5.88179 5.16933,-3.26985 3.05148,-2.49426 5.57691,-5.81659 7.75341,-9.05564 0.37842,-0.41628 0.84916,-0.76446 1.13525,-1.24885 0.32224,-0.54559 0.1223,-1.4427 0.6561,-1.78412 12.21769,-7.81437 24.79527,-15.05198 37.25962,-22.46658 0.29509,-0.17553 0.71606,-0.49416 0.98943,-0.28641 2.01034,1.52782 2.29099,2.66039 3.1336,4.63219 -1.75697,3.69626 -3.04539,7.64411 -5.46449,11.01922 -6.27051,14.71345 -37.49732,39.48621 -46.17729,26.85274 -7.07324,-15.75049 36.69877,-22.14602 38.79646,-23.11063 0.9079,-0.41749 0.77342,2.03532 0.41671,2.96878 -0.19946,0.52198 -0.69568,0.87464 -1.04353,1.31196 -6.23061,4.50276 3.0904,-2.4024 -3.10318,2.78432 -12.87866,10.78504 -28.66348,18.57443 -44.19894,25.23997 -4.68524,2.06627 -9.45745,3.93059 -13.96532,6.37664 11.49215,-6.67962 22.98429,-13.35924 34.47644,-20.03886 -0.93099,0.52406 -3.33788,3.05092 -4.54671,2.5376 -1.06663,-0.45294 -2.32269,-2.51284 -2.9381,-3.39721 10.83061,-7.9995 34.92092,-19.97065 -32.78053,18.96075 -5.01556,2.88418 11.06908,-6.54691 5.87117,-4.33304 3.86562,-2.08054 7.04505,-5.02599 10.54859,-7.59457 4.32374,-2.04555 7.09586,-6.08608 11.38644,-8.23307 12.89142,-7.42547 25.76351,-14.88459 38.67426,-22.27641 2.002,-1.14621 4.32142,-2.3828 6.49669,-3.1727 1.52276,-0.55296 1.61374,-0.41685 3.0467,-0.3179 5.58712,6.42242 2.5906,5.66635 -2.64368,9.20641 -2.16448,2.10575 -1.14158,1.36384 -3.75687,2.89253 -12.79274,7.47762 -25.85325,14.51303 -38.39277,22.40793 -11.14876,7.01927 45.79439,-26.0681 34.21782,-19.77938 -75.65644,41.09876 -23.5556,14.48323 -40.43448,23.09282 -4.04526,1.47853 -7.96638,3.33448 -12.37287,3.39852 -3.81798,-0.63999 -9.43076,-3.47259 -5.92869,-7.97545 3.25356,-2.48413 5.83262,-5.74348 9.08626,-8.24748 3.63109,-2.04507 6.88232,-4.51174 10.21067,-6.96114 17.6444,-10.07829 31.07446,-19.15352 48.49156,-26.09347 4.23382,-1.48895 8.39163,-3.15738 12.63589,-4.61497 4.6642,-1.73246 9.63255,-2.4785 14.60658,-2.14307 4.96014,0.25625 10.00786,0.31597 11.82096,5.84233 -0.55593,3.66773 -5.23565,6.97709 -8.01451,9.34383 -2.62526,3.32211 -6.00044,6.07066 -9.10692,8.91876 -2.08053,2.27678 -4.61178,4.45919 -7.27347,6.02911 -38.52298,22.72169 -24.62299,16.74715 -40.20795,23.33093 -3.89928,2.01456 -7.81734,3.97831 -11.7843,5.85243 -0.68941,0.36075 -2.74091,1.47326 -2.06822,1.08224 11.42693,-6.64215 45.99011,-26.06563 34.33278,-19.83671 -13.59845,7.26614 -83.7205,48.54141 -4.3621,2.23577 1.35689,-0.79175 -5.49494,2.87742 -3.96303,2.55077 -12.92368,8.43622 -27.24495,14.68612 -39.78546,23.68207 -10.77486,7.72937 45.98163,-26.43939 34.41952,-19.94647 -128.7884,72.32343 24.54557,-12.25244 -6.28067,3.57773 -16.6974,9.68468 -32.83062,20.54062 -50.62409,28.11356 -4.53573,2.24247 -9.15978,4.48841 -14.16437,5.45004 -4.46639,1.20555 -8.55585,3.36115 -13.05851,4.46209 -4.9852,1.46087 -10.2135,2.1134 -14.93632,4.42887 -4.36178,1.49274 -8.67837,3.05026 -13.07925,4.41863 -4.29873,1.54785 -8.80802,2.60766 -13.19246,3.8723 -4.46473,1.18952 -8.60355,3.34297 -13.22951,3.92819 -5.48498,0.82401 -11.0456,0.3748 -16.57504,0.47347 -5.59068,-0.0388 -11.19793,-0.0606 -16.75899,-0.7058 -4.83971,-0.70209 -9.46389,-2.04036 -14.13279,-3.45663 -5.00847,-1.19614 -9.67074,-3.31496 -14.65573,-4.5865 -4.66797,-1.31992 -9.44499,-2.39379 -14.23622,-3.12411 -5.00643,-0.49846 -9.92626,-1.3827 -14.68832,-3.05866 -4.53745,-0.96856 -9.00863,-2.08249 -13.46138,-3.37677 -4.6142,-1.00204 -8.95251,-2.78928 -13.54204,-3.87967 -4.50613,-1.36388 -9.11326,-2.29124 -13.55282,-3.85761 -4.20594,-1.61405 -8.58337,-2.74391 -12.71575,-4.56663 -4.71992,-1.70708 -9.1525,-4.11682 -13.60882,-6.40627 -3.68853,-2.05086 -7.47606,-3.89224 -11.2917,-5.69137 -4.12196,-1.7986 -8.19729,-3.6971 -12.38926,-5.3361 -5.18914,-2.0989 -9.91361,-5.12307 -14.87172,-7.70156 -4.1485,-2.56204 -7.86443,-5.6894 -11.62497,-8.78312 -3.4287,-2.40253 -7.12021,-4.29126 -10.70005,-6.4438 -3.46496,-2.19035 -6.72164,-4.63477 -10.05792,-7.01565 -3.35355,-2.43962 -6.14699,-5.53278 -9.51188,-7.96896 -3.26711,-2.50101 -6.87835,-4.61839 -9.51101,-7.8493 -2.88303,-2.89508 -5.61207,-5.94867 -8.2186,-9.09311 -2.85428,-3.15883 -6.26872,-5.94608 -8.0423,-9.89343 -2.13195,-4.12092 -3.74767,-8.52356 -4.85112,-13.02823 -1.23508,-4.84577 -1.26332,-9.93402 -2.61769,-14.77844 -0.83257,-5.40046 -0.17566,-10.91772 0.39643,-16.32664 0.84776,-5.05957 2.60696,-9.8373 3.36228,-14.90994 1.99342,-5.86041 5.50339,-9.23785 10.70083,-12.46895 7.75388,-4.51067 33.58794,-23.90092 50.53832,-26.35646 5.45296,-0.0998 11.01213,0.0885 16.24331,1.7774 4.93876,2.15076 8.25935,5.54593 11.04182,10.14094 2.45309,4.25765 4.33531,8.62297 6.39197,13.06555 2.37119,4.21809 3.98365,8.85447 6.94404,12.73611 2.56974,4.32172 5.98472,8.07179 9.14159,11.96758 2.65836,3.12436 5.3375,6.21955 7.79334,9.50862 2.5067,3.2326 6.1741,5.39061 8.42524,8.86371 2.20205,3.21678 5.36568,5.6002 7.95685,8.49243 2.87967,2.76631 5.64083,5.65357 8.63417,8.3014 3.06838,2.5305 6.21397,4.94826 9.79918,6.72255 3.69424,2.09621 7.19305,4.58588 10.18799,7.6122 3.02523,2.56375 6.09553,5.06996 9.60137,6.96734 3.60713,2.14445 6.98597,4.67533 10.91478,6.25481 3.6801,2.07281 7.4436,3.99715 11.19016,5.94448 3.93112,2.11026 8.16101,3.04742 12.43345,4.23691 4.22297,1.58943 8.49108,3.06033 13.06966,3.11646 5.4216,0.14121 10.90028,0.29527 16.17483,1.68933 4.38106,1.3664 8.65036,3.20021 12.75551,5.23386 3.47861,2.18092 6.95316,4.42372 10.64818,6.20863 4.17694,1.58514 8.41469,2.87759 12.86458,3.44019 4.89396,0.63941 9.8371,-0.0108 14.64075,-1.05486 4.61534,-1.21905 9.17197,-2.51798 13.90235,-3.2461 4.84594,-1.17656 9.7701,-1.48765 14.65127,-2.47484 4.63424,-1.22172 9.20697,-2.52132 13.97809,-3.13746 5.27744,-1.09913 10.59536,-1.2006 15.94526,-1.7652 5.63514,-0.92282 11.00146,-2.60889 16.29716,-4.74063 4.39416,-1.7205 8.64741,-3.75492 13.01445,-5.51674 2.06818,-0.88887 4.1635,-1.72957 6.22416,-2.62593 0.70739,-0.30771 2.73921,-1.41739 2.07416,-1.02649 -10.75943,6.32393 -47.15573,27.50824 -32.36181,18.82896 1.83596,-1.52664 4.0199,-2.37415 5.7533,-4.00707 0.0808,-0.0761 2.74124,-3.18029 2.90712,-3.32542 0.50592,-0.44263 1.12294,-0.73924 1.68441,-1.10886 2.91968,-2.95065 7.01016,-4.20479 9.53068,-7.54177 3.16493,-2.43338 5.76117,-5.64693 8.42765,-8.57999 3.07442,-2.70119 5.36704,-6.47108 6.83056,-10.26507 2.13347,-4.25142 4.49493,-8.42522 5.98563,-12.95898 1.85859,-4.84055 3.59539,-9.34621 2.86607,-14.68559 -0.0752,-5.20198 -0.13191,-10.43431 -1.00475,-15.57722 -0.9437,-4.52469 -2.66341,-8.81445 -3.44159,-13.37483 -1.3533,-4.03912 -2.96748,-8.0263 -4.76761,-11.8732 -2.06091,-3.72423 -3.72279,-7.66234 -5.70039,-11.43129 -2.02945,-3.63602 -3.66098,-7.49368 -5.85055,-11.04462 -2.24046,-3.34875 -4.39664,-6.73501 -7.15852,-9.70445 -2.57904,-2.8734 -6.25608,-4.33079 -9.89761,-5.40458 -4.3947,-1.33678 -8.65161,-3.12848 -12.93129,-4.78088 -3.91992,-1.89211 -8.02023,-3.38426 -12.10627,-4.87473 -3.86365,-1.77098 -7.64863,-3.74814 -11.6986,-5.07971 -4.52777,-1.37869 -9.15958,-2.32815 -13.61036,-3.93975 -4.44359,-1.74134 -9.05773,-3.02515 -13.50358,-4.76609 -4.77823,-1.38326 -9.61105,-2.69578 -14.17579,-4.69272 -4.14359,-1.50616 -8.06569,-3.37122 -12.00166,-5.35344 -3.77589,-1.98679 -7.68664,-3.72464 -11.62319,-5.36552 -3.86091,-1.78117 -7.82585,-3.30145 -11.49753,-5.46937 -4.12382,-1.57296 -8.416,-2.68245 -12.55221,-4.2247 -4.57148,-1.32795 -9.0026,-3.09653 -13.59121,-4.37695 -4.81178,-1.71822 -9.80488,-2.87421 -14.58801,-4.68993 -4.49666,-1.37233 -9.07998,-2.32477 -13.54916,-3.77866 -4.29606,-1.46362 -8.818,-2.36332 -13.29756,-3.02964 -5.17348,-0.45916 -10.265,-1.33632 -15.36299,-2.31345 -6.06007,-0.42763 -12.16474,-0.25781 -18.19489,-1.12409 -4.93107,-0.79967 -9.68166,-2.37755 -14.66618,-2.86076 -4.81691,-0.86644 -9.47322,-2.40104 -14.34141,-2.99308 -5.00188,-1.0832 -9.71686,-2.98843 -14.6529,-4.31435 -4.56563,-1.56259 -9.04494,-3.38455 -13.65796,-4.80375 -4.92818,-1.4102 -9.73775,-3.26249 -14.5549,-4.99579 -4.04234,-1.9495 -7.88377,-4.18756 -11.79426,-6.37453 -4.03228,-2.03013 -7.37474,-4.55247 -10.17461,-8.14099 -2.68216,-3.31547 -5.32888,-6.63288 -7.30869,-10.43669 -1.73249,-3.50407 -4.18112,-6.64749 -7.06418,-9.28146 -2.86004,-3.03633 -5.86101,-5.94561 -8.32994,-9.32699 -2.43442,-3.85488 -4.49314,-7.79096 -5.58288,-12.25943 -1.42998,-4.14804 -1.99391,-8.55935 -4.69037,-12.20771 -1.6356,-3.89809 -3.81918,-7.55834 -5.81956,-11.27575 -1.79966,-4.07991 -4.25459,-7.84388 -5.6978,-12.09747 -1.1504,-5.52982 -1.08773,-11.03947 -0.97824,-16.67758 -0.0437,-5.37106 -0.0744,-10.75611 -0.66306,-16.10132 -0.67015,-4.93659 -2.23569,-9.68529 -2.62511,-14.64175 -0.47195,-5.04307 -1.45141,-9.97319 -2.48143,-14.92755 -0.10275,-5.26197 -0.23397,-10.53865 -0.98312,-15.75657 -0.77931,-4.98731 -2.1173,-9.89246 -0.64438,-14.90627 1.24596,-4.69192 3.74269,-8.60802 6.04165,-12.83015 2.69983,-3.60109 4.59107,-8.00148 6.23537,-12.15197 1.82541,-3.89268 5.10952,-6.46391 7.42387,-10.02553 4.01642,-3.90332 -1.10358,0.82036 3.17862,-2.37032 2.17937,-1.62386 3.38998,-4.58306 4.85998,-6.77163 2.80075,-3.3951 6.42268,-6.16929 9.87581,-8.85868 2.18801,-2.06018 4.9234,-3.4347 6.95502,-5.68638 0.4925,-0.54584 0.79624,-1.2441 1.28913,-1.78959 0.47126,-0.52156 1.05657,-0.92742 1.58485,-1.39112 0.47958,-0.60986 0.77609,-1.42605 1.43873,-1.82957 12.88583,-7.84699 83.95881,-48.7475 3.97834,-2.32248 -0.67299,0.39064 1.3452,-0.79028 1.96312,-1.26324 3.95334,-3.02588 -0.41141,-0.3754 3.86518,-2.77999 1.67615,-1.36109 3.18716,-2.81245 4.80431,-4.19244 12.13009,-10.35115 27.58557,-16.7035 41.68115,-24.39732 4.04455,-1.60572 7.92513,-3.5778 12.00866,-5.10007 4.15383,-1.34088 7.87568,-3.52886 11.83323,-5.33365 3.96935,-2.01888 8.22593,-3.51538 12.5765,-4.46381 4.79385,-1.03615 9.79818,-1.00005 14.45011,-2.72215 4.50211,-1.55615 9.12658,-2.56834 13.85453,-3.19636 5.64812,-0.20706 11.30252,-0.0482 16.95349,-0.0977 5.7149,-1.7e-4 11.42981,-3e-4 17.14471,-0.003 5.72018,-0.004 11.44036,-0.0109 17.16054,-0.0198 5.6991,-0.004 11.39977,-0.0263 17.09701,0.14263 5.33009,0.22017 10.68767,0.54482 15.86828,1.92053 4.68561,1.24823 9.45636,1.91004 14.13286,3.17758 4.35575,1.46794 8.75386,2.67376 13.23732,3.70395 4.77179,0.78456 9.54886,1.48779 14.13352,3.11012 4.61963,0.91192 9.22156,1.95441 13.86527,2.69134 5.06816,0.45643 10.05262,1.32728 15.0482,2.2766 5.51613,0.28409 11.04747,0.0205 16.56699,0.26682 5.33948,0.21551 10.69899,0.54146 15.91132,1.81034 4.82587,1.14639 9.71574,1.58273 14.56129,2.61145 4.37968,1.33535 8.63522,3.1254 12.83285,4.93483 4.48058,2.42623 9.08634,4.62117 13.62974,6.9258 7.64169,4.0792 15.3761,8.01526 23.25326,11.61541 0,0 -35.45143,23.32578 -35.45143,23.32578 z"
       inkscape:connector-curvature="0"
       inkscape:export-filename="/home/renmai/git/eduras/Eduras/src/de/illonis/eduras/images/gameobjects/speedpowerup.png"
       inkscape:export-xdpi="2.4200001"
       inkscape:export-ydpi="2.4200001" />
    <path
       style="fill:#000080;fill-opacity:1;stroke:#00fb00;stroke-opacity:1"
       id="path3126"
       d="m 407.94766,551.81439 c -8.06136,-4.40247 -17.07153,-6.25703 -25.62898,-9.29586 -5.04307,-1.89388 -10.15201,-4.09613 -14.39782,-7.46001 -3.03688,-3.27483 -6.3568,-6.56356 -10.39269,-8.56436 -4.58269,-2.49726 -9.57755,-4.36565 -14.60396,-5.78618 -5.3164,-1.66046 -10.00905,-4.63719 -15.37669,-6.13107 -4.43006,-1.52549 -7.91836,-4.42695 -11.61763,-7.14746 -3.66803,-2.99186 -8.15262,-4.57278 -11.92405,-7.43578 -3.51245,-2.43214 -7.51274,-4.03607 -11.08864,-6.33224 -4.0145,-1.53572 -7.41981,-4.00215 -10.97555,-6.34416 -3.61703,-2.00832 -7.16743,-4.08848 -10.83505,-6.03044 -3.99275,-1.56522 -7.69715,-4.02627 -10.82636,-6.9563 -3.11873,-2.65973 -6.18816,-5.46132 -8.92538,-8.52576 -2.66468,-3.16691 -6.32418,-5.01385 -9.03231,-8.10224 -1.58766,-2.24567 -4.37001,-2.58492 -6.40453,-4.21287 -1.1394,-0.9117 -2.12397,-2.0039 -3.24061,-2.94335 -3.7171,-3.54304 -7.96297,-6.44277 -11.68478,-9.97242 -2.88111,-3.35276 -5.32718,-7.08782 -8.44084,-10.23084 -2.58996,-3.38492 -5.98212,-5.99283 -8.82803,-9.13959 -3.55948,-2.96042 -6.23543,-6.62182 -9.0475,-10.23646 -2.69198,-3.01576 -4.1886,-7.07368 -7.19941,-9.76949 -3.12262,-2.98372 -4.47485,-7.18839 -6.98772,-10.62138 -2.39459,-3.76836 -4.16889,-7.97725 -5.74516,-12.15663 -1.61286,-5.09638 -2.1332,-10.46911 -1.97006,-15.79134 0.23583,-4.75974 2.20942,-9.03831 3.67627,-13.47796 1.05332,-4.32724 3.59333,-7.97364 5.59595,-11.87356 2.26123,-3.83963 4.86282,-7.48263 7.92372,-10.72598 2.73513,-3.47612 5.41528,-6.99534 8.14131,-10.48197 12.45646,-12.85558 31.52708,-19.67718 45.56043,-28.6618 11.16977,-7.15127 -22.9828,13.2442 -34.4742,19.86631 15.53853,-9.77405 29.92348,-23.59752 48.25382,-26.77976 4.10298,-1.74112 7.48677,-4.21437 11.87285,-5.29872 13.06605,-6.69788 28.68459,-15.90358 -30.94419,17.89107 -0.60405,0.34235 1.16128,-0.76294 1.76366,-1.10821 38.74569,-22.20806 24.13711,-18.24399 40.62548,-22.4817 5.2244,-1.00323 10.56877,-1.02359 15.86898,-1.08444 4.78669,-1.47113 9.71532,-2.12986 14.6903,-2.50474 4.56621,-1.85419 9.41598,-2.47385 14.28675,-2.86241 2.82998,-1.49356 6.14719,-1.45604 9.12107,-2.36118 1.40748,-0.42838 2.68572,-1.20638 4.06149,-1.7277 4.70032,-1.79537 9.88054,-0.98299 14.59489,-2.47619 4.82079,-1.55695 9.88643,-1.89742 14.91022,-2.15145 5.16053,0.37028 9.95067,-1.44575 14.98633,-2.2212 5.38525,-0.68134 10.82198,-0.73848 16.24188,-0.79901 5.70589,-0.0369 11.41196,-0.0181 17.11791,-0.01 5.66239,0.26025 11.42857,-0.58637 16.99894,0.57465 4.72433,0.65024 8.79899,3.06235 13.40813,4.1467 4.16272,1.55567 8.02035,3.77901 12.2044,5.25408 4.27853,1.17799 8.29698,3.14419 12.30175,5.03931 3.98497,1.60955 7.74563,3.7189 11.57549,5.68206 4.0929,1.4928 8.37609,2.73278 12.20547,4.84356 4.42069,1.00842 7.1369,4.50699 10.81576,6.75333 3.14161,2.79987 7.06167,4.32519 10.30539,7.00521 3.33016,2.41733 7.17974,3.96083 10.61513,6.18014 3.71139,2.02712 7.7395,3.50533 11.34156,5.71853 4.12534,1.63576 7.77934,4.15578 11.73186,6.15458 4.26057,2.40836 8.91247,3.72402 13.44322,5.485 0.84272,0.27419 1.68544,0.54839 2.52816,0.82258 0,0 -35.16181,23.84742 -35.16181,23.84742 l 0,0 c -0.86431,-0.29834 -1.72861,-0.59667 -2.59291,-0.895 -4.78861,-1.58933 -9.28933,-3.69349 -13.78894,-5.96968 -3.90372,-2.14752 -7.81958,-4.25077 -11.82314,-6.2032 -3.83472,-1.87514 -7.67066,-3.75636 -11.40832,-5.8173 -3.74562,-1.99819 -7.45861,-4.09063 -10.89093,-6.59951 -3.35618,-2.3273 -7.0431,-4.1498 -10.17321,-6.80192 -3.34341,-2.46775 -6.42404,-4.93878 -10.47211,-6.2445 -4.0869,-1.67422 -8.25866,-3.14248 -12.2821,-4.95459 -3.74186,-2.01436 -7.6026,-3.81537 -11.48175,-5.54642 -3.92378,-1.88774 -8.03007,-3.37224 -12.13767,-4.80685 -3.93794,-1.72836 -7.82398,-3.59476 -11.93739,-4.88939 -4.31987,-1.38122 -8.45541,-3.33914 -13.05091,-3.68644 -5.53671,-0.29123 -11.08884,-0.0445 -16.63105,-0.13669 -5.69113,-0.005 -11.38296,-0.0239 -17.07335,0.0844 -5.31367,0.14487 -10.64965,0.34346 -15.88207,1.36275 -5.04732,1.02335 -10.04643,1.89475 -15.22637,1.85182 -4.94624,0.47383 -9.78725,1.39217 -14.60143,2.62262 -4.84264,0.53901 -9.71183,1.05086 -14.25284,2.96179 -4.44163,1.50659 -9.13953,2.45787 -13.74803,3.26624 -4.83801,0.6891 -9.48217,2.14195 -14.30934,2.82724 -4.97983,0.63055 -9.84725,1.96177 -14.86272,2.22816 -5.09031,0.18447 -10.2976,0.34169 -15.09777,2.23365 -13.91596,6.75802 -2.88435,1.45935 32.61153,-19.06937 0.59805,-0.34588 -1.18345,0.71334 -1.7821,1.05819 -11.17638,6.43823 -27.33471,18.31499 -42.32504,23.6407 -3.98373,1.77863 -7.67101,4.2226 -12.03424,5.06828 -1.38247,0.52037 -5.31161,2.57421 -4.03727,1.82717 60.9322,-35.71906 41.37442,-25.20638 29.15583,-16.42871 -12.74601,7.45029 -25.46528,14.9465 -38.23802,22.35087 -11.44687,6.63576 22.82161,-13.39534 34.2604,-20.04504 3.8048,-2.21184 -11.69435,7.83903 -7.45537,5.56933 -3.31952,2.87597 -5.82153,6.73283 -8.23034,10.36901 -2.75666,3.32646 -6.12426,6.20092 -8.16218,10.07236 -2.51024,3.25281 -4.09037,7.2234 -6.13491,10.77994 -1.05408,4.44122 -3.32261,8.30994 -4.00737,12.8317 -0.91063,4.62739 0.0105,9.52271 1.09483,14.0624 1.37372,3.8542 3.04895,7.70326 5.20765,11.1679 2.28533,3.30763 3.71749,7.18477 6.62845,10.01645 2.86672,3.12973 4.8029,6.94872 7.47217,10.25184 2.66157,3.55116 5.46923,6.90788 8.79915,9.88099 2.96258,3.0269 6.22359,5.77086 8.85956,9.11365 2.89462,3.21229 5.41293,6.72611 8.23508,10.0014 3.78678,3.38047 7.85401,6.42671 11.64791,9.80029 3.18253,2.74748 7.06668,4.42522 9.90593,7.57844 2.86593,2.84773 6.46257,4.92133 9.03857,8.11262 2.74871,2.86235 5.63467,5.6124 8.6905,8.14427 3.14877,2.53709 6.62735,4.53547 10.32023,6.18187 3.69457,2.10433 7.46761,4.05438 11.05097,6.35266 3.43724,2.3758 7.13095,4.20469 10.83014,6.12914 3.85048,2.04229 7.65957,4.17924 11.26239,6.63854 3.97412,2.57067 8.36553,4.47487 12.01672,7.53298 3.29641,2.54879 6.75744,4.76596 10.78394,6.0049 5.16236,1.90335 9.97721,4.64373 15.31068,6.11216 5.22195,1.7707 10.45512,3.68358 15.20411,6.52331 3.90342,2.53574 7.34864,5.67757 10.62942,8.9688 4.14705,2.79041 8.84994,4.79326 13.53656,6.48135 8.63991,2.85531 17.26713,5.67893 25.65964,9.22994 0,0 -35.09579,23.81214 -35.09579,23.81214 z"
       inkscape:connector-curvature="0"
       inkscape:export-filename="/home/renmai/git/eduras/Eduras/src/de/illonis/eduras/images/gameobjects/speedpowerup.png"
       inkscape:export-xdpi="2.4200001"
       inkscape:export-ydpi="2.4200001" />
    <path
       style="fill:#000080;fill-opacity:1;stroke:#00fb00;stroke-opacity:1"
       id="path3128"
       d="m 543.05107,325.84125 c -3.7213,-8.05826 -6.1856,-16.63667 -10.36887,-24.48029 -2.18579,-4.15513 -5.02028,-8.05514 -8.47525,-11.24667 -2.60671,-2.96134 -5.14716,-5.79594 -8.95324,-7.07782 -3.81967,-1.85551 -7.58875,-3.9443 -11.61327,-5.34359 -4.28985,-1.15623 -8.32077,-3.10975 -12.33387,-4.99818 -4.2544,-1.19197 -8.1208,-3.19596 -12.46517,-4.11941 -4.58154,-1.05174 -8.94291,-2.59984 -13.65787,-3.20923 -5.0354,0.0217 -9.72893,-1.75054 -14.64941,-2.56662 -4.31525,-2.05824 -8.9126,-2.88671 -13.62624,-3.33429 -5.41222,-0.60969 -10.92001,0.19314 -16.25102,-0.93712 -4.86071,-1.01981 -9.62691,-1.73062 -14.35182,-3.24796 -4.26287,-1.56484 -8.22222,-3.37774 -12.76936,-4.10952 -4.65331,-1.56774 -9.19211,-3.45407 -13.925,-4.7758 -5.21895,-0.59118 -10.17616,-1.99754 -15.27152,-3.18175 -5.04053,-0.71818 -9.95337,-1.05831 -14.87843,-2.36728 -4.8795,-1.2392 -9.92246,-1.45942 -14.92926,-1.63295 -5.62743,-0.13664 -11.25717,-0.11367 -16.8858,-0.10736 -5.72022,0.01 -11.44045,0.0162 -17.16067,0.0196 -5.71599,0.003 -11.43198,0.003 -17.14797,0.003 -5.7143,2e-5 -11.4286,-8e-5 -17.1429,-1.2e-4 -4.66598,0.40204 -10.0618,0.96684 -14.36854,2.9614 -3.96892,1.61033 -8.3449,2.87471 -11.87109,5.35208 -4.04442,1.83647 -7.61646,4.06343 -12.01083,5.04965 -12.30496,6.78982 -26.13354,14.43118 32.95213,-18.79148 0.59171,-0.33271 -1.10976,0.78216 -1.66143,1.17774 -1.62673,1.16645 -2.98244,2.52938 -4.47024,3.86329 -2.62377,3.23859 -6.3222,5.24091 -9.46473,7.89802 -4.12549,2.82026 -7.95364,6.01796 -11.98029,8.96588 -14.50877,9.59111 -29.6097,17.79594 -44.87911,26.44864 -3.32152,1.21577 -1.77897,0.44968 -4.64802,2.25677 4.97582,-3.4782 -13.70708,7.14125 -8.42906,4.08559 36.91158,-21.36961 45.53519,-27.41478 32.93564,-18.68838 -86.08199,49.59958 -18.30123,10.52548 -3.61735,2.13722 0.54998,-0.31418 -1.10275,0.6337 -1.59663,1.03028 -1.5406,1.2371 -2.93308,2.82848 -4.21141,4.3232 -3.15193,3.21073 -5.75789,6.94656 -8.21072,10.70674 -2.55106,4.28806 -5.13872,8.54829 -7.56354,12.91205 -2.6748,4.87713 -3.47367,10.31484 -3.94188,15.7715 -0.25314,5.78467 -1.28015,11.52702 -2.43492,17.19345 -1.66323,4.73182 -2.42219,9.64973 -3.28443,14.56355 -1.42847,4.6759 -2.2718,9.44297 -2.71619,14.30272 -0.39035,5.55081 -0.38472,11.11935 -0.39925,16.68088 -0.002,5.71918 0.0107,11.43836 0.017,17.15753 0.0464,5.34592 -0.31871,10.67861 0.65477,15.95602 0.6939,4.7132 1.80171,9.27181 3.08522,13.84937 0.78002,4.03572 2.3239,7.85185 4.97419,11.01076 2.47203,3.33386 5.70218,5.90591 7.9911,9.38556 2.39911,2.99666 4.23256,6.52409 7.54352,8.61188 3.60835,2.41819 6.42394,5.51611 8.97306,9.01484 2.50115,3.12053 5.38499,5.88755 7.98421,8.9185 2.81677,2.8697 5.82229,5.56997 8.50285,8.57306 3.89536,2.87472 6.81635,3.27016 9.92563,7.46464 2.6046,2.87113 5.42217,5.6561 8.4429,8.10746 2.68818,3.12793 6.49426,4.81378 9.57536,7.49899 3.42223,2.09515 7.21386,3.87119 11.06028,5.11079 4.30908,1.44307 8.41353,3.00815 12.96909,3.64487 3.31623,0.30598 1.67746,-0.016 4.91294,0.98303 0,0 -34.99988,24.16628 -34.99988,24.16628 l 0,0 c -3.01171,-0.51807 -1.42723,-0.25643 -4.75455,-0.77805 -4.61529,-1.01516 -8.93883,-2.79148 -13.42304,-4.24872 -4.11388,-1.72261 -8.35228,-3.44453 -11.84471,-6.26993 -3.26291,-2.46351 -6.85734,-4.52364 -9.62847,-7.58289 -3.10482,-2.79017 -6.26873,-5.58856 -8.89057,-8.84478 -2.64661,-3.18083 -7.15911,-3.79684 -9.74126,-7.15419 -2.80157,-2.93367 -5.74296,-5.73083 -8.5531,-8.6567 -2.75557,-3.04518 -5.60091,-6.00438 -8.16225,-9.22076 -2.37993,-3.13149 -5.04528,-5.77264 -8.33122,-7.9666 -3.32267,-2.80004 -5.76335,-6.33271 -8.28925,-9.84106 -2.26639,-3.30831 -5.56009,-5.75785 -7.81986,-9.08917 -2.81534,-3.70525 -4.97117,-7.8929 -5.78578,-12.51462 -1.2673,-4.69084 -2.62567,-9.28659 -3.22027,-14.13124 -1.16344,-5.54024 -1.11154,-11.06406 -0.98468,-16.71526 -0.005,-5.72198 -0.0152,-11.44394 -0.0224,-17.16591 2.5e-4,-5.65008 -0.0185,-11.30339 0.23436,-16.94918 0.30214,-5.03664 0.73241,-10.10549 2.37452,-14.91482 1.55754,-4.74979 1.13378,-10.0275 3.26619,-14.67293 1.82426,-5.19006 2.24409,-11.03125 2.82805,-16.46473 0.32736,-5.89018 0.85871,-11.83193 3.19769,-17.32317 2.14604,-4.49924 4.62883,-8.88154 7.47037,-12.96886 1.94955,-4.31587 5.04793,-7.87614 7.69529,-11.77989 1.21604,-1.07058 4.77954,-5.77901 5.47447,-6.20183 0.78146,-0.47546 95.09533,-55.3258 3.62612,-2.12513 15.70356,-9.8884 31.57554,-19.48909 48.2494,-27.56174 13.04327,-6.05733 32.15608,-17.94538 -29.45133,17.48124 -5.62252,3.23316 12.00515,-6.85819 6.23432,-4.19064 4.50414,-2.24027 7.76204,-5.98888 12.05813,-8.54781 3.36456,-2.24654 6.25045,-5.11951 9.76458,-7.1584 10.28618,-13.71525 33.14079,-23.79118 46.07921,-28.77741 3.95878,-1.645 7.68233,-3.81276 11.53353,-5.69171 4.10127,-1.62485 8.03017,-3.63813 12.33811,-4.7244 4.99126,-0.97527 9.95893,-2.22453 15.09251,-1.86301 5.71425,5e-5 11.4285,1.7e-4 17.14275,-5e-5 5.71534,-3.9e-4 11.43068,-8.9e-4 17.14602,-0.005 5.72082,-0.005 11.44164,-0.0146 17.16246,-0.0176 5.67453,0.005 11.35249,-0.006 17.02203,0.265 5.20156,0.32569 10.38886,0.87445 15.4319,2.25998 4.91786,1.06801 10.00956,1.01789 14.87961,2.38609 5.09892,1.32271 10.28928,2.03884 15.37705,3.39317 4.56728,1.50769 9.07066,3.24543 13.73508,4.43756 4.47594,1.12838 8.56337,3.16157 12.99697,4.40987 4.56279,1.2942 9.31298,1.77634 13.9542,2.73172 5.40055,0.32925 10.83706,0.1313 16.21063,0.88694 4.73205,0.73965 9.22002,2.15284 13.78772,3.53748 4.8419,1.02213 9.62827,2.14346 14.58496,2.48471 4.70791,0.92351 9.20081,2.55402 13.89845,3.52034 4.39459,1.33654 8.65015,3.12863 12.9351,4.7675 3.93639,1.8796 8.05813,3.34235 12.17522,4.77299 3.94594,1.74435 7.85032,3.58786 11.72121,5.49223 3.86035,2.08103 6.87497,5.09711 9.77932,8.35703 3.56453,3.71131 6.74429,7.82953 8.986,12.4843 4.04315,7.94016 6.39203,16.57828 10.45383,24.51143 0,0 -36.87803,20.99778 -36.87803,20.99778 z"
       inkscape:connector-curvature="0"
       inkscape:export-filename="/home/renmai/git/eduras/Eduras/src/de/illonis/eduras/images/gameobjects/speedpowerup.png"
       inkscape:export-xdpi="2.4200001"
       inkscape:export-ydpi="2.4200001" />
    <path
       style="fill:#000080;fill-opacity:1;stroke:#00fb00;stroke-opacity:1"
       id="path3132"
       d="m 259.62319,264.3001 c -8.99516,-0.57096 -17.76008,-2.63784 -26.63851,-4.03927 -6.1798,-0.93994 -11.22755,-1.43225 -17.31595,0.004 -4.28602,0.90575 -8.07532,3.27386 -11.94679,5.22624 11.58082,-6.64635 23.12654,-13.35424 34.74246,-19.93905 0.59913,-0.33964 -1.08839,0.85101 -1.68307,1.19839 -12.71798,7.42927 -25.66199,14.47535 -38.24734,22.12714 -11.39968,6.93092 23.1058,-13.34498 34.6894,-19.96393 1.07971,-0.61695 -2.01139,1.47999 -2.8861,2.3639 -2.45425,3.3741 -4.2774,7.11647 -6.10787,10.84999 -1.55238,4.13716 -2.93558,8.35911 -4.84207,12.35143 -1.50243,4.07561 -3.72543,7.70863 -6.17532,11.26107 -2.51561,3.2222 -5.50201,6.00516 -8.25832,9.00724 -1.25214,-0.0238 -1.27275,1.84177 -2.26449,2.17933 -0.47085,0.16026 -1.50311,-2.0949 -1.79573,-3.0109 -0.11729,-0.36718 0.40169,-1.33511 0.061,-1.15478 -11.7879,6.23983 -23.25914,13.06036 -34.88871,19.59054 3.9141,-3.03542 7.76772,-6.19726 11.38349,-9.59477 3.63712,-3.58471 6.88634,-7.54913 10.58877,-11.06313 3.78598,-2.7342 7.20717,-5.92585 10.90212,-8.77517 14.20088,-9.57062 29.61075,-17.09884 44.23375,-26.07151 11.24983,-6.90289 -22.84237,13.23152 -34.31339,19.76023 -0.69828,0.39743 1.32557,-0.90832 1.98835,-1.36249 128.14098,-72.63229 -85.41797,48.01034 42.33704,-24.51874 2.02649,-1.15048 4.34727,-1.24341 6.42346,-2.3887 4.50962,-2.08242 9.51468,-2.35154 14.39777,-2.61435 4.42353,-2.00317 9.4868,-1.57116 13.91669,-3.31776 1.89693,-0.98819 4.21586,-0.83453 6.08951,-1.86645 0.28149,-0.15504 0.9397,-0.87027 0.67426,-0.68911 -37.05442,25.28957 -21.5272,25.50754 -38.2167,24.83265 -4.34445,0.35701 -9.35733,1.43223 -13.49371,2.95678 -5.43666,1.5617 -10.97793,2.41278 -16.45407,3.81115 -2.83245,0.78894 -5.82129,0.72182 -8.54434,1.93415 -0.82408,0.36689 -3.10647,1.83519 -2.32199,1.38988 35.38393,-20.08587 47.35864,-24.13523 33.76904,-19.46218 -2.24062,1.39501 1.33995,5.10911 2.28948,6.44826 2.85082,4.42377 3.55913,9.59996 4.04173,14.72518 0.50278,5.70521 0.74268,11.21525 -1.55898,16.54313 -1.28781,2.10086 -2.68388,4.11397 -4.54352,5.75431 -0.64659,0.57033 -1.6356,0.71189 -2.19542,1.3676 -0.13354,0.15642 -0.01,0.41121 -0.015,0.61682 -37.6775,17.02299 -46.8196,23.34217 -32.34055,6.28319 3.65253,-3.26792 7.52637,-6.28686 11.35581,-9.35519 3.31945,-3.19031 6.94314,-5.92728 10.62472,-8.6594 103.86024,-59.56875 2.50238,-1.37928 3.71852,-2.12794 12.53749,-7.71811 25.43437,-14.83858 38.25621,-22.07447 1.97112,-1.11239 4.25662,-1.13042 6.28784,-2.24076 4.25673,-1.48081 7.95154,-3.69668 12.40608,-4.65646 1.76323,-1.45861 4.13208,-1.58519 6.12234,-2.46754 2.0465,-0.90728 3.66321,-2.03204 5.85548,-2.73658 12.31789,-7.69261 29.80054,-16.74766 -31.11068,17.80627 -0.60043,0.34062 1.12258,-0.80389 1.69174,-1.19455 2.43279,-1.66981 0.88041,-0.43054 3.17408,-2.43918 3.476,-3.2849 4.26215,-1.57871 0.9461,-1.77785 -2.36726,1.22194 -5.16552,0.97993 -7.64064,1.70456 -1.3938,0.40806 -2.65482,1.18255 -4.0138,1.69478 -0.7474,0.20661 -1.53092,0.31101 -2.24221,0.61982 -0.65523,0.28447 -1.20922,0.76077 -1.81384,1.14115 -0.65679,0.30964 -1.2954,0.66122 -1.97037,0.92892 -2.21277,0.87761 -4.2742,1.11435 -6.38184,2.26566 -1.99148,1.28228 -4.45421,1.20807 -6.60589,1.9379 -2.1228,0.72003 -3.99278,1.79916 -6.19994,2.41274 -5.71195,0.24728 -7.35628,-4.80864 -6.07304,-9.51768 0.36232,-0.60676 0.48676,-1.4472 1.08697,-1.82027 12.50318,-7.77164 26.17415,-13.73411 38.01367,-22.48361 3.06822,-2.26744 -101.99116,59.39168 3.68193,-2.0804 11.51706,-6.6997 -23.06754,13.34219 -34.64753,19.93252 -0.62096,0.35339 1.17584,-0.81195 1.76377,-1.21793 103.83161,-59.61114 2.52325,-1.35309 3.72741,-2.12464 12.39923,-7.94466 25.59896,-14.57018 38.22101,-22.15584 11.43928,-6.87483 -23.06983,13.42719 -34.6722,20.02306 -0.85094,0.48375 1.47691,-1.12752 3.2706,-2.37924 2.94096,-2.81987 6.10217,-5.27349 9.34942,-7.70884 1.02402,-1.3724 2.02161,-0.86936 0.48976,-0.9445 -1.18732,-0.0582 -2.36751,-0.21812 -3.55222,-0.31606 -6.35952,-0.71429 -7.90467,2.11049 -10.69519,-4.19582 -0.41716,-6.02585 5.45779,1.12167 0.66095,1.22038 -4.39239,-0.41109 -8.46951,1.27873 -12.78282,1.94164 -4.23029,1.39073 -8.08379,3.72029 -12.27509,5.08573 -4.28204,1.05828 -8.18389,3.19773 -12.15478,5.06767 -0.71278,0.22988 -1.46539,0.36092 -2.13833,0.68962 -1.25919,0.61507 -4.83464,2.8368 -3.62175,2.13484 10.96003,-6.34316 43.98357,-25.12185 33.04286,-18.74543 -12.72644,7.41718 -25.51355,14.72975 -38.27033,22.09462 115.06804,-66.15284 -90.38668,52.89133 26.10863,-14.26441 -13.54762,9.21333 -9.05186,6.2237 -40.17299,23.03776 -11.7279,6.33633 46.07209,-26.83092 34.71755,-19.84757 -12.53834,7.71141 -25.44493,14.80936 -38.27061,22.03279 -6.98791,3.9356 2.43575,-2.52657 -3.80319,1.91501 -13.66996,6.78913 -6.09333,3.07431 32.82001,-19.0198 0.60075,-0.34109 -1.11719,0.81315 -1.68494,1.20672 -1.64771,1.14219 -3.12422,2.40506 -4.69442,3.65204 -3.12623,2.88715 -6.13138,5.86746 -8.98231,9.02973 -3.23001,3.72296 -7.27483,6.50189 -11.01457,9.64573 -2.89275,3.38041 -6.02915,6.37131 -9.41603,9.2291 -3.29191,2.20938 -5.88978,5.35348 -7.64346,8.88876 -1.96359,4.22064 -0.8808,8.41369 -0.50596,12.79568 -0.0196,0.72659 -0.0392,1.45318 -0.0588,2.17977 0,0 -38.07674,19.05781 -38.07674,19.05781 l 0,0 c 0.0769,-0.61513 0.15385,-1.23025 0.23078,-1.84538 0.35135,-4.7427 -2.05334,-9.48875 -0.16695,-14.2309 1.20104,-4.36318 3.51001,-7.95451 6.63226,-11.19559 3.78912,-2.28224 6.94166,-5.08765 9.77176,-8.47538 3.04904,-4.05315 7.74888,-5.91242 10.90953,-9.87553 3.32138,-2.66404 5.52632,-6.412 8.97582,-8.92491 1.67818,-2.03992 3.84388,-4.14561 6.12753,-5.49152 35.51867,-20.93358 25.39064,-15.20445 39.8849,-23.38348 1.3033,-0.56947 5.06057,-2.59375 3.83033,-1.88003 -11.51971,6.68312 -46.33474,26.27471 -34.58581,20.0033 129.52584,-69.13895 -25.44205,9.58902 5.54341,-2.95371 88.61708,-51.90729 15.40039,-9.00427 3.55396,-2.12654 -0.58414,0.33914 1.16861,-0.68818 1.69144,-1.11582 3.86156,-3.15854 -0.92652,-0.0229 3.32079,-2.4918 12.719,-7.39347 25.41972,-14.81834 38.12958,-22.22751 -11.51429,6.70273 -23.01401,13.43056 -34.54287,20.10819 -0.59068,0.34212 1.13837,-0.7548 1.72678,-1.1008 12.68135,-7.45696 25.37443,-14.89403 38.08132,-22.30738 1.8751,-1.09395 3.90652,-1.7405 5.83353,-2.72778 3.97203,-1.93348 8.20968,-3.27464 12.34315,-4.81213 4.09196,-1.8812 8.30777,-3.59611 12.75981,-4.40914 4.50116,-0.91626 8.92321,-1.84861 13.54664,-1.11273 1.09965,0.19156 2.33511,0.20631 3.1528,1.16461 0.52381,0.61388 4.64741,7.47859 -0.0491,3.67419 -0.54959,-0.71296 -2.25335,-2.00675 -1.40456,-2.3066 2.00363,-0.70784 6.31007,0.99058 8.44961,0.77221 4.50077,1.0756 9.4152,3.84731 7.51155,9.27379 -2.39291,3.49262 -6.36685,4.94681 -9.20844,8.05465 -1.63204,1.83234 -1.05715,1.47019 -3.14115,2.71104 -12.64055,7.52643 -26.04877,13.87978 -37.9618,22.51172 -10.77815,7.80964 46.12822,-26.58326 34.54129,-20.03328 -6.98307,3.94745 -89.59741,51.94867 -3.74251,2.09052 -13.27635,7.86466 -26.96105,15.05987 -39.93652,23.41161 -11.18666,7.20035 45.943,-26.85006 34.52538,-20.02186 -125.70126,75.17441 21.58615,-14.68925 -5.20914,2.37806 -0.63428,0.47536 -1.01586,1.24542 -1.67052,1.69229 -0.16699,0.11399 -0.41266,0.001 -0.60277,-0.0675 -0.98058,-0.35487 3.88476,-0.29234 3.00856,-0.8578 4.18738,-1.60753 8.50979,-2.76972 12.60499,-4.62137 4.30483,-1.32855 8.2394,-3.49157 12.57463,-4.73481 4.16835,-1.31155 8.87965,-2.34629 13.19764,-1.38842 4.40417,1.84405 7.46012,6.0042 3.45349,10.05265 -5.78295,4.19268 2.63108,-2.0825 -3.0477,2.76772 -12.65177,10.80583 -28.39887,18.38551 -43.68951,25.19853 -3.96543,1.86941 -8.00964,3.59299 -12.19942,4.89781 -4.09085,1.55566 -7.9952,3.55079 -12.10736,5.06766 -1.79808,0.58399 -2.45085,0.72638 -4.15364,1.55645 -0.63912,0.31156 -2.48094,1.39028 -1.86604,1.0333 11.51517,-6.68515 46.21821,-26.46352 34.56722,-20.018 -8.46435,4.68261 -88.32095,51.16582 -3.7705,2.00884 -3.98351,2.27152 -7.51208,5.01935 -10.92158,8.0664 -3.43319,3.46951 -7.39262,6.37562 -11.32812,9.21568 -2.09426,1.58675 -3.69748,3.58587 -5.34717,5.59069 -9.76246,11.86409 -47.35662,-0.0712 -41.59309,19.8639 0.16275,0.0979 0.33767,0.40947 0.48826,0.29373 0.33717,-0.25913 0.30193,-0.82108 0.5967,-1.12757 1.97227,-2.05075 5.53535,-2.22443 6.6476,-5.30522 3.81086,-3.98474 3.10308,-8.89709 2.78169,-14.07459 -0.30455,-4.35906 -0.58676,-8.88826 -3.01505,-12.66842 -2.46953,-3.40275 -4.75684,-6.74933 -4.77978,-11.13726 5.48833,-18.55238 32.58651,-22.35975 49.98584,-26.61728 5.46354,-1.33232 11.05974,-2.10721 16.3939,-3.96268 4.80962,-1.04669 9.60831,-2.49015 14.56912,-1.58667 19.06031,3.90624 -23.70206,25.90006 -37.02648,28.19943 -4.80972,0.79234 -9.51707,2.06449 -14.34684,2.67519 -4.7385,0.54809 -9.32254,1.53571 -13.58899,3.76916 -1.82775,0.62517 -2.4728,0.77597 -4.20526,1.64871 -0.66025,0.33261 -2.56759,1.46706 -1.92824,1.09586 11.47321,-6.66113 45.94989,-26.54564 34.4299,-19.96572 -10.6992,6.11111 -86.0884,49.94786 -4.06733,2.28153 -24.04785,14.42162 -77.37182,44.83121 -6.20665,3.89107 4.86531,-2.79893 -10.76763,6.13644 -5.66274,3.8579 -4.2458,2.00229 -7.44536,5.47419 -11.0106,8.46649 -4.56346,2.41955 -7.16487,6.99139 -10.98772,10.35179 -3.25355,3.92405 -7.35106,6.82633 -10.9669,10.34317 -12.83842,7.38961 -25.46512,15.1599 -38.51526,22.16884 -1.62009,0.87011 -3.87532,-3.83992 -3.67588,-5.17752 0.17344,-1.16327 1.96147,-1.72329 2.09531,-2.83886 3.16722,-2.43489 5.76776,-5.64941 8.43359,-8.58656 3.03144,-2.66953 5.31569,-6.39964 6.66622,-10.18309 1.84997,-3.9636 3.85085,-7.89653 4.93972,-12.15284 1.34603,-3.93665 3.54264,-8.07484 5.76855,-11.56218 6.6616,-15.2256 26.20802,-17.74771 40.3316,-26.21532 11.4281,-6.85155 -23.00932,13.44453 -34.5404,20.12129 -0.58995,0.3416 1.14318,-0.74298 1.71477,-1.11447 12.69209,-7.43755 25.38418,-14.8751 38.07627,-22.31264 3.97323,-2.05298 8.2596,-3.58372 12.70495,-4.17842 6.02491,-0.65331 12.05862,0.31035 18.01026,1.25408 8.81301,1.5958 17.59037,3.4034 26.57027,3.79064 0,0 -34.60188,24.55936 -34.60188,24.55936 z"
       inkscape:connector-curvature="0"
       inkscape:export-filename="/home/renmai/git/eduras/Eduras/src/de/illonis/eduras/images/gameobjects/speedpowerup.png"
       inkscape:export-xdpi="2.4200001"
       inkscape:export-ydpi="2.4200001" />
    <path
       style="fill:#000080;fill-opacity:1;stroke:#00fb00;stroke-opacity:1"
       id="path3134"
       d="m 280.12389,266.44597 c -6.68447,5.63672 -12.72359,11.89369 -18.40772,18.51831 -3.28897,3.817 -6.43385,7.78083 -10.04514,11.30031 -3.52158,2.89157 -7.10665,5.71491 -10.69148,8.53208 -3.12085,2.83849 -5.24667,6.35179 -6.74906,10.24943 -2.2748,4.11872 -2.89721,8.69989 -3.6992,13.25162 -1.42215,4.68391 -2.24016,9.46369 -2.67505,14.32934 -0.64506,5.09488 -0.2606,10.02072 0.73325,15.01778 0.95633,4.36925 2.21913,8.75881 3.74695,12.97085 1.91955,3.77551 3.62362,7.64936 5.4262,11.49433 1.75679,3.89102 3.29905,7.90496 5.32789,11.66651 1.5299,3.79694 3.44307,6.91804 6.61073,9.53315 2.97024,2.72391 5.73293,5.69908 8.81981,8.29674 2.02547,2.217 1.07869,1.01734 2.81824,3.6163 0,0 -36.7084,21.56585 -36.7084,21.56585 l 0,0 c -1.34076,-1.90814 -0.58613,-0.99892 -2.27888,-2.71515 -2.97204,-2.74903 -5.89947,-5.54759 -8.84005,-8.32909 -3.24535,-3.13126 -5.7337,-6.55465 -7.34841,-10.79308 -2.05992,-3.82829 -3.68168,-7.88524 -5.43213,-11.85949 -1.87995,-3.93182 -3.55848,-7.94681 -5.58712,-11.8024 -1.70366,-4.37604 -2.91687,-9.0541 -4.05427,-13.59162 -1.08452,-5.34742 -1.92977,-10.57186 -1.23392,-16.05948 0.29614,-5.04291 0.71438,-10.11918 2.32742,-14.94327 1.48021,-4.54878 0.97199,-9.63729 3.33058,-13.97299 1.11905,-2.0587 1.44738,-4.22384 2.47953,-6.31712 1.59396,-3.23271 0.52072,-0.60209 2.48469,-3.39292 0.44629,-0.63418 0.75725,-1.35351 1.13588,-2.03027 3.02164,-3.40971 6.92318,-6.10154 10.68339,-8.62283 3.85484,-3.27186 7.05941,-7.01764 10.43268,-10.77844 5.40842,-6.98401 11.65668,-13.15758 18.07541,-19.20086 0,0 39.31818,-15.93359 39.31818,-15.93359 z"
       inkscape:connector-curvature="0"
       inkscape:export-filename="/home/renmai/git/eduras/Eduras/src/de/illonis/eduras/images/gameobjects/speedpowerup.png"
       inkscape:export-xdpi="2.4200001"
       inkscape:export-ydpi="2.4200001" />
    <path
       style="fill:#000080;fill-opacity:1;stroke:#00fb00;stroke-opacity:1"
       id="path3136"
       d="m 263.09807,271.31961 c 9.1334,-0.31718 18.12379,0.33478 27.16163,1.54408 5.97351,0.86343 12.00209,1.1315 18.0284,1.26399 5.77511,0.22928 10.32167,0.31133 15.93002,-1.10897 5.03942,-1.59627 9.98771,-3.1483 15.26682,-3.8976 4.64957,-2.11301 9.6493,-2.81311 14.68526,-3.2318 4.56522,-1.87383 9.42577,-2.47591 14.3014,-2.85692 3.64008,-0.5454 7.41673,0.13747 11.05065,-0.30711 1.58647,-0.1941 3.09666,-0.79313 4.64671,-1.18287 3.22421,-1.09622 6.74509,-0.69183 10.02386,-1.34344 1.50712,-0.29952 2.91406,-0.97751 4.38474,-1.42275 5.00295,-1.31473 10.19462,-1.50866 15.33672,-1.67886 5.66907,-0.12981 11.34024,-0.10426 17.01037,-0.0961 4.85008,1.48423 10.06511,1.50937 14.83737,3.14168 4.93727,1.14426 9.3791,3.34043 13.84936,5.63248 3.60122,2.49709 7.23107,5.18739 11.29897,6.87341 3.64464,2.0903 7.31481,4.32674 11.27329,5.78671 3.74482,1.98709 7.42935,4.23187 11.42091,5.70099 3.58939,2.33146 7.4049,4.32592 10.8833,6.80546 3.39513,2.32029 6.74452,4.64805 10.31221,6.72453 3.90022,1.66699 7.54379,4.11348 10.63503,7.02165 3.11406,2.66145 6.18424,5.45724 8.9214,8.51845 2.86664,2.84209 5.87433,5.57173 8.5613,8.59213 0.92337,0.82774 1.85372,4.02904 3.4487,4.18963 0.73129,0.0736 0.49424,-1.96386 0.12655,-1.74932 -12.39829,7.23406 -24.38358,15.15383 -36.57537,22.73074 -3.46647,-1.80242 -6.19476,-4.66624 -9.75372,-6.29118 -3.60972,-2.92388 -7.52472,-5.34223 -11.54588,-7.65233 -3.36714,-2.88763 -7.45681,-4.5874 -10.85066,-7.43909 -3.5199,-2.32742 -7.57732,-3.37378 -11.04106,-5.85159 -3.69087,-1.88468 -7.52531,-3.70967 -11.49588,-4.98089 -4.31211,-1.4419 -8.41482,-3.01859 -12.97278,-3.65947 -4.63569,-0.94279 -9.64174,-1.72589 -14.05832,-3.51239 -0.70988,-0.26128 -1.45344,-0.4448 -2.12965,-0.78383 -1.14254,-0.73199 -2.63572,-1.73793 -3.87253,-2.35197 -1.95822,-0.9722 -3.95607,-1.41905 -5.90491,-2.44645 -4.1496,-1.4024 -8.17293,-3.15625 -12.3817,-4.40571 -3.88795,-2.53518 -8.24464,-3.36673 -12.77194,-3.84063 -5.35122,-1.68135 -10.88593,-2.44907 -16.4573,-2.88681 -5.67681,-0.34682 -11.36725,-0.33533 -17.05223,-0.34172 -5.71582,0.004 -11.43162,0.0174 -17.14744,0.0239 -5.71486,0.006 -11.42972,0.006 -17.14459,0.007 -5.7143,2.9e-4 -11.42859,1.3e-4 -17.14289,6e-5 -5.71428,-7e-5 -11.42856,-9e-5 -17.14283,-1e-4 -5.71429,-10e-6 -11.42857,-10e-6 -17.14286,-10e-6 -4.91685,-0.2319 -9.41958,1.64363 -13.80356,3.56144 -4.59537,0.84018 -8.82696,2.61377 -13.32995,3.76667 -0.79858,0.14327 -1.62289,0.1829 -2.39574,0.42981 -1.39416,0.44541 -2.63385,1.29948 -4.02475,1.75495 -2.29097,0.75022 -4.36038,0.94522 -6.52864,2.0441 -12.77305,6.52386 -29.73873,17.18955 30.93665,-17.86014 0.56606,-0.32699 -1.16225,0.60525 -1.70297,0.97262 -1.1022,0.74882 -2.09952,1.64187 -3.16897,2.43677 -2.92834,2.80971 -4.66128,6.81111 -5.98384,10.60564 -0.51173,1.89314 -1.16422,3.73375 -1.9193,5.53941 -0.0525,0.12558 -0.0712,0.49983 -0.14129,0.38313 -0.44412,-0.73976 -0.25969,-2.71414 -1.0493,-2.36629 -12.46737,5.49243 -24.18897,12.54201 -36.28346,18.81302 2.94547,-2.43762 5.92291,-4.79257 9.1402,-6.90664 3.30957,-2.43714 6.18419,-5.36296 9.27082,-8.05794 13.80604,-9.89046 29.27023,-16.93886 43.73537,-25.99298 11.2007,-7.01081 -22.86152,13.25873 -34.345,19.79606 -0.69275,0.39437 1.31008,-0.90853 1.96512,-1.36279 12.83883,-7.37298 25.58204,-14.91505 38.51651,-22.11894 4.22087,-2.35082 7.90923,0.53253 9.95215,4.02116 1.46412,5.44916 -2.6196,9.24677 -6.22935,12.71275 -2.99032,3.39182 -7.05536,5.46836 -10.54605,8.25988 -74.63715,43.44735 -28.45542,16.49122 -3.5585,2.26979 0.61081,-0.3489 -1.15709,0.80086 -1.75014,1.17916 -1.69775,1.083 -3.26999,2.25359 -4.91215,3.42198 -2.96175,2.82524 -6.60069,4.33062 -8.70117,7.9451 -1.28856,4.45697 -2.40234,9.0072 -3.42097,13.54766 -1.01859,5.18708 -1.14138,10.48731 -1.25362,15.75499 0.0903,5.48517 -0.38423,11.01208 0.18142,16.47662 1.0916,4.98288 1.84646,10.0035 2.2627,15.08552 0.69122,4.14674 1.56198,8.33081 3.85664,11.90736 2.27758,3.53585 4.08863,7.34242 6.2616,10.93449 2.30378,3.14592 3.78445,7.11353 6.70617,9.74274 2.62561,3.1873 5.29895,6.35338 7.84238,9.61314 2.66854,2.97672 5.63539,5.66723 8.2837,8.66087 2.68986,4.15739 6.22198,7.40254 9.75293,10.79741 3.30881,3.00783 6.83955,5.61448 10.67242,7.91661 3.42487,2.44113 6.28742,5.5145 9.49984,8.19889 3.48288,2.12455 6.86888,4.54776 9.79424,7.40997 2.09511,1.78248 4.07427,3.66453 6.17613,5.45526 0,0 -36.09223,22.52654 -36.09223,22.52654 l 0,0 c -2.151,-1.81627 -4.17157,-3.76382 -6.30511,-5.59805 -3.07088,-2.66388 -6.44061,-4.9222 -9.72859,-7.30435 -2.94329,-2.67863 -5.84138,-5.41614 -9.14166,-7.66492 -3.90257,-2.6231 -7.66796,-5.35753 -11.05905,-8.6348 -3.65584,-3.41816 -7.01772,-6.9827 -9.97705,-11.02473 -2.80471,-2.97632 -5.74039,-5.8259 -8.43158,-8.90957 -2.5058,-3.09828 -4.96595,-6.24674 -7.60813,-9.22206 -2.88223,-3.17456 -4.86197,-7.05431 -7.21787,-10.61882 -2.13068,-3.58818 -3.97801,-7.34008 -6.2232,-10.86583 -2.58822,-4.22942 -3.85592,-8.90027 -4.77688,-13.75032 -0.33036,-5.00294 -0.93888,-9.96719 -2.15493,-14.84211 -0.9278,-5.6305 -0.29165,-11.38147 -0.44715,-17.0707 0.0635,-5.47486 0.12318,-10.9699 0.87421,-16.40313 0.8127,-4.83525 2.53361,-9.38674 3.04175,-14.27039 1.4894,-5.34935 3.16003,-7.06872 7.91768,-9.68631 1.82988,-2.07185 4.06404,-3.78926 6.44089,-5.17544 1.20905,-0.70512 94.58128,-55.34798 3.61543,-2.13533 3.69844,-2.42021 6.99093,-5.40368 10.8655,-7.5836 2.55265,-2.84647 5.46788,-5.48901 8.4934,-7.79192 -0.76039,-1.97646 -5.18617,0.96602 -6.13191,1.32551 11.42938,-6.64439 22.85876,-13.28878 34.28814,-19.93317 -24.06733,14.46094 -77.31066,44.84258 -6.08502,3.83809 4.24929,-2.44631 -9.78475,5.58066 -5.23813,3.68894 -3.8288,1.7567 -6.01647,5.26988 -9.44855,7.58897 -2.74408,2.84061 -6.60012,4.04567 -8.96846,7.18948 -12.97169,6.89654 -25.47941,14.7474 -38.91507,20.68963 -2.56503,1.13444 -1.69108,-4.61991 -1.50838,-5.14233 0.47866,-1.36873 1.71515,-2.41612 1.74848,-3.98317 0.9977,-4.53627 3.02093,-8.52941 5.0222,-12.67403 2.96542,-3.55136 -0.32505,0.10109 3.02363,-2.7992 12.70063,-11 27.94643,-19.39949 43.79232,-25.18603 4.43876,-1.15673 8.65897,-2.93622 13.13,-3.97771 4.34832,-1.45446 8.85572,-2.30651 13.08739,-4.10171 4.6995,-1.7415 9.70962,-2.39599 14.71409,-2.20663 5.71429,0 11.42857,0 17.14286,2e-5 5.71429,2e-5 11.42857,6e-5 17.14285,1.3e-4 5.71417,5e-5 11.42834,2e-4 17.14251,-6.1e-4 5.71391,-0.001 11.42783,-0.003 17.14173,-0.0107 5.72022,-0.008 11.44048,-0.0253 17.16068,-0.005 5.76598,0.0423 11.54264,0.0907 17.28551,0.66565 5.60644,0.66127 11.08519,1.867 16.60494,3.01535 4.65674,0.84174 8.97848,2.37355 13.23161,4.44154 4.24798,1.55156 8.57288,2.91696 12.6781,4.8202 3.94802,1.60972 7.61484,3.73587 11.61828,5.17813 4.52842,1.15662 9.05023,2.4043 13.68966,3.02556 4.6097,1.01895 8.92418,2.80535 13.4105,4.241 4.10992,1.68071 8.30075,3.32409 12.03204,5.75504 3.7427,2.09132 7.92494,3.39064 11.25096,6.18016 3.43706,2.45423 7.18751,4.42676 10.53465,7.01391 3.87979,2.41652 7.71712,4.86748 11.46945,7.46727 3.62012,2.1996 7.00812,4.79572 10.39765,7.33142 -23.46227,18.03942 -27.5392,37.04019 -39.67913,19.17409 -2.78364,-2.92495 -5.70109,-5.72191 -8.55334,-8.57895 -2.75236,-2.86259 -5.64326,-5.61009 -8.69513,-8.15073 -3.14163,-2.55539 -6.61032,-4.5924 -10.23112,-6.39798 -3.50307,-2.23916 -6.96672,-4.50825 -10.39703,-6.85216 -3.45999,-2.09078 -6.75785,-4.45627 -10.43858,-6.15497 -3.85075,-1.81624 -7.60505,-3.83358 -11.427,-5.70921 -3.86466,-1.84026 -7.63519,-3.88201 -11.38105,-5.9509 -3.90539,-2.1078 -7.58269,-4.60773 -11.3279,-6.98168 -4.25657,-2.1773 -8.73412,-3.72102 -13.3705,-4.89233 -4.67592,-0.89749 -9.37928,-1.92304 -14.12649,-2.26089 -5.63327,0.005 -11.27061,-0.009 -16.89814,0.28115 -5.01863,0.34313 -10.0144,0.92886 -14.83906,2.4313 -4.7959,1.13015 -9.77327,1.29552 -14.55553,2.55344 -5.26778,0.84198 -10.62659,0.44843 -15.91647,1.15957 -4.83488,0.68153 -9.47069,2.11282 -14.2792,2.88302 -4.95028,0.75524 -9.64809,2.3087 -14.51286,3.42558 -5.15202,1.1258 -10.05343,3.08147 -15.25429,3.99263 -5.44807,0.81269 -10.97212,0.35186 -16.46111,0.29239 -6.08708,-0.25272 -12.15833,-0.74304 -18.18354,-1.67379 -8.93858,-1.17175 -17.88925,-1.40027 -26.90148,-1.04365 0,0 34.33011,-24.94228 34.33011,-24.94228 z"
       inkscape:connector-curvature="0"
       inkscape:export-filename="/home/renmai/git/eduras/Eduras/src/de/illonis/eduras/images/gameobjects/speedpowerup.png"
       inkscape:export-xdpi="2.4200001"
       inkscape:export-ydpi="2.4200001" />
    <path
       style="fill:#000080;fill-opacity:1;stroke:#00fb00;stroke-opacity:1"
       id="path3138"
       d="m 575.61858,750.13692 c 1.05359,-8.70043 2.47932,-17.3893 4.92405,-25.81379 1.10298,-5.05536 3.45313,-9.51425 6.10683,-13.88003 1.91395,-3.84732 3.4071,-7.8963 5.35811,-11.72375 2.22026,-3.81515 2.56186,-7.66144 2.01408,-11.91893 -0.67219,-4.55295 -2.40937,-8.82171 -3.29773,-13.34669 -0.77235,-4.56398 -1.78735,-9.17493 -3.20234,-13.58876 -1.34055,-4.33496 -2.84469,-8.59519 -4.28595,-12.89733 -0.72744,-4.31843 -3.19339,-7.87081 -5.0502,-11.72214 -2.51639,-3.574 -3.81731,-7.74982 -5.53065,-11.7257 -2.09296,-4.64962 -2.14453,-9.76836 -3.02989,-14.69106 -0.86219,-4.22303 -2.2309,-8.35786 -4.17308,-12.20925 -1.71809,-3.45657 -4.16067,-6.60894 -6.97397,-9.24869 -3.2421,-2.31932 -6.66514,-4.26279 -10.19418,-6.1263 -4.343,-1.45476 -8.81448,-1.94562 -13.21185,-3.25025 -4.75005,-0.60396 -9.18548,-2.1395 -13.80059,-3.31036 -4.96106,-0.75482 -9.8015,-1.11326 -14.65482,-2.40976 -0.76868,-0.16982 -1.53736,-0.33965 -2.30604,-0.50947 0,0 34.96184,-24.21608 34.96184,-24.21608 l 0,0 c 0.7807,0.18556 1.5614,0.37111 2.3421,0.55667 4.86988,1.07148 9.92235,1.03505 14.72226,2.49888 4.57324,1.32574 9.21605,2.17554 13.82794,3.34682 4.62867,1.25091 9.55519,1.55638 13.77828,4.04533 3.75457,2.17022 7.59502,4.19267 10.83939,7.12584 2.97099,3.12283 5.77368,6.50855 7.64725,10.41582 2.12433,4.17365 3.69702,8.64158 4.68486,13.21852 1.05054,4.60951 0.78145,9.4825 2.64498,13.91978 1.68564,3.93473 2.97984,8.03303 5.45188,11.57713 1.89676,4.02123 4.58148,7.70942 5.30316,12.20951 1.37487,4.31031 2.99844,8.51209 4.26505,12.85718 1.60855,4.54353 2.58682,9.42724 3.47248,14.1463 0.78219,4.61777 2.57083,8.8963 3.40142,13.47592 0.7776,4.89672 1.27304,9.52828 -0.87205,14.21431 -1.87114,3.89944 -3.92483,7.71203 -5.32956,11.80698 -2.0252,4.53559 -5.73576,8.16203 -6.58339,13.2603 -2.67772,8.11927 -4.6162,16.51912 -5.23187,25.06898 0,0 -38.0178,18.84407 -38.0178,18.84407 z"
       inkscape:connector-curvature="0"
       inkscape:export-filename="/home/renmai/git/eduras/Eduras/src/de/illonis/eduras/images/gameobjects/speedpowerup.png"
       inkscape:export-xdpi="2.4200001"
       inkscape:export-ydpi="2.4200001" />
    <path
       style="fill:#000080;fill-opacity:1;stroke:#00fb00;stroke-opacity:1"
       id="path3140"
       d="m 485.25446,351.22945 c -7.89569,-3.85559 -16.20649,-6.87347 -24.03813,-10.84809 -4.79963,-1.9909 -9.59381,-4.14807 -14.56852,-5.68147 -3.7365,-2.77095 -8.41289,-2.85091 -12.57063,-4.45387 -4.63128,-1.77228 -9.13561,-3.80257 -13.62838,-5.90087 -3.53267,-2.78577 -7.75998,-4.26513 -11.8177,-6.08108 -4.44512,-0.9542 -8.68428,-2.47311 -13.08591,-3.60937 -4.48971,-0.89474 -8.68123,-2.87462 -12.80984,-4.79735 -4.17017,-1.41763 -8.50444,-2.6789 -12.37599,-4.81541 -4.06784,-1.8883 -8.4467,-2.63395 -12.67905,-4.08801 -4.71866,-1.41993 -9.67074,-1.59311 -14.55939,-1.7621 -5.63147,-0.13082 -11.26513,-0.10055 -16.89766,-0.0903 -5.72224,0.0133 -11.44448,0.0199 -17.16673,0.0236 -5.71605,0.003 -11.4321,0.003 -17.14816,0.003 -5.71427,-2e-5 -11.42854,-1.3e-4 -17.14282,-1.8e-4 -5.78721,-0.57302 -11.27958,0.61557 -16.93033,1.57651 -5.08635,1.04908 -9.8721,2.86625 -15.08257,3.56595 -4.75534,0.46123 -9.6382,2.37074 -13.5101,5.17385 -0.70087,0.39406 -1.40174,0.78812 -2.10261,1.18219 11.49124,-6.61685 22.93579,-13.31544 34.47371,-19.85055 2.21723,-1.25584 -2.1849,1.49827 -3.48525,2.56416 -0.42833,0.35109 -0.68984,0.9367 -1.20229,1.14677 -12.72821,5.21793 -25.60669,10.06152 -38.41003,15.09228 1.96617,-4.47994 6.13438,-7.35971 10.12524,-9.93758 13.72488,-9.82933 7.57773,-5.52818 40.57427,-23.62762 3.30208,-1.81128 6.20714,2.19907 7.60571,4.39118 2.20141,4.53564 0.9081,9.33769 0.24985,14.07163 -1.02715,4.62673 -2.14189,9.30918 -3.75796,13.77478 -1.67975,4.635 -4.40958,8.74498 -6.66928,13.09366 -2.76541,3.84354 -3.8425,8.19767 -4.43959,12.80871 -0.86717,4.71683 -1.76112,9.49818 -3.278,14.05791 -1.385,3.85133 -2.61034,7.82989 -1.35485,11.85549 1.19326,3.83666 3.43104,7.01418 5.7106,10.24563 1.84555,3.89203 3.75275,7.67386 6.03161,11.33232 2.43081,3.71022 3.98427,7.77413 5.74656,11.81023 1.73009,3.74805 3.90883,7.28465 5.9723,10.86652 2.21974,3.3417 4.42238,6.38671 7.15667,9.2999 3.35776,4.10519 4.17604,9.24158 4.71174,14.35084 0.096,4.55312 0.0752,8.79998 3.08775,12.43595 2.49837,2.97986 5.23226,5.86804 8.2158,8.38075 3.07966,3.30919 5.06279,7.60229 6.73489,11.77524 1.38504,3.92989 1.34902,8.63791 4.41796,11.73175 0,0 -36.46005,21.99124 -36.46005,21.99124 l 0,0 c -3.05794,-3.81956 -4.17226,-8.2773 -5.12893,-13.00707 -1.351,-3.57601 -3.0299,-7.30607 -5.74004,-10.03556 -3.04351,-2.84422 -6.0831,-5.75699 -8.62749,-9.06166 -3.24118,-4.42756 -4.47682,-9.07503 -4.18707,-14.57494 -0.31588,-4.15028 -0.56398,-8.52468 -3.38813,-11.835 -2.99533,-3.12364 -5.20183,-6.62629 -7.66046,-10.16837 -2.14118,-3.70827 -4.38448,-7.38189 -6.18562,-11.26091 -1.72367,-3.83007 -3.06516,-7.77561 -5.46065,-11.2866 -2.24049,-3.58287 -4.17197,-7.26861 -5.90697,-11.11279 -2.52393,-3.53323 -4.87225,-7.11336 -6.29653,-11.25678 -1.85037,-4.80612 -1.60422,-9.58287 0.0716,-14.44416 1.5885,-4.33154 2.53177,-8.72143 3.75717,-13.18447 0.38836,-5.00957 0.88794,-10.13584 3.58793,-14.51258 2.76527,-3.81144 4.56638,-8.31423 7.00434,-12.34528 1.63863,-4.25554 2.70044,-8.58389 4.21507,-12.89988 0.4215,-3.71984 1.71727,-7.71984 1.0855,-11.3605 -1.32052,-1.79265 -6.28415,2.04069 -3.97837,0.69236 40.2301,-23.52495 45.17914,-26.52298 32.10813,-18.64364 -2.49494,2.0279 -5.46124,3.30237 -7.94572,5.3477 -0.53849,0.44331 -0.90851,1.06986 -1.45317,1.50557 -0.47071,0.37655 -1.04259,0.60534 -1.56389,0.90801 -13.28605,6.19098 -26.54109,12.44894 -39.85815,18.57293 -0.49743,0.22875 0.97664,-0.51776 1.38614,-0.88117 2.839,-2.51948 0.0636,-0.98829 3.34924,-2.94881 33.85455,-20.20116 25.53362,-15.49314 40.23341,-23.77494 4.63837,-1.97957 9.31624,-3.60828 14.38801,-4.02718 5.04522,-1.10396 9.8916,-2.99138 15.06213,-3.51282 5.76263,-0.95764 11.51181,-1.23949 17.35524,-1.01107 5.71423,7e-5 11.42846,2.1e-4 17.14269,3e-5 5.71533,-3.5e-4 11.43065,-7.4e-4 17.14598,-0.005 5.72217,-0.006 11.44433,-0.0161 17.1665,-0.0239 5.68078,1.8e-4 11.36548,-0.0216 17.04109,0.25665 5.17959,0.34357 10.3685,0.88836 15.28102,2.68325 4.35944,1.44417 8.96264,2.18579 12.99189,4.52697 4.08458,1.66736 8.24032,3.12806 12.33538,4.75699 3.97176,1.84498 8.15002,3.23647 12.41113,4.24531 4.49956,1.37662 9.13313,2.32121 13.47389,4.15216 4.02059,1.90809 8.13766,3.57064 11.81328,6.13125 4.33153,2.07023 8.80405,3.88305 13.34401,5.43807 4.37094,1.11504 8.58364,2.4615 12.61145,4.53145 4.9729,1.90941 9.98667,3.77543 14.72831,6.21392 7.93621,3.81908 16.03368,7.29548 24.09926,10.82895 0,0 -35.45143,23.32578 -35.45143,23.32578 z"
       inkscape:connector-curvature="0"
       inkscape:export-filename="/home/renmai/git/eduras/Eduras/src/de/illonis/eduras/images/gameobjects/speedpowerup.png"
       inkscape:export-xdpi="2.4200001"
       inkscape:export-ydpi="2.4200001" />
    <path
       style="fill:#550000;fill-opacity:1;stroke:#00fb00;stroke-width:2.85714293;stroke-opacity:1"
       d="M 295.84827,883.46056 C 155.25928,853.95304 46.549214,736.9343 19.376465,585.85807 12.907288,549.89044 12.943286,482.42984 19.45075,446.6479 33.710512,368.23917 69.86442,298.16802 124.14287,243.74045 c 51.97153,-52.11432 109.33414,-82.74566 179.73131,-95.97559 36.8894,-6.93272 98.16777,-4.30074 135.98297,5.84064 57.54789,15.43335 108.41052,45.33569 153.0586,89.9838 129.70094,129.70092 147.83443,337.58474 43.13106,494.45777 -30.12152,45.12989 -82.84937,92.26517 -129.87109,116.09634 -25.54791,12.94798 -65.41754,26.14435 -94.39808,31.24463 -32.92215,5.79395 -83.11663,4.9594 -115.92937,-1.92748 l 0,0 z m 160.71374,-51.38395 c 47.81977,-14.90568 114.22251,-49.02925 145.34394,-74.69051 11.1468,-9.19114 13.4294,-12.68617 13.19989,-20.21123 -0.34952,-11.45828 4.34534,-28.6408 11.82394,-43.27394 3.18149,-6.22512 5.78451,-15.6824 5.78451,-21.01617 0,-12.56075 -7.23751,-40.6166 -15.61291,-60.52257 -3.63646,-8.64286 -8.07866,-21.13609 -9.87154,-27.76272 -1.79286,-6.62663 -6.7566,-15.42408 -11.03052,-19.54988 -11.15648,-10.76992 -43.62617,-22.76923 -76.50317,-28.27218 -15.62574,-2.6154 -33.10554,-5.98002 -38.84403,-7.47694 -5.73848,-1.49691 -20.0532,-3.94131 -31.81048,-5.432 -21.81509,-2.76586 -38.97197,-8.88377 -49.18449,-17.53851 -3.14286,-2.66346 -12.78571,-7.86009 -21.42857,-11.54806 -22.69991,-9.68626 -45.708,-23.32857 -45.71137,-27.10389 -0.002,-1.7906 -8.21849,-9.50488 -18.25972,-17.14285 -14.98582,-11.39915 -18.56285,-15.72989 -19.96505,-24.1718 -0.93952,-5.65649 -4.09509,-13.37078 -7.01237,-17.14285 -2.91726,-3.77208 -10.585,-17.14404 -17.03941,-29.71547 l -11.73528,-22.85714 3.84206,-16.22406 c 2.11313,-8.92324 5.90799,-19.1736 8.43303,-22.77859 2.52503,-3.60499 4.59097,-8.83988 4.59097,-11.63308 0,-4.60728 3.46102,-5.07856 37.29665,-5.07856 34.93475,0 39.16523,0.62518 66.80292,9.87199 16.22846,5.42959 35.12354,12.43935 41.98906,15.57723 6.86554,3.1379 23.89145,10.45042 37.8354,16.25005 24.94934,10.37707 25.48628,10.4658 33.75948,5.57871 7.70709,-4.55269 8.8262,-4.58664 13.4438,-0.40774 6.42246,5.81223 12.85503,5.80212 17.69346,-0.0277 2.0934,-2.52238 11.57226,-9.79756 21.06411,-16.16705 9.49189,-6.3695 19.18655,-13.36482 21.54369,-15.54517 2.35714,-2.18034 6.58603,-5.53186 9.39754,-7.44781 4.911,-3.3467 4.911,-4.02939 0,-17.37771 -10.71757,-29.1309 -36.02531,-44.28879 -90.83446,-54.40473 -14.13828,-2.60945 -34.06308,-6.79521 -44.27737,-9.30168 -53.34588,-13.09048 -67.6246,-15.07434 -108.83843,-15.12179 -49.57435,-0.0571 -58.63413,2.40651 -107.69199,29.2842 -21.36963,11.70793 -41.484,25.68296 -58.70331,40.78577 l -26.19484,22.97513 -1.76676,24.16773 c -0.97171,13.29226 -3.22171,31.09322 -5,39.55771 -4.09812,19.50675 -4.1213,44.75659 -0.0625,68.06408 2.89195,16.6068 4.80975,20.01898 21.81038,38.80546 10.25179,11.32869 23.28923,25.27586 28.9721,30.99369 5.68286,5.71785 13.82012,14.26565 18.08279,18.99511 12.81631,14.2198 59.68572,29.71683 105.7066,34.95114 41.17863,4.68355 131.55689,36.33055 128.65089,45.04858 -0.63549,1.90642 0.77045,3.46625 3.12428,3.46625 6.943,0 49.46483,17.0218 59.39492,23.77626 5.03245,3.42306 13.3822,13.93803 18.55497,23.3666 8.51585,15.52209 9.41783,19.45426 9.54011,41.59026 l 0.13514,24.4474 -12.14285,12.84251 c -15.8982,16.81423 -34.00557,26.997 -54.86357,30.8528 -26.73012,4.94134 -42.19272,3.89789 -59.13843,-3.99077 -8.40606,-3.91323 -19.44849,-7.12751 -24.53877,-7.14286 -34.64489,-0.10457 -102.02629,-52.16497 -128.28118,-99.11308 -11.50836,-20.57886 -18.58986,-26.65609 -30.95664,-26.56637 -18.51086,0.13428 -61.38084,25.854 -67.45484,40.46931 -4.86028,11.69486 -4.95687,37.37754 -0.19317,51.366 8.01697,23.54163 58.01894,62.1138 110.16672,84.98403 34.71556,15.22506 116.33022,36.65466 141.25045,37.08817 13.84197,0.24086 27.02734,-2.45683 55.71428,-11.39869 l -8e-5,0 z"
       id="path3142"
       inkscape:connector-curvature="0"
       inkscape:export-filename="/home/renmai/git/eduras/Eduras/src/de/illonis/eduras/images/gameobjects/speedpowerup.png"
       inkscape:export-xdpi="2.4200001"
       inkscape:export-ydpi="2.4200001" />
  </g>
</svg>
