<?xml version="1.0" encoding="UTF-8" standalone="no"?>
<!-- Created with Inkscape (http://www.inkscape.org/) -->

<svg
   xmlns:dc="http://purl.org/dc/elements/1.1/"
   xmlns:cc="http://creativecommons.org/ns#"
   xmlns:rdf="http://www.w3.org/1999/02/22-rdf-syntax-ns#"
   xmlns:svg="http://www.w3.org/2000/svg"
   xmlns="http://www.w3.org/2000/svg"
   xmlns:sodipodi="http://sodipodi.sourceforge.net/DTD/sodipodi-0.dtd"
   xmlns:inkscape="http://www.inkscape.org/namespaces/inkscape"
   width="465.85715"
   height="465.85715"
   id="svg2"
   version="1.1"
   inkscape:version="0.48.3.1 r9886"
   sodipodi:docname="minimap.svg"
   inkscape:export-filename="/home/illonis/git/eduras/Eduras/src/de/illonis/eduras/images/gui/artwork/minimap.png"
   inkscape:export-xdpi="28.98"
   inkscape:export-ydpi="28.98">
  <defs
     id="defs4">
    <inkscape:path-effect
       effect="skeletal"
       id="path-effect3877"
       is_visible="true"
       pattern="M 0,5 C 0,2.24 2.24,0 5,0 7.76,0 10,2.24 10,5 10,7.76 7.76,10 5,10 2.24,10 0,7.76 0,5 z"
       copytype="single_stretched"
       prop_scale="1"
       scale_y_rel="false"
       spacing="0"
       normal_offset="0"
       tang_offset="0"
       prop_units="false"
       vertical_pattern="false"
       fuse_tolerance="0" />
  </defs>
  <sodipodi:namedview
     id="base"
     pagecolor="#ffffff"
     bordercolor="#666666"
     borderopacity="1.0"
     inkscape:pageopacity="0.0"
     inkscape:pageshadow="2"
     inkscape:zoom="0.7"
     inkscape:cx="206.68779"
     inkscape:cy="316.34955"
     inkscape:document-units="px"
     inkscape:current-layer="layer1"
     showgrid="false"
     inkscape:window-width="1280"
     inkscape:window-height="744"
     inkscape:window-x="0"
     inkscape:window-y="24"
     inkscape:window-maximized="1"
     fit-margin-top="0"
     fit-margin-left="0"
     fit-margin-right="0"
     fit-margin-bottom="0" />
  <metadata
     id="metadata7">
    <rdf:RDF>
      <cc:Work
         rdf:about="">
        <dc:format>image/svg+xml</dc:format>
        <dc:type
           rdf:resource="http://purl.org/dc/dcmitype/StillImage" />
        <dc:title></dc:title>
      </cc:Work>
    </rdf:RDF>
  </metadata>
  <g
     inkscape:label="Ebene 1"
     inkscape:groupmode="layer"
     id="layer1"
     transform="translate(-55.642857,-139.43361)">
    <rect
       style="color:#000000;fill:#000000;fill-opacity:1;fill-rule:nonzero;stroke:#bebebe;stroke-width:3;stroke-linejoin:round;stroke-miterlimit:4;stroke-opacity:1;stroke-dasharray:none;marker:none;visibility:visible;display:inline;overflow:visible;enable-background:accumulate"
       id="rect2985"
       width="462.85715"
       height="462.85715"
       x="57.142857"
       y="140.93361" />
    <path
       style="fill:none;stroke:#626262;stroke-width:5;stroke-linecap:butt;stroke-linejoin:miter;stroke-miterlimit:4;stroke-opacity:1;stroke-dasharray:none"
       d="m 147.14285,488.07647 c 14.28572,-8.57143 90,-35.71428 137.14286,-141.42857"
       id="path3039"
       inkscape:connector-curvature="0" />
    <path
       style="fill:none;stroke:#626262;stroke-width:5;stroke-linecap:butt;stroke-linejoin:miter;stroke-miterlimit:4;stroke-opacity:1;stroke-dasharray:none"
       d="m 293.75922,337.51264 c 8.57143,-14.28572 35.71428,-90 141.42857,-137.14286"
       id="path3039-3"
       inkscape:connector-curvature="0" />
    <path
       sodipodi:type="arc"
       style="color:#000000;fill:#ececec;fill-opacity:1;fill-rule:nonzero;stroke:none;stroke-width:0;marker:none;visibility:visible;display:inline;overflow:visible;enable-background:accumulate"
       id="path2987"
       sodipodi:cx="235"
       sodipodi:cy="230.21933"
       sodipodi:rx="13.571428"
       sodipodi:ry="13.571428"
       d="m 248.57143,230.21933 c 0,7.49529 -6.07614,13.57143 -13.57143,13.57143 -7.49529,0 -13.57143,-6.07614 -13.57143,-13.57143 0,-7.49529 6.07614,-13.57143 13.57143,-13.57143 7.49529,0 13.57143,6.07614 13.57143,13.57143 z"
       transform="translate(-80.000004,-22.857143)" />
    <path
       sodipodi:type="arc"
       style="color:#000000;fill:#ececec;fill-opacity:1;fill-rule:nonzero;stroke:none;stroke-width:0;marker:none;visibility:visible;display:inline;overflow:visible;enable-background:accumulate"
       id="path2987-6"
       sodipodi:cx="235"
       sodipodi:cy="230.21933"
       sodipodi:rx="13.571428"
       sodipodi:ry="13.571428"
       d="m 248.57143,230.21933 c 0,7.49529 -6.07614,13.57143 -13.57143,13.57143 -7.49529,0 -13.57143,-6.07614 -13.57143,-13.57143 0,-7.49529 6.07614,-13.57143 13.57143,-13.57143 7.49529,0 13.57143,6.07614 13.57143,13.57143 z"
       transform="translate(54.999996,109.28571)" />
    <path
       sodipodi:type="arc"
       style="color:#000000;fill:#008000;fill-opacity:1;fill-rule:nonzero;stroke:none;stroke-width:0;marker:none;visibility:visible;display:inline;overflow:visible;enable-background:accumulate"
       id="path2987-0"
       sodipodi:cx="235"
       sodipodi:cy="230.21933"
       sodipodi:rx="13.571428"
       sodipodi:ry="13.571428"
       d="m 248.57143,230.21933 c 0,7.49529 -6.07614,13.57143 -13.57143,13.57143 -7.49529,0 -13.57143,-6.07614 -13.57143,-13.57143 0,-7.49529 6.07614,-13.57143 13.57143,-13.57143 7.49529,0 13.57143,6.07614 13.57143,13.57143 z"
       transform="translate(139.28571,260.71428)" />
    <path
       sodipodi:type="arc"
       style="color:#000000;fill:#ff0000;fill-opacity:1;fill-rule:nonzero;stroke:none;stroke-width:0;marker:none;visibility:visible;display:inline;overflow:visible;enable-background:accumulate"
       id="path2987-7"
       sodipodi:cx="235"
       sodipodi:cy="230.21933"
       sodipodi:rx="13.571428"
       sodipodi:ry="13.571428"
       d="m 248.57143,230.21933 c 0,7.49529 -6.07614,13.57143 -13.57143,13.57143 -7.49529,0 -13.57143,-6.07614 -13.57143,-13.57143 0,-7.49529 6.07614,-13.57143 13.57143,-13.57143 7.49529,0 13.57143,6.07614 13.57143,13.57143 z"
       transform="translate(-85.000001,259.28571)" />
    <path
       sodipodi:type="arc"
       style="color:#000000;fill:#ff0000;fill-opacity:1;fill-rule:nonzero;stroke:none;stroke-width:0;marker:none;visibility:visible;display:inline;overflow:visible;enable-background:accumulate"
       id="path2987-2"
       sodipodi:cx="235"
       sodipodi:cy="230.21933"
       sodipodi:rx="13.571428"
       sodipodi:ry="13.571428"
       d="m 248.57143,230.21933 c 0,7.49529 -6.07614,13.57143 -13.57143,13.57143 -7.49529,0 -13.57143,-6.07614 -13.57143,-13.57143 0,-7.49529 6.07614,-13.57143 13.57143,-13.57143 7.49529,0 13.57143,6.07614 13.57143,13.57143 z"
       transform="translate(203.57143,-29.285719)" />
    <rect
       style="color:#000000;fill:#0000ff;fill-opacity:1;fill-rule:nonzero;stroke:none;stroke-width:5;marker:none;visibility:visible;display:inline;overflow:visible;enable-background:accumulate"
       id="rect3827"
       width="31.428572"
       height="32.857143"
       x="135.71428"
       y="318.07645" />
    <path
       sodipodi:type="star"
       style="color:#000000;fill:#0000ff;fill-opacity:1;fill-rule:nonzero;stroke:none;stroke-width:5;marker:none;visibility:visible;display:inline;overflow:visible;enable-background:accumulate"
       id="path3829"
       sodipodi:sides="3"
       sodipodi:cx="258.57144"
       sodipodi:cy="265.21933"
       sodipodi:r1="34.522987"
       sodipodi:r2="17.261496"
       sodipodi:arg1="0.52359878"
       sodipodi:arg2="1.5707963"
       inkscape:flatsided="false"
       inkscape:rounded="0"
       inkscape:randomized="0"
       d="m 288.46923,282.48082 -29.89779,1e-5 -29.89778,-1e-5 14.94889,-25.89224 14.94889,-25.89224 14.9489,25.89224 z"
       inkscape:transform-center-y="-3.6307436"
       transform="matrix(0.85665448,0,0,0.42067588,-70.649218,200.79082)" />
    <rect
       style="color:#000000;fill:#ffff00;fill-opacity:1;fill-rule:nonzero;stroke:none;stroke-width:5;marker:none;visibility:visible;display:inline;overflow:visible;enable-background:accumulate"
       id="rect3827-7"
       width="31.428572"
       height="32.857143"
       x="449.14282"
       y="468.90939" />
    <path
       sodipodi:type="star"
       style="color:#000000;fill:#ffff00;fill-opacity:1;fill-rule:nonzero;stroke:none;stroke-width:5;marker:none;visibility:visible;display:inline;overflow:visible;enable-background:accumulate"
       id="path3829-6"
       sodipodi:sides="3"
       sodipodi:cx="258.57144"
       sodipodi:cy="265.21933"
       sodipodi:r1="34.522987"
       sodipodi:r2="17.261496"
       sodipodi:arg1="0.52359878"
       sodipodi:arg2="1.5707963"
       inkscape:flatsided="false"
       inkscape:rounded="0"
       inkscape:randomized="0"
       d="m 288.46923,282.48082 -29.89779,1e-5 -29.89778,-1e-5 14.94889,-25.89224 14.94889,-25.89224 14.9489,25.89224 z"
       inkscape:transform-center-y="-3.6307436"
       transform="matrix(0.85665448,0,0,0.42067588,242.77933,351.62375)" />
    <path
       style="color:#000000;fill:#5b5b26;fill-opacity:1;fill-rule:nonzero;stroke:none;stroke-width:3;marker:none;visibility:visible;display:inline;overflow:visible;enable-background:accumulate"
       id="path3881"
       d="m 463.81419,274.86717 c 0.30413,0.36737 2.12123,2.55346 2.19105,2.68588 0.64457,1.22249 1.08735,2.54225 1.57094,3.8369 2.30254,6.16432 3.77251,12.40604 5.15701,18.82748 2.84295,19.66243 -1.08732,39.14589 -4.47101,58.44352 -2.62312,11.0949 -4.84337,22.83886 -10.98247,32.66755 -0.89641,1.43516 -1.96754,2.75349 -2.95132,4.13023 -1.09962,1.22513 -2.12232,2.52393 -3.29887,3.67539 -7.12078,6.96892 -25.42617,15.88716 -30.86115,18.96385 0,0 15.08294,-12.12682 15.08294,-12.12682 l 0,0 c -32.29119,19.33118 -6.43244,3.85583 -6.28047,3.75314 3.68952,-2.49315 4.1814,-3.31565 7.28175,-6.48187 2.89963,-3.64442 3.7514,-4.39703 6.01959,-8.59036 4.73715,-8.75786 7.22009,-18.5748 9.80013,-28.11177 3.67276,-18.85837 7.44052,-38.15797 4.00911,-57.35546 -1.76372,-7.11125 -3.43278,-14.82986 -7.80769,-20.91243 -0.30636,-0.42594 -2.16529,-2.17203 -2.63406,-2.61957 0,0 18.17452,-10.78566 18.17452,-10.78566 z"
       inkscape:connector-curvature="0" />
    <path
       style="color:#000000;fill:#5b5b26;fill-opacity:1;fill-rule:nonzero;stroke:none;stroke-width:3;marker:none;visibility:visible;display:inline;overflow:visible;enable-background:accumulate"
       id="path3883"
       d="m 357.03317,440.87355 c -8.30549,5.41007 -16.71816,10.65466 -25.00668,16.09074 -11.31348,7.92534 -21.43933,17.41538 -31.18063,27.17045 -1.25417,1.31578 -2.50835,2.63156 -3.76252,3.94733 0,0 -18.00341,7.49188 -18.00341,7.49188 l 0,0 c 1.33869,-1.36358 2.67737,-2.72716 4.01606,-4.09074 9.7367,-9.65423 19.77854,-19.1006 30.70579,-27.40175 7.90496,-5.20755 15.95733,-10.17914 23.7727,-15.52182 0,0 19.45869,-7.68609 19.45869,-7.68609 z"
       inkscape:connector-curvature="0" />
    <path
       style="color:#000000;fill:#5b5b26;fill-opacity:1;fill-rule:nonzero;stroke:none;stroke-width:3;marker:none;visibility:visible;display:inline;overflow:visible;enable-background:accumulate"
       id="path3885"
       d="m 137.8152,561.51919 c -4.93243,-0.0475 -9.81224,-0.48256 -14.65245,-1.42669 -9.93206,-1.37792 -19.54847,-4.17799 -29.09562,-7.15373 0,0 16.2754,-11.09186 16.2754,-11.09186 l 0,0 c 9.59191,2.96754 19.24022,5.78053 29.29458,6.66472 5.09231,0.61379 10.19625,0.93072 15.32349,0.5507 0,0 -17.1454,12.45686 -17.1454,12.45686 z"
       inkscape:connector-curvature="0" />
    <path
       style="color:#000000;fill:#ffff00;fill-opacity:1;fill-rule:nonzero;stroke:#bebebe;stroke-width:3;stroke-linecap:round;stroke-linejoin:round;stroke-miterlimit:4;stroke-opacity:1;stroke-dasharray:none;stroke-dashoffset:0;marker:none;visibility:visible;display:inline;overflow:visible;enable-background:accumulate"
       id="path3887"
       d="m 178.94747,240.33358 c -31.56688,19.04912 -17.51253,10.55592 -10.88611,5.29145 4.84246,-4.07232 8.68684,-9.03188 12.13105,-14.29709 0,0 18.35838,-8.07872 18.35838,-8.07872 l 0,0 c -3.24856,5.2454 -6.72833,10.27371 -11.18078,14.58804 -7.54791,6.5388 -15.65193,11.03651 -24.95043,15.71707 0,0 16.52789,-13.22075 16.52789,-13.22075 z"
       inkscape:connector-curvature="0"
       transform="translate(55.642857,139.43361)" />
    <path
       style="color:#000000;fill:#5b5b26;fill-opacity:1;fill-rule:nonzero;stroke:none;stroke-width:3;marker:none;visibility:visible;display:inline;overflow:visible;enable-background:accumulate"
       id="path3889"
       d="m 261.8797,246.34551 c 0.12531,-6.25832 -1.88172,-12.04376 -4.2551,-17.72807 0,0 17.7366,-9.9086 17.7366,-9.9086 l 0,0 c 2.23709,5.78208 4.36795,11.56376 5.13161,17.7623 0,0 -18.61311,9.87437 -18.61311,9.87437 z"
       inkscape:connector-curvature="0" />
    <path
       style="color:#000000;fill:#5b5b26;fill-opacity:1;fill-rule:nonzero;stroke:none;stroke-width:3;marker:none;visibility:visible;display:inline;overflow:visible;enable-background:accumulate"
       id="path3891"
       d="m 196.51776,174.19809 c 2.75395,2.12257 5.35591,4.39752 7.66954,6.99886 3.72608,4.34489 5.87009,9.39755 7.25032,14.88551 1.06799,6.85603 0.69698,13.85263 -0.24234,20.69982 -0.454,4.02086 -1.51669,7.94199 -2.15032,11.92584 0.46565,3.62118 1.20636,6.34446 1.00093,10.13885 -0.81645,5.50096 -2.97953,10.57982 -6.18764,15.08097 -11.29929,11.9822 -26.92167,18.95106 -42.11082,24.81598 -14.71265,4.64027 -30.0986,6.40631 -45.26278,8.94484 -7.10104,1.67951 -14.66468,1.35013 -21.666106,3.48851 -0.946186,0.28899 -3.610975,1.59817 -2.757513,1.09779 5.252626,-3.07961 10.653049,-5.89991 15.979569,-8.84987 -1.34757,1.31808 -0.86712,0.61003 -1.56459,2.03509 0,0 -18.925274,8.99106 -18.925274,8.99106 l 0,0 c 0.390852,-2.34 0.0084,-1.18726 1.23334,-3.42852 6.474071,-3.76295 12.841664,-7.71537 19.422214,-11.28886 1.02929,-0.55894 5.46884,-1.16549 6.26231,-1.26408 5.6729,-0.70489 11.39477,-1.05762 17.03197,-2.05989 15.34022,-2.34869 30.86339,-4.3759 45.53534,-9.66982 1.77375,-0.70356 3.56632,-1.36139 5.32124,-2.11067 7.00623,-2.99139 13.83919,-7.03936 -6.56599,4.76874 -1.3134,0.76004 2.58264,-1.59943 3.8088,-2.49341 1.08097,-0.78814 2.10655,-1.65267 3.10262,-2.5457 0.82656,-0.74105 1.57262,-1.56724 2.35893,-2.35087 3.32216,-4.03801 5.61455,-8.78128 6.56561,-13.95114 0.0748,-0.73983 0.23049,-1.47591 0.22446,-2.21948 -0.0224,-2.76128 -1.48991,-5.16559 -1.58942,-7.90362 0.5656,-4.09452 2.07906,-8.04322 2.5905,-12.16531 1.18605,-6.59786 1.86872,-13.35294 0.72849,-20.01104 -1.36242,-5.11492 -3.4492,-9.86985 -7.08901,-13.8085 -2.34784,-2.42084 -4.86196,-4.68552 -7.84176,-6.31079 0,0 17.86738,-11.44029 17.86738,-11.44029 z"
       inkscape:connector-curvature="0" />
  </g>
</svg>
