<?xml version="1.0" encoding="UTF-8" standalone="no"?>
<!-- Created with Inkscape (http://www.inkscape.org/) -->

<svg
   xmlns:dc="http://purl.org/dc/elements/1.1/"
   xmlns:cc="http://creativecommons.org/ns#"
   xmlns:rdf="http://www.w3.org/1999/02/22-rdf-syntax-ns#"
   xmlns:svg="http://www.w3.org/2000/svg"
   xmlns="http://www.w3.org/2000/svg"
   xmlns:sodipodi="http://sodipodi.sourceforge.net/DTD/sodipodi-0.dtd"
   xmlns:inkscape="http://www.inkscape.org/namespaces/inkscape"
   width="744.09448819"
   height="1052.3622047"
   id="svg2"
   version="1.1"
   inkscape:version="0.48.4 r9939"
   sodipodi:docname="New document 1">
  <defs
     id="defs4" />
  <sodipodi:namedview
     id="base"
     pagecolor="#ffffff"
     bordercolor="#666666"
     borderopacity="1.0"
     inkscape:pageopacity="0.0"
     inkscape:pageshadow="2"
     inkscape:zoom="0.35"
     inkscape:cx="380.71429"
     inkscape:cy="514.28571"
     inkscape:document-units="px"
     inkscape:current-layer="layer1"
     showgrid="false"
     inkscape:window-width="1920"
     inkscape:window-height="1023"
     inkscape:window-x="0"
     inkscape:window-y="22"
     inkscape:window-maximized="1" />
  <metadata
     id="metadata7">
    <rdf:RDF>
      <cc:Work
         rdf:about="">
        <dc:format>image/svg+xml</dc:format>
        <dc:type
           rdf:resource="http://purl.org/dc/dcmitype/StillImage" />
        <dc:title></dc:title>
      </cc:Work>
    </rdf:RDF>
  </metadata>
  <g
     inkscape:label="Layer 1"
     inkscape:groupmode="layer"
     id="layer1">
    <path
       style="fill:#ff0000;fill-opacity:1;stroke:#ffffff;stroke-opacity:1"
       id="path2989"
       d="m 244.43458,738.50081 c 2.28504,-9.23595 3.65022,-18.66021 4.56291,-28.12032 0.29238,-6.61214 0.74565,-13.14632 1.83657,-19.6761 1.03856,-5.43993 1.03837,-10.99495 2.16455,-16.41404 1.31943,-4.87585 1.84436,-9.88266 2.14724,-14.90756 -0.2091,-5.2525 0.79462,-10.32546 1.77654,-15.44415 0.79379,-5.39735 2.32691,-10.62931 3.2015,-16.01328 0.40568,-5.11207 1.99476,-9.99725 2.87683,-15.02733 0.75385,-5.47146 0.71058,-10.97807 1.59507,-16.4335 1.1298,-5.56912 1.67877,-11.21588 1.98429,-16.88203 0.23942,-5.68534 0.2322,-11.37717 0.23694,-17.06641 -0.003,-5.71401 -0.0116,-11.42803 -0.0161,-17.14205 0.20136,-5.01497 -1.23115,-9.87609 -1.95971,-14.80203 -0.59621,-4.57418 -1.61098,-9.18846 -3.02026,-13.58678 -1.93774,-4.66883 -2.731,-9.61955 -3.21156,-14.61573 -1.0079,-5.13915 -1.7904,-10.30181 -3.29568,-15.32272 -1.33992,-5.20533 -2.48033,-10.45751 -3.71093,-15.69355 -1.89533,-5.60411 -3.29755,-11.29978 -4.10073,-17.15797 -0.68656,-4.5795 -2.48135,-8.78477 -4.06537,-13.0869 -0.99385,-5.41416 -2.47716,-10.61087 -4.45456,-15.74277 -1.74713,-5.0005 -2.61817,-10.1912 -4.66528,-15.0921 -2.39566,-5.17969 -4.65612,-10.40873 -6.78335,-15.70742 -1.95413,-5.41271 -3.72696,-10.87849 -5.95329,-16.18488 -1.58716,-4.20816 -3.57991,-8.25668 -5.65113,-12.24676 -1.68823,-4.56317 -4.21669,-8.71109 -6.23139,-13.11655 -2.11449,-3.90487 -4.32399,-7.78846 -6.10533,-11.86063 -2.03065,-3.71348 -3.7848,-7.53507 -5.926,-11.19311 -2.3512,-4.08599 -4.80728,-8.10457 -7.17284,-12.18999 -2.66203,-3.15545 -4.28146,-6.9915 -6.89592,-10.17666 -2.38936,-3.11014 -4.98178,-6.16286 -7.91832,-8.77892 -2.77185,-3.26665 -6.1947,-5.86846 -9.07813,-9.02678 -3.44899,-2.71744 -6.86395,-5.52545 -10.4166,-8.12202 -3.55973,-2.35116 -5.37436,-6.38702 -8.59447,-9.02092 -2.7476,-2.73455 -6.21199,-4.96793 -9.83471,-6.38371 -0.66771,-0.17047 -1.35799,-0.26914 -2.00313,-0.5114 -1.53458,-0.75208 -2.4966,-1.28044 -4.0951,-1.84982 -2.18974,-0.77996 -4.27717,-1.10048 -6.42095,-2.04727 -4.50495,-1.94788 -8.94212,-3.98132 -13.37791,-6.08374 -4.17035,-1.68571 -8.11691,-3.85717 -12.125133,-5.90176 -0.640408,-0.23649 -1.309051,-0.40732 -1.921224,-0.70947 -4.494745,-2.21846 0.446905,-0.28274 -3.817182,-2.15844 -2.034199,-0.8948 -4.063917,-1.26614 -6.080739,-2.2437 -1.962912,-0.98978 -4.081815,-1.457 -6.211918,-1.90885 0,0 35.039346,-24.11462 35.039346,-24.11462 l 0,0 c 2.24132,0.68614 4.46123,1.41602 6.586,2.42049 4.14916,1.50792 8.07459,3.37674 12.00476,5.38436 3.92101,2.09965 7.96844,3.96874 12.01795,5.80406 4.3117,2.10899 8.75046,3.96869 13.19796,5.76708 4.31773,1.33902 8.52554,2.90148 12.69445,4.65515 3.8172,2.01514 7.5517,4.34531 10.55645,7.47872 2.86604,2.85554 4.98255,6.3579 8.37753,8.70307 3.61109,2.86818 7.41477,5.52663 10.74911,8.71521 2.95308,2.97641 6.2,5.65974 8.99411,8.80153 2.94645,2.91572 5.78895,5.9764 8.24323,9.31998 2.61059,3.43667 4.5268,7.3042 7.17943,10.71264 2.34847,4.076 4.76182,8.09744 7.13598,12.15294 2.2812,3.79469 4.09475,7.78884 6.21662,11.66609 1.70817,4.07498 3.98802,7.90183 6.04135,11.80859 1.92993,4.35724 4.51009,8.39952 6.15038,12.89606 2.11757,4.09996 4.17673,8.25623 5.77327,12.58701 2.20137,5.34301 4.024,10.81185 5.93603,16.26521 2.08853,5.2727 4.36114,10.45017 6.77773,15.57639 2.18252,4.92938 3.1543,10.11957 4.71734,15.24927 1.99524,5.14703 3.80141,10.2919 4.56477,15.78968 1.63287,4.62002 3.62338,9.07608 4.43693,13.95934 0.64479,5.74323 1.87708,11.34439 3.90578,16.77185 1.16163,5.15911 2.48354,10.26366 3.60408,15.42793 1.61049,5.29972 2.45147,10.71172 3.70277,16.10554 0.34933,4.67332 0.91043,9.33213 2.7734,13.68491 1.62411,4.58079 2.62349,9.52892 3.36731,14.31129 0.6694,5.13109 2.2414,10.15384 2.18947,15.34245 0.004,5.71518 0.0106,11.43036 0.0177,17.14554 0.002,5.74725 0.0184,11.49593 -0.1492,17.24135 -0.22657,5.82055 -0.6051,11.64693 -1.74192,17.3728 -1.04395,5.41969 -1.26355,10.80845 -1.60168,16.31676 -0.65471,5.10868 -2.25594,9.95104 -2.92547,15.01946 -0.6922,5.46165 -2.12136,10.72404 -3.09862,16.10908 -0.8041,5.01251 -2.44626,9.84411 -2.04325,14.98508 -0.20324,5.2279 -0.48432,10.48684 -1.77155,15.58192 -1.40951,5.33961 -1.61394,10.72971 -2.34928,16.20279 -1.10218,6.4777 -2.07792,12.8736 -2.11283,19.47361 -0.90823,9.57974 -2.36003,19.08706 -4.21282,28.53051 0,0 -38.21218,18.429 -38.21218,18.429 z"
       inkscape:connector-curvature="0" />
    <path
       style="fill:#ffff00;fill-opacity:1;stroke:#ffffff;stroke-opacity:1"
       id="path2991"
       d="m 360.8625,736.26956 c -0.83489,-9.48481 -1.65843,-18.96868 -2.19335,-28.47581 -0.34969,-6.53536 -0.42373,-13.08026 -0.45634,-19.62343 -0.0143,-5.70847 -0.002,-11.41696 0.004,-17.12543 -0.30601,-5.18968 1.12047,-10.20851 1.92637,-15.28512 0.74611,-5.34166 0.83929,-10.74284 0.92061,-16.12674 0.0975,-5.56833 -0.2606,-11.13254 0.63446,-16.64716 1.15174,-4.94364 1.69592,-9.97363 2.00088,-15.03031 -0.20468,-5.25429 0.80569,-10.32787 1.79154,-15.44732 0.94888,-5.20432 1.1204,-10.50069 1.24984,-15.77568 -0.21744,-5.17318 1.19569,-10.17389 1.99137,-15.23854 0.37141,-4.88635 1.95606,-9.53354 2.82164,-14.33376 0.8067,-5.32129 0.87722,-10.71481 0.95194,-16.08518 0.0477,-5.70502 0.0277,-11.41033 0.0195,-17.11547 0.47467,-5.14756 -0.67599,-10.08206 -1.58751,-15.09577 -0.92166,-5.39961 -1.10146,-10.88212 -1.23024,-16.34632 -0.0933,-5.70997 -0.0755,-11.421 -0.07,-17.13151 0.33113,-5.6886 -0.17959,-11.24495 -1.11396,-16.84285 -1.0221,-5.74712 -1.38758,-11.5727 -1.60174,-17.39644 -0.15913,-5.73303 -0.14571,-11.46898 -0.14423,-17.20367 0.006,-5.71422 0.0125,-11.42844 0.0159,-17.14266 0.20752,-5.01402 -1.22385,-9.875 -1.95175,-14.79994 -0.71566,-5.50641 -0.81048,-11.06553 -0.88787,-16.60975 -0.0508,-5.71687 -0.0339,-11.43408 -0.0273,-17.1511 0.007,-5.71738 0.0102,-11.43477 0.0119,-17.15215 0.001,-5.71444 0.001,-11.42888 0.001,-17.14332 -0.11144,-4.54663 -1.81537,-8.65382 -3.33048,-12.84865 -1.04924,-4.61409 -2.71462,-9.04616 -3.82825,-13.64321 -0.70625,-4.39729 -2.12737,-8.62861 -3.91199,-12.69302 -1.34099,-3.75111 -3.33432,-7.2826 -6.05557,-10.19948 -2.33176,-3.01725 -5.628,-5.39203 -9.15,-6.85265 -2.51538,-1.38396 -4.73606,-3.12592 -7.12484,-4.70133 0,0 35.87542,-22.9246 35.87542,-22.9246 l 0,0 c 2.19243,1.53332 4.4154,3.00951 6.80469,4.22629 3.77643,2.15381 7.40658,4.73216 10.04252,8.24054 2.8327,3.37935 5.25762,7.14233 6.69527,11.3354 1.89194,4.29362 3.559,8.75106 4.27213,13.40857 0.97117,4.47876 2.7464,8.70053 3.611,13.20325 1.62746,4.66087 3.57744,9.15976 3.93616,14.17044 3e-5,5.71478 1.5e-4,11.42956 -7.7e-4,17.14434 -0.001,5.71861 -0.003,11.43722 -0.0104,17.15583 -0.007,5.70014 -0.0229,11.40035 0.007,17.10045 0.0497,5.3752 0.0941,10.76304 0.67533,16.11291 0.66915,5.13148 2.24068,10.15558 2.18374,15.34476 -0.003,5.71433 -0.008,11.42866 -0.0157,17.14299 -0.006,5.69396 -0.0243,11.38858 0.0817,17.08183 0.14913,5.64925 0.39307,11.30926 1.33263,16.89269 0.97923,5.81372 1.92765,11.54066 1.44613,17.4704 -0.007,5.68247 -0.0253,11.36519 0.0362,17.04744 0.0878,5.25761 0.18741,10.53442 0.96792,15.74466 0.892,5.24646 2.39748,10.38752 1.87867,15.77203 0.008,5.71937 0.0258,11.43877 0.007,17.15813 -0.0383,5.5392 -0.0658,11.09136 -0.642,16.6066 -0.62994,4.86726 -2.16532,9.46535 -2.8548,14.27551 -0.59627,4.98253 -2.10966,9.81202 -2.24774,14.80806 -0.0786,5.45657 -0.16869,10.93059 -0.9147,16.3455 -0.80684,5.01376 -2.45496,9.84525 -2.05868,14.98817 -0.20814,5.2174 -0.50601,10.45659 -1.69444,15.5602 -1.23314,5.28955 -1.13761,10.55072 -1.02658,15.97829 -0.045,5.53432 -0.0879,11.07971 -0.64282,16.5916 -0.6035,4.97014 -2.13957,9.79252 -2.22689,14.78095 -0.005,5.70615 -0.0139,11.4123 -0.0215,17.11845 -0.001,6.50923 0.002,13.01998 0.2245,19.52628 0.3702,9.41441 0.94139,18.83142 2.19452,28.17503 0,0 -37.59148,19.68078 -37.59148,19.68078 z"
       inkscape:connector-curvature="0" />
    <path
       style="fill:#ffff00;fill-opacity:1;stroke:#ffffff;stroke-opacity:1"
       id="path2993"
       d="m 366.80965,293.20442 c -0.0304,-8.94621 0.29044,-17.8848 1.87117,-26.70353 1.09734,-5.07125 2.60755,-10.00383 5.43672,-14.38137 2.27942,-3.39029 5.08247,-6.45186 8.07356,-9.23032 2.29943,-2.48475 4.83883,-4.72354 7.15131,-7.19603 0,0 39.41193,-16.11556 39.41193,-16.11556 l 0,0 c -2.67018,2.05664 -4.59226,4.83698 -7.28871,6.86096 -2.49661,3.12324 -5.71965,5.57855 -8.3756,8.56442 -2.91169,4.49924 -5.1737,7.52435 -6.2167,13.11491 -2.39714,8.33687 -2.51391,17.20827 -2.25441,25.82173 0,0 -37.80927,19.26479 -37.80927,19.26479 z"
       inkscape:connector-curvature="0" />
    <path
       style="fill:#ffff00;fill-opacity:1;stroke:#ffffff;stroke-opacity:1"
       id="path2995"
       d="m 342.81977,260.29578 c -4.86626,-7.32802 -9.97771,-14.4913 -15.96334,-20.94863 -4.36548,-4.35539 -9.36409,-6.95575 -15.34533,-8.17799 -4.99462,-0.89639 -9.77809,-2.43042 -14.85636,-3.01279 -5.19251,-0.15789 -10.60354,-1.1658 -15.69432,0.10055 -3.07336,1.22711 -6.51153,0.97899 -9.66128,1.74467 -1.46768,0.35679 -2.82126,1.08224 -4.2527,1.56427 0,0 33.65791,-26.01845 33.65791,-26.01845 l 0,0 c 4.67676,-1.29842 9.56341,-1.81278 14.32731,-2.71682 5.46423,-0.12758 10.95063,0.0893 16.36906,0.83683 5.09421,0.88342 10.01904,2.42158 15.08866,3.42799 6.40902,2.00503 11.94104,5.37953 16.5802,10.29841 6.0238,6.75954 11.04097,14.29032 16.4073,21.56655 0,0 -36.65711,21.33541 -36.65711,21.33541 z"
       inkscape:connector-curvature="0" />
    <path
       style="fill:#ffff00;fill-opacity:1;stroke:#ffffff;stroke-opacity:1"
       id="path2997"
       d="m 353.46367,264.08875 c 3.59538,-7.80198 7.80044,-15.34564 13.45834,-21.84122 13.06723,-11.19762 32.15499,-19.70573 45.29432,-26.84789 0.74202,-0.40333 1.67721,-0.26314 2.47602,-0.53728 0.70521,-0.24202 1.3341,-0.66613 2.00115,-0.99919 4.5719,-1.95873 9.58015,-2.20369 14.47956,-2.44387 5.32062,0.47127 10.22756,-0.75667 15.36333,-1.79517 5.2466,-0.91117 10.58295,-1.03273 15.8937,-1.13967 5.62566,-0.27334 11.04474,-0.19216 16.52309,1.08663 0,0 -34.88446,24.3155 -34.88446,24.3155 l 0,0 c -5.26674,-0.84795 -10.61075,-0.39026 -15.92383,-0.32722 -5.20276,0.22366 -10.41319,0.57934 -15.50607,1.74082 -5.18294,1.04676 -10.38141,1.09935 -15.65084,1.36098 -4.75394,0.50619 -9.37994,1.42489 -13.72131,3.52266 -13.84265,4.48399 -30.38678,17.00633 29.90848,-18.21996 0.72001,-0.42065 -1.51577,0.70379 -2.22862,1.13647 -7.26162,4.40767 3.18589,-1.34071 -4.83219,2.96752 -6.43342,5.30126 -10.75941,12.94262 -13.98676,20.52811 0,0 -38.66391,17.49278 -38.66391,17.49278 z"
       inkscape:connector-curvature="0" />
    <path
       style="fill:#ff00ff;fill-opacity:1;stroke:#ffffff;stroke-opacity:1"
       id="path2999"
       d="m 495.38108,727.49013 c 0.14368,-9.11148 0.51781,-18.23239 -0.65178,-27.28755 -1.01022,-5.90863 -1.65666,-11.85723 -1.99018,-17.8395 -0.0281,-4.97369 -1.46944,-9.77215 -2.2034,-14.6659 -0.71538,-5.49997 -0.80009,-11.05337 -0.87288,-16.59103 -0.27001,-5.4814 -0.0228,-10.84902 1.05654,-16.22404 1.1238,-5.05325 1.45031,-10.21998 1.65896,-15.37672 0.16816,-5.655 0.15264,-11.31337 0.15151,-16.97026 -0.47346,-4.54197 -1.37577,-9.03992 -2.87084,-13.35446 -1.79014,-4.91618 -2.30831,-10.11632 -2.64402,-15.29747 0.0651,-5.21273 -0.34852,-10.27112 -1.37279,-15.37134 -0.62831,-4.84994 -1.50301,-9.57975 -2.69712,-14.31842 -1.27704,-5.2312 -1.5633,-10.61756 -1.76143,-15.97643 -0.15028,-5.70233 -0.12875,-11.40737 -0.1236,-17.11115 0.009,-5.72006 0.0154,-11.44012 0.019,-17.16018 0.003,-5.71483 0.003,-11.42966 0.003,-17.14448 -0.29505,-5.88693 0.17085,-11.66223 1.13832,-17.46032 1.01738,-5.57602 1.38242,-11.2309 1.59396,-16.88514 -0.0774,-5.45581 0.15449,-10.80199 1.2225,-16.15383 1.11059,-5.05147 1.42751,-10.21472 1.63128,-15.36724 0.49718,-4.98864 1.7688,-9.83867 2.37215,-14.81969 0.62183,-5.43523 0.38823,-10.91538 0.81393,-16.35957 0.98724,-4.80093 1.51564,-9.70448 2.84627,-14.42636 1.59437,-4.57031 1.84824,-9.42379 3.03088,-14.08807 0.99988,-4.44656 3.08591,-8.48317 4.18806,-12.89775 0.68325,-4.48695 3.17554,-8.26472 4.89737,-12.35819 1.7062,-4.66814 4.12891,-9.03951 6.42056,-13.43925 2.21544,-4.36035 4.92036,-8.46748 8.15964,-12.13175 2.69939,-3.09823 5.50809,-6.13762 8.53245,-8.92506 2.68817,-3.19528 5.91699,-5.68531 9.20715,-8.19327 12.95834,-9.6764 26.82432,-15.20815 41.41417,-24.6593 11.19747,-7.2536 -23.08675,13.37916 -34.67116,19.99726 -4.49533,2.56816 3.00053,-1.94611 3.42672,-2.20381 3.66983,-2.96957 7.45795,-5.76041 11.19917,-8.64387 13.64625,-10.09267 28.61611,-17.07854 43.71179,-25.64919 2.66143,-1.51103 5.4165,-2.48449 8.32592,-3.38317 5.0831,-1.58921 9.90955,-3.39205 15.24882,-4.09005 5.50796,-0.54455 11.05078,-0.52689 16.57957,-0.54067 3.80615,-1.3e-4 7.61228,0.0128 11.41842,0.0225 0,0 -34.35965,24.95229 -34.35965,24.95229 l 0,0 c -3.79869,-0.007 -7.59749,-0.018 -11.39609,0.016 -5.40722,0.0759 -10.85175,0.13448 -16.1841,1.13772 -5.04322,1.15593 -9.81615,3.13495 -14.76145,4.63397 -3.21588,1.35239 -2.19572,0.86306 -5.34581,2.43263 -0.89409,0.44549 -3.5342,1.86096 -2.6732,1.35449 60.08195,-35.34201 40.908,-24.8018 28.94052,-16.50783 -3.90363,2.61814 -7.55394,5.52425 -11.17556,8.44275 -2.26105,2.23387 -0.63424,0.90422 -3.32262,2.4744 -12.70108,7.4182 -25.42227,14.80264 -38.06993,22.31155 -11.46283,6.80547 22.99133,-13.49985 34.51534,-20.2012 1.1824,-0.68757 -4.82677,2.91744 -3.16613,2.61019 -3.56001,2.00426 -6.70956,4.36626 -9.5881,7.23748 -2.5417,3.19857 -5.81501,5.76893 -8.65293,8.69188 -2.85549,3.78024 -6.36898,7.02257 -8.63141,11.27696 -2.02671,4.3924 -4.41241,8.60062 -6.57628,12.91873 -1.18501,4.3042 -3.63406,7.72646 -5.15234,11.87781 -0.80903,4.93445 -2.4109,8.56254 -4.05429,13.14562 -1.38834,4.68744 -1.83761,9.43071 -2.97781,14.18895 -1.48524,4.55588 -2.15083,9.16189 -3.15713,13.85606 -1.17139,5.29182 -0.20327,10.83973 -0.89749,16.21485 -0.42351,4.92824 -1.16245,9.79592 -2.52671,14.56165 -0.13296,5.34343 -0.30615,10.71005 -1.27487,15.98069 -1.05332,5.18551 -2.05862,10.19044 -1.59093,15.54416 -0.15128,5.81799 -0.39608,11.64755 -1.34371,17.40048 -0.94972,5.60753 -1.95792,11.09498 -1.44916,16.82516 -6e-5,5.71554 -2e-5,11.43107 -0.002,17.14661 -0.003,5.72085 -0.008,11.44169 -0.018,17.16253 -0.008,5.66009 -0.0314,11.32086 0.0707,16.98032 0.13608,5.07268 0.29382,10.18051 1.39262,15.15522 1.1758,4.81098 2.35384,9.53594 2.77919,14.49079 1.06651,5.29372 1.91278,10.48577 1.61881,15.92249 0.23292,4.79737 0.53479,9.64408 2.13853,14.21674 1.68629,4.76261 2.70172,9.65713 3.46676,14.6569 0.006,5.69724 0.0253,11.3951 -0.076,17.0917 -0.13674,5.34874 -0.31637,10.72094 -1.3011,15.99447 -1.06056,5.15459 -2.08939,10.11762 -1.50547,15.44391 0.0461,5.36567 0.083,10.74424 0.65803,16.08513 0.66032,5.04099 2.21816,9.94118 2.34773,15.02687 0.24628,5.89469 0.75627,11.76808 1.72741,17.59261 1.20213,9.21975 0.77815,18.45604 0.97528,27.73623 0,0 -37.80927,19.26478 -37.80927,19.26478 z"
       inkscape:connector-curvature="0" />
  </g>
</svg>
