<?xml version="1.0" encoding="UTF-8" standalone="no"?>
<!-- Created with Inkscape (http://www.inkscape.org/) -->

<svg
   xmlns:dc="http://purl.org/dc/elements/1.1/"
   xmlns:cc="http://creativecommons.org/ns#"
   xmlns:rdf="http://www.w3.org/1999/02/22-rdf-syntax-ns#"
   xmlns:svg="http://www.w3.org/2000/svg"
   xmlns="http://www.w3.org/2000/svg"
   xmlns:sodipodi="http://sodipodi.sourceforge.net/DTD/sodipodi-0.dtd"
   xmlns:inkscape="http://www.inkscape.org/namespaces/inkscape"
   width="186.36272"
   height="186.48486"
   id="svg2"
   version="1.1"
   inkscape:version="0.48.2 r9819"
   sodipodi:docname="ping_gather.svg"
   inkscape:export-filename="C:\Users\Jannis\Documents\Sync\Bilder\Eduras\ping_gather.png"
   inkscape:export-xdpi="16.66"
   inkscape:export-ydpi="16.66"
   enable-background="new">
  <defs
     id="defs4" />
  <sodipodi:namedview
     id="base"
     pagecolor="#ffffff"
     bordercolor="#666666"
     borderopacity="1.0"
     inkscape:pageopacity="0.0"
     inkscape:pageshadow="2"
     inkscape:zoom="4"
     inkscape:cx="59.043516"
     inkscape:cy="91.180446"
     inkscape:document-units="px"
     inkscape:current-layer="layer4"
     showgrid="false"
     inkscape:window-width="1920"
     inkscape:window-height="1028"
     inkscape:window-x="-8"
     inkscape:window-y="-8"
     inkscape:window-maximized="1"
     fit-margin-top="20"
     fit-margin-left="20"
     fit-margin-right="20"
     fit-margin-bottom="20" />
  <metadata
     id="metadata7">
    <rdf:RDF>
      <cc:Work
         rdf:about="">
        <dc:format>image/svg+xml</dc:format>
        <dc:type
           rdf:resource="http://purl.org/dc/dcmitype/StillImage" />
        <dc:title></dc:title>
      </cc:Work>
    </rdf:RDF>
  </metadata>
  <g
     inkscape:label="old"
     inkscape:groupmode="layer"
     id="layer1"
     style="opacity:0.54208757;display:none"
     transform="translate(-269.20736,-415.93151)"
     sodipodi:insensitive="true">
    <path
       sodipodi:type="arc"
       style="fill:#ffffff;fill-rule:nonzero;stroke:none"
       id="path2985"
       sodipodi:cx="300.52039"
       sodipodi:cy="533.1438"
       sodipodi:rx="9.5964489"
       sodipodi:ry="1.0101526"
       d="m 310.11683,533.1438 a 9.5964489,1.0101526 0 1 1 -19.19289,0 9.5964489,1.0101526 0 1 1 19.19289,0 z" />
    <path
       style="font-size:medium;font-style:normal;font-variant:normal;font-weight:normal;font-stretch:normal;text-indent:0;text-align:start;text-decoration:none;line-height:normal;letter-spacing:normal;word-spacing:normal;text-transform:none;direction:ltr;block-progression:tb;writing-mode:lr-tb;text-anchor:start;baseline-shift:baseline;color:#000000;fill:#000000;fill-opacity:1;stroke:none;stroke-width:14.05027294;marker:none;visibility:visible;display:inline;overflow:visible;enable-background:accumulate;font-family:Sans;-inkscape-font-specification:Sans"
       d="m 363.36051,432.39599 c -40.82884,-0.22534 -77.48952,26.3489 -77.68525,76.49364 -0.19574,50.14475 46.98408,76.80747 77.45811,77.06001 38.30138,0.31741 75.67009,-39.3912 76.21572,-77.28716 0.54563,-37.89597 -35.15974,-76.04116 -75.98858,-76.26649 z m -0.50507,12.29382 c 16.98418,0 28.74237,3.71405 40.12095,15.82831 l -19.60418,36.49631 36.84404,-13.15442 c 4.9761,8.96807 5.56076,19.03742 5.30822,27.80755 -0.25254,8.77013 0.27097,10.86764 -6.60869,20.90347 l -37.51195,-6.79096 15.57415,32.14663 c -11.07549,10.05282 -17.25022,12.34153 -31.62254,12.34153 -14.37231,0 -17.43991,-1.39128 -27.23408,-7.77485 l 11.18453,-38.87241 -40.28686,13.4808 c -5.60981,-4.17156 -8.9528,-17.22243 -8.9528,-23.7299 0,-6.50747 0.42034,-17.89275 6.35526,-27.44788 l 37.13688,1.89146 -19.51847,-29.18819 c 11.04092,-9.87778 21.83136,-13.93745 38.81554,-13.93745 z"
       id="path2991"
       inkscape:connector-curvature="0"
       sodipodi:nodetypes="zzszzzccczccczccczcccz" />
  </g>
  <g
     inkscape:groupmode="layer"
     id="layer4"
     inkscape:label="draw"
     style="display:inline">
    <path
       style="font-size:medium;font-style:normal;font-variant:normal;font-weight:normal;font-stretch:normal;text-indent:0;text-align:start;text-decoration:none;line-height:normal;letter-spacing:normal;word-spacing:normal;text-transform:none;direction:ltr;block-progression:tb;writing-mode:lr-tb;text-anchor:start;baseline-shift:baseline;color:#000000;fill:#000000;fill-opacity:1;stroke:none;stroke-width:6.93999243;marker:none;visibility:visible;display:inline;overflow:visible;enable-background:accumulate;font-family:Sans;-inkscape-font-specification:Sans"
       d="M 91.25,14.5 C 51.744608,14.745244 16.229685,47.722798 12.8125,87.03125 8.731755,123.14415 31.905931,159.9803 66.25,171.5625 99.523912,183.71336 139.8934,171.02054 159.70246,141.55858 179.50069,113.72966 178.88829,72.788777 157.34375,46 141.99307,25.964822 116.7166,13.613661 91.25,14.5 z m 1.875,17.78125 c 14.81283,-0.36765 27.37243,4.300024 38.61451,13.673755 l -21.87076,35.992474 40.84966,-12.870732 c 3.11102,6.591664 5.04201,13.734469 5.47244,21.137278 1.06718,11.492225 -1.45253,23.058905 -6.63942,33.289115 l -36.17342,-12.73068 18.17752,34.70874 c -5.86764,4.58117 -12.54418,8.09302 -19.77428,10.1438 -17.184115,5.44113 -36.19293,2.47536 -51.397931,-6.64433 L 77.56146,110.46836 37.0625,123.9375 C 28.140883,106.74127 28.404504,85.618159 36.45468,68.202437 L 74.322346,76.226905 57.218574,43.666793 C 67.667925,36.328708 80.362687,32.361896 93.125,32.28125 z"
       id="path3754-1"
       inkscape:connector-curvature="0"
       sodipodi:nodetypes="cccccccccccccccccccccc" />
  </g>
  <g
     inkscape:groupmode="layer"
     id="layer3"
     inkscape:label="guideline"
     style="display:none"
     sodipodi:insensitive="true">
    <path
       sodipodi:type="arc"
       style="opacity:0.56272398;fill:none;stroke:#55d400;stroke-width:6.93999243;stroke-miterlimit:4;stroke-dasharray:none;display:inline"
       id="path3754"
       sodipodi:cx="4.4194174"
       sodipodi:cy="68.92836"
       sodipodi:rx="50.633896"
       sodipodi:ry="50.633896"
       d="m 55.053313,68.92836 a 50.633896,50.633896 0 1 1 -101.267791,0 50.633896,50.633896 0 1 1 101.267791,0 z"
       transform="matrix(1.4199194,0,0,1.4199194,87.03762,-2.54968)" />
  </g>
</svg>
