<?xml version="1.0" encoding="UTF-8" standalone="no"?>
<!-- Created with Inkscape (http://www.inkscape.org/) -->

<svg
   xmlns:dc="http://purl.org/dc/elements/1.1/"
   xmlns:cc="http://creativecommons.org/ns#"
   xmlns:rdf="http://www.w3.org/1999/02/22-rdf-syntax-ns#"
   xmlns:svg="http://www.w3.org/2000/svg"
   xmlns="http://www.w3.org/2000/svg"
   xmlns:sodipodi="http://sodipodi.sourceforge.net/DTD/sodipodi-0.dtd"
   xmlns:inkscape="http://www.inkscape.org/namespaces/inkscape"
   width="210mm"
   height="297mm"
   id="svg2"
   version="1.1"
   inkscape:version="0.48.2 r9819"
   sodipodi:docname="ping_danger.svg"
   inkscape:export-filename="C:\Users\Jannis\Documents\Sync\Bilder\Eduras\ping_danger.png"
   inkscape:export-xdpi="16.66"
   inkscape:export-ydpi="16.66">
  <defs
     id="defs4" />
  <sodipodi:namedview
     id="base"
     pagecolor="#ffffff"
     bordercolor="#666666"
     borderopacity="1.0"
     inkscape:pageopacity="0.0"
     inkscape:pageshadow="2"
     inkscape:zoom="2.8"
     inkscape:cx="480.83392"
     inkscape:cy="529.30472"
     inkscape:document-units="px"
     inkscape:current-layer="layer2"
     showgrid="false"
     inkscape:window-width="1920"
     inkscape:window-height="1028"
     inkscape:window-x="-8"
     inkscape:window-y="-8"
     inkscape:window-maximized="1"
     showguides="true"
     inkscape:guide-bbox="true" />
  <metadata
     id="metadata7">
    <rdf:RDF>
      <cc:Work
         rdf:about="">
        <dc:format>image/svg+xml</dc:format>
        <dc:type
           rdf:resource="http://purl.org/dc/dcmitype/StillImage" />
        <dc:title></dc:title>
      </cc:Work>
    </rdf:RDF>
  </metadata>
  <g
     inkscape:groupmode="layer"
     id="layer2"
     inkscape:label="or"
     style="display:inline">
    <path
       style="font-size:medium;font-style:normal;font-variant:normal;font-weight:normal;font-stretch:normal;text-indent:0;text-align:start;text-decoration:none;line-height:normal;letter-spacing:normal;word-spacing:normal;text-transform:none;direction:ltr;block-progression:tb;writing-mode:lr-tb;text-anchor:start;baseline-shift:baseline;color:#000000;fill:#ff0000;fill-opacity:1;stroke:none;stroke-width:19.26737213;marker:none;visibility:visible;display:inline;overflow:visible;enable-background:accumulate;font-family:Sans;-inkscape-font-specification:Sans"
       d="m 360.09375,431.5625 c -14.11436,0 -27.35509,3.86195 -38.71958,10.58321 l -43.18954,-33.64152 25.13064,48.43922 c -10.19463,11.33691 -17.05742,25.72488 -19.01943,41.59496 l -46.25409,10.372 46.35735,9.22629 c 1.72715,12.8487 6.66973,24.7023 13.98714,34.72019 l -22.44436,51.58537 37.90494,-35.78901 c 12.85081,9.81781 28.88818,15.65929 46.24697,15.65929 15.90858,0 30.70731,-4.90622 42.96054,-13.283 l 52.8104,33.348 -35.82194,-49.20616 c 8.51822,-10.78255 14.19828,-23.9021 15.89474,-38.21322 l 52.04904,-8.26301 -51.78502,-7.1666 c -1.1457,-13.68318 -5.92499,-26.36023 -13.36553,-37.05881 l 33.58166,-42.51676 -49.0883,26.03694 C 394.31687,437.7094 377.90056,431.5625 360.09375,431.5625 z m 0,19.28125 c 31.65499,0 57.125,25.43876 57.125,57.09375 0,31.65499 -25.47001,57.125 -57.125,57.125 -31.65499,0 -57.09375,-25.47001 -57.09375,-57.125 0,-31.65499 25.43876,-57.09375 57.09375,-57.09375 z"
       id="path3766"
       inkscape:connector-curvature="0"
       sodipodi:nodetypes="scccccccccscccccccccssssss" />
  </g>
  <g
     inkscape:label="Ebene 1"
     inkscape:groupmode="layer"
     id="layer1"
     style="display:none">
    <path
       sodipodi:type="arc"
       style="fill:#ffffff;fill-rule:nonzero;stroke:none"
       id="path2985"
       sodipodi:cx="300.52039"
       sodipodi:cy="533.1438"
       sodipodi:rx="9.5964489"
       sodipodi:ry="1.0101526"
       d="m 310.11683,533.1438 a 9.5964489,1.0101526 0 1 1 -19.19289,0 9.5964489,1.0101526 0 1 1 19.19289,0 z" />
    <path
       style="font-size:medium;font-style:normal;font-variant:normal;font-weight:normal;font-stretch:normal;text-indent:0;text-align:start;text-decoration:none;line-height:normal;letter-spacing:normal;word-spacing:normal;text-transform:none;direction:ltr;block-progression:tb;writing-mode:lr-tb;text-anchor:start;baseline-shift:baseline;color:#000000;fill:#ff0000;fill-opacity:1;stroke:none;stroke-width:14.05027294;marker:none;visibility:visible;display:inline;overflow:visible;enable-background:accumulate;font-family:Sans;-inkscape-font-specification:Sans"
       d="m 360.11879,432.55197 c -47.63036,0.78562 -76.45644,36.52314 -75.90829,79.08162 0.54816,42.55848 39.72082,73.11901 74.91657,72.89822 43.76819,-0.27458 74.8493,-33.0731 76.42179,-73.3926 1.57249,-40.3195 -27.79971,-79.37285 -75.43007,-78.58724 z m -1.32457,16.81931 c 3.09415,0.27296 9.35205,-0.25233 21.04858,3.82002 l 69.85009,-26.41311 -36.46568,58.53852 c 5.12853,9.24278 4.42972,13.76408 4.16944,20.33058 -0.26028,6.56651 1.32036,10.94029 -5.77004,21.28353 l 48.79102,69.78183 -76.6063,-37.92343 c -11.41476,10.36076 -27.1485,5.69218 -31.28984,5.17163 -4.14135,-0.52053 -10.53823,-0.71961 -20.63242,-7.29872 l -64.13649,41.65203 40.38926,-66.09297 c -5.78165,-4.29935 -7.03281,-13.42564 -7.03281,-20.13245 0,-6.70681 -0.86815,-0.74221 3.16637,-16.57634 l -41.83077,-62.19902 69.87928,24.43598 c 14.50242,-7.31732 23.37615,-8.65103 26.47031,-8.37808 z"
       id="path2991"
       inkscape:connector-curvature="0"
       sodipodi:nodetypes="zzszzzccczccczccczcccz"
       inkscape:export-xdpi="16"
       inkscape:export-ydpi="16" />
  </g>
</svg>
